999
DXF created by Inkscape
  0
SECTION
  2
HEADER
  9
$ACADVER
  1
AC1014
  9
$HANDSEED
  5
FFFF
  9
$MEASUREMENT
 70
     1
  0
ENDSEC
  0
SECTION
  2
TABLES
  0
TABLE
  2
VPORT
  5
8
330
0
100
AcDbSymbolTable
 70
     4
  0
VPORT
  5
2E
330
8
100
AcDbSymbolTableRecord
100
AcDbViewportTableRecord
  2
*ACTIVE
 70
     0
 10
0.0
 20
0.0
 11
1.0
 21
1.0
 12
210.0
 22
148.5
 13
0.0
 23
0.0
 14
10.0
 24
10.0
 15
10.0
 25
10.0
 16
0.0
 26
0.0
 36
1.0
 17
0.0
 27
0.0
 37
0.0
 40
341.0
 41
1.24
 42
50.0
 43
0.0
 44
0.0
 50
0.0
 51
0.0
 71
     0
 72
   100
 73
     1
 74
     3
 75
     0
 76
     0
 77
     0
 78
     0
  0
ENDTAB
  0
TABLE
  2
LTYPE
  5
5
330
0
100
AcDbSymbolTable
 70
     1
  0
LTYPE
  5
14
330
5
100
AcDbSymbolTableRecord
100
AcDbLinetypeTableRecord
  2
BYBLOCK
 70
     0
  3

 72
    65
 73
     0
 40
0.0
  0
LTYPE
  5
15
330
5
100
AcDbSymbolTableRecord
100
AcDbLinetypeTableRecord
  2
BYLAYER
 70
     0
  3

 72
    65
 73
     0
 40
0.0
  0
LTYPE
  5
16
330
5
100
AcDbSymbolTableRecord
100
AcDbLinetypeTableRecord
  2
CONTINUOUS
 70
     0
  3
Solid line
 72
    65
 73
     0
 40
0.0
  0
ENDTAB
  0
TABLE
  2
LAYER
  5
2
100
AcDbSymbolTable
 70
2
  0
LAYER
  5
50
100
AcDbSymbolTableRecord
100
AcDbLayerTableRecord
  2
0
 70
0
  6
CONTINUOUS
  0
LAYER
  5
51
100
AcDbSymbolTableRecord
100
AcDbLayerTableRecord
  2
Layer_1
 70
0
  6
CONTINUOUS
  0
ENDTAB
  0
TABLE
  2
STYLE
  5
3
330
0
100
AcDbSymbolTable
 70
     1
  0
STYLE
  5
11
330
3
100
AcDbSymbolTableRecord
100
AcDbTextStyleTableRecord
  2
STANDARD
 70
     0
 40
0.0
 41
1.0
 50
0.0
 71
     0
 42
2.5
  3
txt
  4

  0
ENDTAB
  0
TABLE
  2
VIEW
  5
6
330
0
100
AcDbSymbolTable
 70
     0
  0
ENDTAB
  0
TABLE
  2
UCS
  5
7
330
0
100
AcDbSymbolTable
 70
     0
  0
ENDTAB
  0
TABLE
  2
APPID
  5
9
330
0
100
AcDbSymbolTable
 70
     2
  0
APPID
  5
12
330
9
100
AcDbSymbolTableRecord
100
AcDbRegAppTableRecord
  2
ACAD
 70
     0
  0
ENDTAB
  0
TABLE
  2
DIMSTYLE
  5
A
330
0
100
AcDbSymbolTable
 70
     1
  0
DIMSTYLE
105
27
330
A
100
AcDbSymbolTableRecord
100
AcDbDimStyleTableRecord
  2
ISO-25
 70
     0
  3

  4

  5

  6

  7

 40
1.0
 41
2.5
 42
0.625
 43
3.75
 44
1.25
 45
0.0
 46
0.0
 47
0.0
 48
0.0
140
2.5
141
2.5
142
0.0
143
0.03937007874016
144
1.0
145
0.0
146
1.0
147
0.625
 71
     0
 72
     0
 73
     0
 74
     0
 75
     0
 76
     0
 77
     1
 78
     8
170
     0
171
     3
172
     1
173
     0
174
     0
175
     0
176
     0
177
     0
178
     0
270
     2
271
     2
272
     2
273
     2
274
     3
340
11
275
     0
280
     0
281
     0
282
     0
283
     0
284
     8
285
     0
286
     0
287
     3
288
     0
  0
ENDTAB
  0
TABLE
  2
BLOCK_RECORD
  5
1
330
0
100
AcDbSymbolTable
 70
     1
  0
BLOCK_RECORD
  5
1F
330
1
100
AcDbSymbolTableRecord
100
AcDbBlockTableRecord
  2
*MODEL_SPACE
  0
BLOCK_RECORD
  5
1B
330
1
100
AcDbSymbolTableRecord
100
AcDbBlockTableRecord
  2
*PAPER_SPACE
  0
ENDTAB
  0
ENDSEC
  0
SECTION
  2
BLOCKS
  0
BLOCK
  5
20
330
1F
100
AcDbEntity
  8
0
100
AcDbBlockBegin
  2
*MODEL_SPACE
 70
     0
 10
0.0
 20
0.0
 30
0.0
  3
*MODEL_SPACE
  1

  0
ENDBLK
  5
21
330
1F
100
AcDbEntity
  8
0
100
AcDbBlockEnd
  0
BLOCK
  5
1C
330
1B
100
AcDbEntity
 67
     1
  8
0
100
AcDbBlockBegin
  2
*PAPER_SPACE
  1

  0
ENDBLK
  5
1D
330
1B
100
AcDbEntity
 67
     1
  8
0
100
AcDbBlockEnd
  0
ENDSEC
  0
SECTION
  2
ENTITIES
  0
LWPOLYLINE
  5
100
100
AcDbEntity
  8
Layer_1
 62
7
100
AcDbPolyline
 90
27
 70
0
 10
-1.515155
 20
10.147640
 30
0.0
 10
-4.225952
 20
11.672741
 30
0.0
 10
-6.158402
 20
14.248188
 30
0.0
 10
-6.743609
 20
16.219281
 30
0.0
 10
-6.836150
 20
21.138751
 30
0.0
 10
-6.733580
 20
26.046141
 30
0.0
 10
-6.167411
 20
28.121391
 30
0.0
 10
-3.853831
 20
31.045030
 30
0.0
 10
-0.343055
 20
32.588684
 30
0.0
 10
0.147331
 20
32.680680
 30
0.0
 10
0.637718
 20
32.772679
 30
0.0
 10
0.637718
 20
31.769198
 30
0.0
 10
0.637718
 20
30.765715
 30
0.0
 10
0.553041
 20
29.181833
 30
0.0
 10
0.236039
 20
28.758751
 30
0.0
 10
-0.297425
 20
28.548577
 30
0.0
 10
-1.015944
 20
28.043269
 30
0.0
 10
-2.226561
 20
25.629778
 30
0.0
 10
-2.425494
 20
20.221212
 30
0.0
 10
-1.997718
 20
15.819260
 30
0.0
 10
-0.266790
 20
13.942090
 30
0.0
 10
0.492502
 20
13.187794
 30
0.0
 10
0.626847
 20
11.472645
 30
0.0
 10
0.572347
 20
10.131892
 30
0.0
 10
0.426051
 20
9.583478
 30
0.0
 10
-0.231491
 20
9.755746
 30
0.0
 10
-1.515155
 20
10.147640
 30
0.0
  0
LWPOLYLINE
  5
101
100
AcDbEntity
  8
Layer_1
 62
7
100
AcDbPolyline
 90
25
 70
0
 10
1.766607
 20
11.543003
 30
0.0
 10
1.884054
 20
13.296873
 30
0.0
 10
2.625753
 20
13.948524
 30
0.0
 10
4.260958
 20
15.820081
 30
0.0
 10
4.587336
 20
21.138751
 30
0.0
 10
4.254575
 20
26.615643
 30
0.0
 10
2.689936
 20
28.476528
 30
0.0
 10
1.897595
 20
29.098439
 30
0.0
 10
1.772714
 20
30.836270
 30
0.0
 10
1.769660
 20
31.804476
 30
0.0
 10
1.766607
 20
32.772679
 30
0.0
 10
2.295773
 20
32.674570
 30
0.0
 10
2.824940
 20
32.576461
 30
0.0
 10
6.391295
 20
30.812956
 30
0.0
 10
8.730135
 20
27.540696
 30
0.0
 10
8.979008
 20
25.427766
 30
0.0
 10
9.080156
 20
21.138751
 30
0.0
 10
8.999886
 20
16.225022
 30
0.0
 10
8.430607
 20
14.224312
 30
0.0
 10
6.094954
 20
11.252484
 30
0.0
 10
2.683829
 20
9.750582
 30
0.0
 10
2.225218
 20
9.666169
 30
0.0
 10
1.766607
 20
9.581756
 30
0.0
 10
1.766607
 20
10.562394
 30
0.0
 10
1.766607
 20
11.543003
 30
0.0
  0
LWPOLYLINE
  5
102
100
AcDbEntity
  8
Layer_1
 62
7
100
AcDbPolyline
 90
27
 70
0
 10
16.104402
 20
9.963603
 30
0.0
 10
12.568760
 20
11.961793
 30
0.0
 10
10.518922
 20
15.340952
 30
0.0
 10
10.301370
 20
18.662440
 30
0.0
 10
10.925751
 20
21.703195
 30
0.0
 10
14.245927
 20
26.902383
 30
0.0
 10
17.681394
 20
31.822583
 30
0.0
 10
19.722366
 20
32.785836
 30
0.0
 10
21.269336
 20
31.362547
 30
0.0
 10
21.252680
 20
30.003588
 30
0.0
 10
19.564631
 20
27.372901
 30
0.0
 10
18.337094
 20
25.391913
 30
0.0
 10
18.135495
 20
23.522219
 30
0.0
 10
18.013292
 20
21.860029
 30
0.0
 10
17.181493
 20
21.275786
 30
0.0
 10
15.565524
 20
20.062880
 30
0.0
 10
14.576574
 20
18.434032
 30
0.0
 10
15.027377
 20
15.656880
 30
0.0
 10
17.169256
 20
13.793866
 30
0.0
 10
17.664679
 20
13.630375
 30
0.0
 10
18.160102
 20
13.466856
 30
0.0
 10
18.118671
 20
12.538570
 30
0.0
 10
18.077241
 20
11.610285
 30
0.0
 10
17.935821
 20
10.277660
 30
0.0
 10
17.712161
 20
9.680760
 30
0.0
 10
17.123464
 20
9.733761
 30
0.0
 10
16.104402
 20
9.963603
 30
0.0
  0
LWPOLYLINE
  5
103
100
AcDbEntity
  8
Layer_1
 62
7
100
AcDbPolyline
 90
23
 70
0
 10
18.982162
 20
11.519946
 30
0.0
 10
18.982162
 20
12.496124
 30
0.0
 10
18.982162
 20
13.472274
 30
0.0
 10
19.502223
 20
13.730846
 30
0.0
 10
20.022284
 20
13.989390
 30
0.0
 10
20.913369
 20
14.569046
 30
0.0
 10
21.595173
 20
15.236519
 30
0.0
 10
22.177110
 20
18.499075
 30
0.0
 10
20.117091
 20
21.028870
 30
0.0
 10
19.549626
 20
21.279235
 30
0.0
 10
18.982162
 20
21.529600
 30
0.0
 10
18.982162
 20
22.509961
 30
0.0
 10
18.982162
 20
23.490325
 30
0.0
 10
18.982162
 20
24.470689
 30
0.0
 10
18.982162
 20
25.451053
 30
0.0
 10
19.777909
 20
25.368923
 30
0.0
 10
20.573656
 20
25.286794
 30
0.0
 10
26.731798
 20
19.169280
 30
0.0
 10
22.651051
 20
10.652592
 30
0.0
 10
20.887014
 20
9.976980
 30
0.0
 10
19.139411
 20
9.567645
 30
0.0
 10
19.028354
 20
10.141121
 30
0.0
 10
18.982162
 20
11.519946
 30
0.0
  0
LWPOLYLINE
  5
104
100
AcDbEntity
  8
Layer_1
 62
7
100
AcDbPolyline
 90
23
 70
0
 10
42.351068
 20
9.962587
 30
0.0
 10
37.029455
 20
14.768549
 30
0.0
 10
37.719646
 20
22.430194
 30
0.0
 10
41.656198
 20
28.538270
 30
0.0
 10
44.997474
 20
32.641468
 30
0.0
 10
46.866706
 20
32.410644
 30
0.0
 10
47.768829
 20
30.508410
 30
0.0
 10
47.271412
 20
29.471060
 30
0.0
 10
46.075496
 20
27.653235
 30
0.0
 10
44.603196
 20
25.340543
 30
0.0
 10
44.382162
 20
23.372720
 30
0.0
 10
44.275192
 20
21.695095
 30
0.0
 10
43.575159
 20
21.288574
 30
0.0
 10
42.791580
 20
20.939437
 30
0.0
 10
42.040892
 20
20.348926
 30
0.0
 10
40.879034
 20
16.765125
 30
0.0
 10
43.260095
 20
13.905175
 30
0.0
 10
43.821127
 20
13.657666
 30
0.0
 10
44.382162
 20
13.410129
 30
0.0
 10
44.382162
 20
12.449501
 30
0.0
 10
44.382162
 20
11.488873
 30
0.0
 10
44.148558
 20
9.717110
 30
0.0
 10
42.351068
 20
9.962587
 30
0.0
  0
LWPOLYLINE
  5
105
100
AcDbEntity
  8
Layer_1
 62
7
100
AcDbPolyline
 90
25
 70
0
 10
45.228829
 20
11.505242
 30
0.0
 10
45.228829
 20
12.486839
 30
0.0
 10
45.228829
 20
13.468408
 30
0.0
 10
45.837653
 20
13.763132
 30
0.0
 10
46.446480
 20
14.057857
 30
0.0
 10
48.624913
 20
17.582635
 30
0.0
 10
46.380358
 20
21.021547
 30
0.0
 10
45.804593
 20
21.275575
 30
0.0
 10
45.228829
 20
21.529600
 30
0.0
 10
45.228829
 20
22.490222
 30
0.0
 10
45.228829
 20
23.450842
 30
0.0
 10
45.228829
 20
24.411464
 30
0.0
 10
45.228829
 20
25.372084
 30
0.0
 10
45.828551
 20
25.370673
 30
0.0
 10
46.428273
 20
25.369262
 30
0.0
 10
50.205722
 20
23.991142
 30
0.0
 10
52.699844
 20
20.610329
 30
0.0
 10
51.967175
 20
13.689472
 30
0.0
 10
46.287162
 20
9.724278
 30
0.0
 10
45.757996
 20
9.633149
 30
0.0
 10
45.228829
 20
9.541991
 30
0.0
 10
45.228829
 20
10.523588
 30
0.0
 10
45.228829
 20
11.505157
 30
0.0
 10
45.228829
 20
11.505214
 30
0.0
 10
45.228829
 20
11.505242
 30
0.0
  0
LWPOLYLINE
  5
106
100
AcDbEntity
  8
Layer_1
 62
7
100
AcDbPolyline
 90
13
 70
0
 10
59.133130
 20
9.865248
 30
0.0
 10
54.432496
 20
12.612202
 30
0.0
 10
54.439100
 20
16.038267
 30
0.0
 10
55.930377
 20
16.535365
 30
0.0
 10
57.819030
 20
15.207422
 30
0.0
 10
59.130729
 20
14.152712
 30
0.0
 10
60.174632
 20
13.619933
 30
0.0
 10
60.925239
 20
13.225697
 30
0.0
 10
61.033262
 20
11.507923
 30
0.0
 10
60.951003
 20
10.027272
 30
0.0
 10
60.680484
 20
9.598548
 30
0.0
 10
60.080423
 20
9.689622
 30
0.0
 10
59.133130
 20
9.865248
 30
0.0
  0
LWPOLYLINE
  5
107
100
AcDbEntity
  8
Layer_1
 62
7
100
AcDbPolyline
 90
23
 70
0
 10
61.890811
 20
11.651630
 30
0.0
 10
62.022380
 20
13.459998
 30
0.0
 10
62.784448
 20
14.224312
 30
0.0
 10
64.251451
 20
15.629606
 30
0.0
 10
64.751740
 20
17.369791
 30
0.0
 10
64.259082
 20
19.428439
 30
0.0
 10
62.850206
 20
20.904255
 30
0.0
 10
62.010747
 20
21.643101
 30
0.0
 10
61.879940
 20
23.283295
 30
0.0
 10
61.976406
 20
24.827181
 30
0.0
 10
62.543382
 20
25.089862
 30
0.0
 10
63.293741
 20
24.994005
 30
0.0
 10
64.166160
 20
24.763545
 30
0.0
 10
68.397106
 20
21.006696
 30
0.0
 10
68.922623
 20
15.148657
 30
0.0
 10
66.644853
 20
11.794604
 30
0.0
 10
63.015080
 20
9.850996
 30
0.0
 10
62.447509
 20
9.747195
 30
0.0
 10
61.879940
 20
9.643422
 30
0.0
 10
61.885359
 20
10.647512
 30
0.0
 10
61.890777
 20
11.651630
 30
0.0
 10
61.890780
 20
11.651630
 30
0.0
 10
61.890811
 20
11.651630
 30
0.0
  0
LWPOLYLINE
  5
108
100
AcDbEntity
  8
Layer_1
 62
7
100
AcDbPolyline
 90
15
 70
0
 10
88.777343
 20
10.248506
 30
0.0
 10
88.381419
 20
10.588951
 30
0.0
 10
87.985496
 20
10.929396
 30
0.0
 10
87.945364
 20
16.303954
 30
0.0
 10
87.905234
 20
21.678515
 30
0.0
 10
87.865105
 20
27.053076
 30
0.0
 10
87.824976
 20
32.427639
 30
0.0
 10
88.676494
 20
32.427639
 30
0.0
 10
89.528012
 20
32.427639
 30
0.0
 10
92.061101
 20
31.244434
 30
0.0
 10
92.350965
 20
21.209306
 30
0.0
 10
92.179603
 20
11.831970
 30
0.0
 10
91.037938
 20
9.895954
 30
0.0
 10
89.900255
 20
9.606535
 30
0.0
 10
88.777343
 20
10.248506
 30
0.0
  0
LWPOLYLINE
  5
109
100
AcDbEntity
  8
Layer_1
 62
7
100
AcDbPolyline
 90
13
 70
0
 10
99.223917
 20
9.903123
 30
0.0
 10
98.250208
 20
11.046518
 30
0.0
 10
98.335273
 20
12.580452
 30
0.0
 10
98.526222
 20
12.979034
 30
0.0
 10
98.717171
 20
13.377645
 30
0.0
 10
101.960920
 20
13.419978
 30
0.0
 10
105.204666
 20
13.462312
 30
0.0
 10
112.086068
 20
13.317475
 30
0.0
 10
114.038007
 20
12.252482
 30
0.0
 10
114.106088
 20
10.898379
 30
0.0
 10
113.276448
 20
9.867026
 30
0.0
 10
106.283354
 20
9.583280
 30
0.0
 10
99.223917
 20
9.903123
 30
0.0
  0
LWPOLYLINE
  5
10a
100
AcDbEntity
  8
Layer_1
 62
7
100
AcDbPolyline
 90
15
 70
0
 10
133.282162
 20
9.761983
 30
0.0
 10
132.838103
 20
10.002465
 30
0.0
 10
132.364940
 20
10.353775
 30
0.0
 10
131.947632
 20
12.395286
 30
0.0
 10
131.871051
 20
21.605826
 30
0.0
 10
131.871051
 20
27.016731
 30
0.0
 10
131.871051
 20
32.427639
 30
0.0
 10
132.695848
 20
32.427639
 30
0.0
 10
133.520643
 20
32.427639
 30
0.0
 10
135.833135
 20
31.250855
 30
0.0
 10
136.104384
 20
21.218349
 30
0.0
 10
136.026358
 20
12.556858
 30
0.0
 10
135.610496
 20
10.457605
 30
0.0
 10
134.505562
 20
9.776433
 30
0.0
 10
133.282162
 20
9.761983
 30
0.0
  0
LWPOLYLINE
  5
10b
100
AcDbEntity
  8
Layer_1
 62
7
100
AcDbPolyline
 90
65
 70
0
 10
147.312411
 20
9.970038
 30
0.0
 10
145.012404
 20
11.128052
 30
0.0
 10
143.018829
 20
13.216863
 30
0.0
 10
142.305281
 20
14.587645
 30
0.0
 10
142.172162
 20
16.717785
 30
0.0
 10
142.637795
 20
19.923101
 30
0.0
 10
144.238252
 20
21.851133
 30
0.0
 10
144.953905
 20
22.434969
 30
0.0
 10
144.754882
 20
22.713632
 30
0.0
 10
144.210106
 20
23.193901
 30
0.0
 10
143.575792
 20
24.089390
 30
0.0
 10
142.882942
 20
26.565421
 30
0.0
 10
143.264328
 20
29.137724
 30
0.0
 10
145.548785
 20
31.586042
 30
0.0
 10
148.766572
 20
32.709862
 30
0.0
 10
149.275109
 20
32.424397
 30
0.0
 10
149.368829
 20
30.875417
 30
0.0
 10
149.282957
 20
29.436530
 30
0.0
 10
148.970582
 20
29.040973
 30
0.0
 10
147.779003
 20
28.083954
 30
0.0
 10
147.111051
 20
26.376693
 30
0.0
 10
148.720824
 20
24.115123
 30
0.0
 10
151.541412
 20
24.586098
 30
0.0
 10
152.360887
 20
26.764949
 30
0.0
 10
151.066497
 20
28.699856
 30
0.0
 10
150.342687
 20
29.369446
 30
0.0
 10
150.217279
 20
30.945973
 30
0.0
 10
150.317172
 20
32.479004
 30
0.0
 10
150.991607
 20
32.707104
 30
0.0
 10
153.188227
 20
32.021708
 30
0.0
 10
155.211470
 20
30.697250
 30
0.0
 10
156.688776
 20
26.798201
 30
0.0
 10
155.193944
 20
23.138656
 30
0.0
 10
154.824571
 20
22.798054
 30
0.0
 10
154.455199
 20
22.457451
 30
0.0
 10
155.004615
 20
21.987170
 30
0.0
 10
155.554031
 20
21.516889
 30
0.0
 10
157.385261
 20
18.332059
 30
0.0
 10
156.989520
 20
14.290916
 30
0.0
 10
154.791777
 20
11.332437
 30
0.0
 10
151.132723
 20
9.750582
 30
0.0
 10
150.674110
 20
9.666169
 30
0.0
 10
150.215496
 20
9.581756
 30
0.0
 10
150.215496
 20
10.569478
 30
0.0
 10
150.215496
 20
11.557227
 30
0.0
 10
150.318586
 20
13.263345
 30
0.0
 10
150.875520
 20
13.783650
 30
0.0
 10
152.363836
 20
15.033384
 30
0.0
 10
153.037718
 20
16.799976
 30
0.0
 10
152.052280
 20
19.320520
 30
0.0
 10
149.495733
 20
20.292084
 30
0.0
 10
148.480551
 20
20.090069
 30
0.0
 10
147.506162
 20
19.332528
 30
0.0
 10
146.720670
 20
18.309738
 30
0.0
 10
146.546607
 20
17.064822
 30
0.0
 10
147.020859
 20
15.083393
 30
0.0
 10
148.451426
 20
13.894479
 30
0.0
 10
148.922813
 20
13.697516
 30
0.0
 10
149.394204
 20
13.500581
 30
0.0
 10
149.352584
 20
12.563857
 30
0.0
 10
149.310962
 20
11.627162
 30
0.0
 10
149.169267
 20
10.282599
 30
0.0
 10
148.945496
 20
9.680760
 30
0.0
 10
148.349360
 20
9.735652
 30
0.0
 10
147.312411
 20
9.970038
 30
0.0
  0
LWPOLYLINE
  5
10c
100
AcDbEntity
  8
Layer_1
 62
7
100
AcDbPolyline
 90
15
 70
0
 10
173.449835
 20
9.862398
 30
0.0
 10
168.919782
 20
12.523076
 30
0.0
 10
168.412245
 20
16.245929
 30
0.0
 10
169.487198
 20
16.986604
 30
0.0
 10
170.784342
 20
17.057120
 30
0.0
 10
171.434345
 20
16.543865
 30
0.0
 10
172.318770
 20
15.525167
 30
0.0
 10
173.308179
 20
14.449243
 30
0.0
 10
174.210591
 20
13.798410
 30
0.0
 10
174.937299
 20
13.234643
 30
0.0
 10
175.051051
 20
11.508967
 30
0.0
 10
174.988875
 20
10.146991
 30
0.0
 10
174.839384
 20
9.598548
 30
0.0
 10
174.343893
 20
9.688775
 30
0.0
 10
173.449835
 20
9.862398
 30
0.0
  0
LWPOLYLINE
  5
10d
100
AcDbEntity
  8
Layer_1
 62
7
100
AcDbPolyline
 90
31
 70
0
 10
176.179940
 20
11.557227
 30
0.0
 10
176.283448
 20
13.266196
 30
0.0
 10
176.848434
 20
13.786867
 30
0.0
 10
178.574037
 20
15.847936
 30
0.0
 10
178.279476
 20
18.537568
 30
0.0
 10
176.982411
 20
19.590584
 30
0.0
 10
175.276733
 20
20.014022
 30
0.0
 10
172.699183
 20
21.518368
 30
0.0
 10
174.579475
 20
23.566505
 30
0.0
 10
176.973642
 20
24.918011
 30
0.0
 10
177.275137
 20
27.198110
 30
0.0
 10
176.955600
 20
27.969448
 30
0.0
 10
176.585699
 20
28.381213
 30
0.0
 10
176.269167
 20
28.969249
 30
0.0
 10
176.179940
 20
30.658668
 30
0.0
 10
176.179940
 20
31.719541
 30
0.0
 10
176.179940
 20
32.780417
 30
0.0
 10
176.638551
 20
32.689564
 30
0.0
 10
177.097162
 20
32.598711
 30
0.0
 10
181.630741
 20
28.426747
 30
0.0
 10
179.903978
 20
22.826665
 30
0.0
 10
179.436629
 20
22.353695
 30
0.0
 10
179.477755
 20
22.091372
 30
0.0
 10
181.273571
 20
20.823599
 30
0.0
 10
182.633597
 20
19.099452
 30
0.0
 10
182.261050
 20
13.321370
 30
0.0
 10
177.097162
 20
9.749763
 30
0.0
 10
176.638551
 20
9.665774
 30
0.0
 10
176.179940
 20
9.581756
 30
0.0
 10
176.179940
 20
10.569506
 30
0.0
 10
176.179940
 20
11.557227
 30
0.0
  0
LWPOLYLINE
  5
10e
100
AcDbEntity
  8
Layer_1
 62
7
100
AcDbPolyline
 90
15
 70
0
 10
193.818829
 20
9.908513
 30
0.0
 10
192.722630
 20
11.931313
 30
0.0
 10
192.557804
 20
21.773751
 30
0.0
 10
192.553316
 20
27.100695
 30
0.0
 10
192.548829
 20
32.427639
 30
0.0
 10
193.360218
 20
32.425382
 30
0.0
 10
194.171607
 20
32.423124
 30
0.0
 10
196.730888
 20
31.119912
 30
0.0
 10
197.064384
 20
21.170388
 30
0.0
 10
196.875369
 20
11.930918
 30
0.0
 10
195.749985
 20
9.880799
 30
0.0
 10
194.733254
 20
9.594456
 30
0.0
 10
193.818829
 20
9.908457
 30
0.0
 10
193.818829
 20
9.908372
 30
0.0
 10
193.818829
 20
9.908513
 30
0.0
  0
LWPOLYLINE
  5
10f
100
AcDbEntity
  8
Layer_1
 62
7
100
AcDbPolyline
 90
25
 70
0
 10
100.262162
 20
14.487851
 30
0.0
 10
101.347126
 20
15.551490
 30
0.0
 10
103.955658
 20
17.936815
 30
0.0
 10
108.084719
 20
22.144495
 30
0.0
 10
109.054471
 20
25.067998
 30
0.0
 10
108.683820
 20
26.965347
 30
0.0
 10
107.418793
 20
28.053277
 30
0.0
 10
104.845561
 20
28.177088
 30
0.0
 10
102.994181
 20
25.658700
 30
0.0
 10
102.351245
 20
24.407987
 30
0.0
 10
101.642350
 20
23.856599
 30
0.0
 10
99.279191
 20
24.366063
 30
0.0
 10
98.968410
 20
27.174524
 30
0.0
 10
101.670798
 20
30.888284
 30
0.0
 10
106.319879
 20
32.262514
 30
0.0
 10
111.575957
 20
30.393607
 30
0.0
 10
113.515679
 20
25.372084
 30
0.0
 10
112.610223
 20
21.812443
 30
0.0
 10
108.874602
 20
17.449680
 30
0.0
 10
107.324714
 20
15.907553
 30
0.0
 10
105.774823
 20
14.365423
 30
0.0
 10
104.396659
 20
14.365423
 30
0.0
 10
103.018491
 20
14.365423
 30
0.0
 10
101.071835
 20
14.401378
 30
0.0
 10
100.262162
 20
14.487851
 30
0.0
  0
LWPOLYLINE
  5
110
100
AcDbEntity
  8
Layer_1
 62
7
100
AcDbPolyline
 90
33
 70
0
 10
54.670446
 20
19.855924
 30
0.0
 10
54.181208
 20
20.492352
 30
0.0
 10
53.977718
 20
21.049724
 30
0.0
 10
54.237915
 20
23.001143
 30
0.0
 10
54.863495
 20
26.989217
 30
0.0
 10
55.306383
 20
29.708428
 30
0.0
 10
55.749272
 20
32.427639
 30
0.0
 10
58.465751
 20
32.427639
 30
0.0
 10
61.182230
 20
32.427639
 30
0.0
 10
65.826781
 20
32.341977
 30
0.0
 10
67.257933
 20
31.907174
 30
0.0
 10
67.894908
 20
30.529481
 30
0.0
 10
67.420611
 20
29.098089
 30
0.0
 10
66.286363
 20
28.691113
 30
0.0
 10
63.043110
 20
28.521015
 30
0.0
 10
61.094391
 20
28.472704
 30
0.0
 10
59.145675
 20
28.424391
 30
0.0
 10
58.982573
 20
27.539212
 30
0.0
 10
58.819474
 20
26.654030
 30
0.0
 10
58.516571
 20
24.563029
 30
0.0
 10
58.987162
 20
24.476446
 30
0.0
 10
59.563954
 20
24.709706
 30
0.0
 10
60.257162
 20
24.915087
 30
0.0
 10
60.645218
 20
25.007851
 30
0.0
 10
61.033273
 20
25.100614
 30
0.0
 10
61.033273
 20
24.198344
 30
0.0
 10
61.033273
 20
23.296071
 30
0.0
 10
60.922507
 20
21.702591
 30
0.0
 10
60.176187
 20
21.320112
 30
0.0
 10
59.188945
 20
20.907427
 30
0.0
 10
58.018937
 20
20.155946
 30
0.0
 10
56.125511
 20
19.211811
 30
0.0
 10
54.670446
 20
19.855924
 30
0.0
  0
LWPOLYLINE
  5
111
100
AcDbEntity
  8
Layer_1
 62
7
100
AcDbPolyline
 90
15
 70
0
 10
169.455801
 20
26.871940
 30
0.0
 10
168.879926
 20
28.307384
 30
0.0
 10
169.663468
 20
30.090063
 30
0.0
 10
171.547429
 20
31.703982
 30
0.0
 10
174.040176
 20
32.619672
 30
0.0
 10
174.545614
 20
32.701691
 30
0.0
 10
175.051051
 20
32.783714
 30
0.0
 10
175.051051
 20
31.792769
 30
0.0
 10
175.051051
 20
30.801828
 30
0.0
 10
174.950112
 20
29.087830
 30
0.0
 10
174.368807
 20
28.648709
 30
0.0
 10
173.712640
 20
28.245702
 30
0.0
 10
173.093095
 20
27.517227
 30
0.0
 10
171.330072
 20
26.203107
 30
0.0
 10
169.455801
 20
26.871940
 30
0.0
  0
LWPOLYLINE
  5
112
100
AcDbEntity
  8
Layer_1
 62
7
100
AcDbPolyline
 90
15
 70
0
 10
84.073032
 20
29.183755
 30
0.0
 10
83.442000
 20
30.349733
 30
0.0
 10
83.821332
 20
31.544332
 30
0.0
 10
84.529267
 20
32.151970
 30
0.0
 10
85.685559
 20
32.372547
 30
0.0
 10
86.341639
 20
32.415558
 30
0.0
 10
86.997718
 20
32.458565
 30
0.0
 10
86.997718
 20
31.533613
 30
0.0
 10
86.997718
 20
30.608658
 30
0.0
 10
86.997718
 20
29.683703
 30
0.0
 10
86.997718
 20
28.758751
 30
0.0
 10
86.372796
 20
28.758751
 30
0.0
 10
85.747877
 20
28.758751
 30
0.0
 10
84.728095
 20
28.877290
 30
0.0
 10
84.073032
 20
29.183755
 30
0.0
  0
LWPOLYLINE
  5
113
100
AcDbEntity
  8
Layer_1
 62
7
100
AcDbPolyline
 90
15
 70
0
 10
127.822571
 20
29.274862
 30
0.0
 10
127.492698
 20
29.897571
 30
0.0
 10
127.355496
 20
30.669971
 30
0.0
 10
127.969030
 20
31.962932
 30
0.0
 10
129.676071
 20
32.427639
 30
0.0
 10
130.209118
 20
32.427639
 30
0.0
 10
130.742162
 20
32.427639
 30
0.0
 10
130.742162
 20
31.510417
 30
0.0
 10
130.742162
 20
30.593195
 30
0.0
 10
130.742162
 20
29.675973
 30
0.0
 10
130.742162
 20
28.758751
 30
0.0
 10
130.129034
 20
28.758751
 30
0.0
 10
129.515904
 20
28.758751
 30
0.0
 10
128.476643
 20
28.885875
 30
0.0
 10
127.822571
 20
29.274862
 30
0.0
  0
LWPOLYLINE
  5
114
100
AcDbEntity
  8
Layer_1
 62
7
100
AcDbPolyline
 90
13
 70
0
 10
188.597718
 20
29.323195
 30
0.0
 10
188.221219
 20
31.374747
 30
0.0
 10
190.432162
 20
32.427639
 30
0.0
 10
191.067162
 20
32.427639
 30
0.0
 10
191.702162
 20
32.427639
 30
0.0
 10
191.702162
 20
31.510417
 30
0.0
 10
191.702162
 20
30.593195
 30
0.0
 10
191.702162
 20
29.675973
 30
0.0
 10
191.702162
 20
28.758751
 30
0.0
 10
191.067162
 20
28.758751
 30
0.0
 10
190.432162
 20
28.758751
 30
0.0
 10
189.328752
 20
28.892022
 30
0.0
 10
188.597718
 20
29.323195
 30
0.0
  0
LWPOLYLINE
  5
115
100
AcDbEntity
  8
Layer_1
 62
7
100
AcDbPolyline
 90
29
 70
0
 10
40.496005
 20
48.369749
 30
0.0
 10
36.863971
 20
49.986425
 30
0.0
 10
34.763594
 20
52.371844
 30
0.0
 10
34.308085
 20
53.619444
 30
0.0
 10
34.485047
 20
54.769945
 30
0.0
 10
34.960495
 20
55.751288
 30
0.0
 10
35.832350
 20
56.317824
 30
0.0
 10
37.597548
 20
56.489895
 30
0.0
 10
39.358649
 20
54.984045
 30
0.0
 10
41.720841
 20
52.966348
 30
0.0
 10
44.382162
 20
52.354140
 30
0.0
 10
46.682364
 20
52.776404
 30
0.0
 10
48.711248
 20
54.120414
 30
0.0
 10
50.250146
 20
56.922437
 30
0.0
 10
50.591051
 20
67.323503
 30
0.0
 10
50.790032
 20
76.509551
 30
0.0
 10
51.246823
 20
78.657567
 30
0.0
 10
52.531436
 20
79.396871
 30
0.0
 10
54.034416
 20
79.253042
 30
0.0
 10
55.447376
 20
77.191242
 30
0.0
 10
55.671051
 20
67.771265
 30
0.0
 10
55.585947
 20
60.398605
 30
0.0
 10
55.363581
 20
56.550265
 30
0.0
 10
53.497570
 20
52.198534
 30
0.0
 10
49.532661
 20
49.161936
 30
0.0
 10
47.373165
 20
48.293747
 30
0.0
 10
44.734884
 20
48.048930
 30
0.0
 10
42.297358
 20
48.079690
 30
0.0
 10
40.496005
 20
48.369749
 30
0.0
  0
LWPOLYLINE
  5
116
100
AcDbEntity
  8
Layer_1
 62
7
100
AcDbPolyline
 90
37
 70
0
 10
-32.100060
 20
56.901313
 30
0.0
 10
-39.035742
 20
60.499482
 30
0.0
 10
-41.692266
 20
68.289194
 30
0.0
 10
-40.362824
 20
73.947117
 30
0.0
 10
-36.559242
 20
78.042117
 30
0.0
 10
-31.938395
 20
79.534804
 30
0.0
 10
-27.443393
 20
78.865881
 30
0.0
 10
-25.347255
 20
77.493880
 30
0.0
 10
-25.044504
 20
74.916438
 30
0.0
 10
-25.044504
 20
73.684730
 30
0.0
 10
-25.044504
 20
72.453019
 30
0.0
 10
-25.503116
 20
72.839725
 30
0.0
 10
-25.961727
 20
73.226429
 30
0.0
 10
-27.933831
 20
74.409245
 30
0.0
 10
-30.265616
 20
74.760973
 30
0.0
 10
-33.715319
 20
73.912384
 30
0.0
 10
-35.944655
 20
71.233195
 30
0.0
 10
-36.566275
 20
67.336601
 30
0.0
 10
-35.027399
 20
63.788746
 30
0.0
 10
-32.968864
 20
62.192723
 30
0.0
 10
-30.273382
 20
61.708195
 30
0.0
 10
-27.832188
 20
62.104731
 30
0.0
 10
-25.820616
 20
63.415992
 30
0.0
 10
-25.432560
 20
63.779060
 30
0.0
 10
-25.044504
 20
64.142130
 30
0.0
 10
-25.044504
 20
62.842621
 30
0.0
 10
-25.044504
 20
61.543115
 30
0.0
 10
-25.044504
 20
60.243606
 30
0.0
 10
-25.044504
 20
58.944096
 30
0.0
 10
-25.697831
 20
58.529769
 30
0.0
 10
-26.351157
 20
58.115441
 30
0.0
 10
-27.657002
 20
57.478319
 30
0.0
 10
-28.961712
 20
57.110157
 30
0.0
 10
-30.006948
 20
56.965307
 30
0.0
 10
-30.688949
 20
56.865087
 30
0.0
 10
-31.278088
 20
56.847504
 30
0.0
 10
-32.100060
 20
56.901313
 30
0.0
  0
LWPOLYLINE
  5
117
100
AcDbEntity
  8
Layer_1
 62
7
100
AcDbPolyline
 90
19
 70
0
 10
-22.171657
 20
57.040318
 30
0.0
 10
-23.684942
 20
59.038091
 30
0.0
 10
-23.855818
 20
68.687503
 30
0.0
 10
-23.815161
 20
73.395198
 30
0.0
 10
-23.774504
 20
78.102890
 30
0.0
 10
-23.432407
 20
78.466855
 30
0.0
 10
-23.090309
 20
78.830820
 30
0.0
 10
-21.313491
 20
79.596599
 30
0.0
 10
-19.566259
 20
78.690429
 30
0.0
 10
-19.200937
 20
78.256270
 30
0.0
 10
-18.835616
 20
77.822110
 30
0.0
 10
-18.835616
 20
73.098706
 30
0.0
 10
-18.835616
 20
68.375303
 30
0.0
 10
-19.061931
 20
59.039253
 30
0.0
 10
-20.449818
 20
57.057684
 30
0.0
 10
-21.276491
 20
56.933085
 30
0.0
 10
-22.171657
 20
57.040327
 30
0.0
 10
-22.171657
 20
57.040321
 30
0.0
 10
-22.171657
 20
57.040318
 30
0.0
  0
LWPOLYLINE
  5
118
100
AcDbEntity
  8
Layer_1
 62
7
100
AcDbPolyline
 90
37
 70
0
 10
-0.376281
 20
56.989609
 30
0.0
 10
-6.417926
 20
60.628554
 30
0.0
 10
-9.176478
 20
67.251361
 30
0.0
 10
-8.520868
 20
72.285520
 30
0.0
 10
-5.848903
 20
76.345351
 30
0.0
 10
-3.668330
 20
78.118985
 30
0.0
 10
-1.308419
 20
79.118007
 30
0.0
 10
0.889239
 20
79.469495
 30
0.0
 10
1.202162
 20
77.447460
 30
0.0
 10
1.099656
 20
75.591256
 30
0.0
 10
0.426051
 20
75.156298
 30
0.0
 10
-2.343074
 20
73.687857
 30
0.0
 10
-4.005789
 20
71.162639
 30
0.0
 10
-3.824024
 20
70.609763
 30
0.0
 10
-1.497968
 20
70.527639
 30
0.0
 10
-0.147903
 20
70.527639
 30
0.0
 10
1.202162
 20
70.527639
 30
0.0
 10
1.202162
 20
69.539862
 30
0.0
 10
1.202162
 20
68.552084
 30
0.0
 10
1.202162
 20
67.564306
 30
0.0
 10
1.202162
 20
66.576528
 30
0.0
 10
-0.138393
 20
66.576528
 30
0.0
 10
-1.478949
 20
66.576528
 30
0.0
 10
-3.760911
 20
66.490823
 30
0.0
 10
-4.160060
 20
66.000840
 30
0.0
 10
-3.531322
 20
64.231090
 30
0.0
 10
-2.163250
 20
62.509729
 30
0.0
 10
-1.169617
 20
61.882103
 30
0.0
 10
-0.034208
 20
61.427917
 30
0.0
 10
0.583977
 20
61.262577
 30
0.0
 10
1.202162
 20
61.097238
 30
0.0
 10
1.202162
 20
59.997618
 30
0.0
 10
1.202162
 20
58.897995
 30
0.0
 10
1.139985
 20
57.353862
 30
0.0
 10
0.990496
 20
56.729674
 30
0.0
 10
0.501692
 20
56.818788
 30
0.0
 10
-0.376281
 20
56.989609
 30
0.0
  0
LWPOLYLINE
  5
119
100
AcDbEntity
  8
Layer_1
 62
7
100
AcDbPolyline
 90
15
 70
0
 10
2.331051
 20
58.885205
 30
0.0
 10
2.331051
 20
59.991220
 30
0.0
 10
2.331051
 20
61.097238
 30
0.0
 10
2.977031
 20
61.270011
 30
0.0
 10
3.623011
 20
61.442785
 30
0.0
 10
4.962810
 20
62.048558
 30
0.0
 10
6.401946
 20
63.194651
 30
0.0
 10
8.708503
 20
64.619509
 30
0.0
 10
10.522746
 20
63.887701
 30
0.0
 10
10.018039
 20
59.805334
 30
0.0
 10
3.389384
 20
56.850408
 30
0.0
 10
2.860218
 20
56.761791
 30
0.0
 10
2.331051
 20
56.673173
 30
0.0
 10
2.331051
 20
57.779190
 30
0.0
 10
2.331051
 20
58.885205
 30
0.0
  0
LWPOLYLINE
  5
11a
100
AcDbEntity
  8
Layer_1
 62
7
100
AcDbPolyline
 90
31
 70
0
 10
15.953898
 20
56.897187
 30
0.0
 10
14.748630
 20
57.778967
 30
0.0
 10
14.184384
 20
59.274212
 30
0.0
 10
15.836435
 20
62.457831
 30
0.0
 10
19.622759
 20
68.024690
 30
0.0
 10
19.895208
 20
68.395992
 30
0.0
 10
20.167656
 20
68.767292
 30
0.0
 10
18.856326
 20
70.646280
 30
0.0
 10
17.544996
 20
72.525270
 30
0.0
 10
15.428471
 20
75.755673
 30
0.0
 10
14.950536
 20
77.278068
 30
0.0
 10
15.692492
 20
78.890920
 30
0.0
 10
17.392876
 20
79.558751
 30
0.0
 10
19.023605
 20
78.751254
 30
0.0
 10
21.406620
 20
75.256326
 30
0.0
 10
22.625930
 20
73.316178
 30
0.0
 10
23.215496
 20
72.513555
 30
0.0
 10
23.771121
 20
73.276114
 30
0.0
 10
24.908829
 20
75.099055
 30
0.0
 10
27.357384
 20
78.705144
 30
0.0
 10
29.043116
 20
79.558751
 30
0.0
 10
30.713624
 20
78.872457
 30
0.0
 10
31.399940
 20
77.202003
 30
0.0
 10
30.164148
 20
74.628328
 30
0.0
 10
24.838273
 20
66.751283
 30
0.0
 10
19.459047
 20
59.164456
 30
0.0
 10
17.458382
 20
56.985305
 30
0.0
 10
16.872155
 20
56.794215
 30
0.0
 10
16.611716
 20
56.737184
 30
0.0
 10
16.406752
 20
56.800037
 30
0.0
 10
15.953898
 20
56.897187
 30
0.0
  0
LWPOLYLINE
  5
11b
100
AcDbEntity
  8
Layer_1
 62
7
100
AcDbPolyline
 90
13
 70
0
 10
28.652653
 20
57.041247
 30
0.0
 10
26.257947
 20
60.128417
 30
0.0
 10
24.344384
 20
63.469112
 30
0.0
 10
24.727563
 20
64.256543
 30
0.0
 10
25.648824
 20
65.651745
 30
0.0
 10
26.841475
 20
67.155129
 30
0.0
 10
27.448397
 20
66.957585
 30
0.0
 10
30.249870
 20
63.004772
 30
0.0
 10
32.246607
 20
59.498245
 30
0.0
 10
31.730239
 20
57.997111
 30
0.0
 10
30.519734
 20
57.011571
 30
0.0
 10
29.500054
 20
56.740898
 30
0.0
 10
28.652653
 20
57.041247
 30
0.0
  0
LWPOLYLINE
  5
11c
100
AcDbEntity
  8
Layer_1
 62
7
100
AcDbPolyline
 90
39
 70
0
 10
40.761023
 20
57.140711
 30
0.0
 10
37.829902
 20
58.514726
 30
0.0
 10
35.500121
 20
60.523404
 30
0.0
 10
33.782827
 20
63.660247
 30
0.0
 10
33.146467
 20
67.423195
 30
0.0
 10
33.457532
 20
71.504619
 30
0.0
 10
34.977496
 20
74.815583
 30
0.0
 10
38.665782
 20
78.240841
 30
0.0
 10
43.696486
 20
79.394757
 30
0.0
 10
45.871455
 20
79.268434
 30
0.0
 10
47.647598
 20
78.562622
 30
0.0
 10
48.484324
 20
78.135112
 30
0.0
 10
49.321051
 20
77.707604
 30
0.0
 10
49.361626
 20
76.406501
 30
0.0
 10
49.402198
 20
75.105400
 30
0.0
 10
49.385914
 20
73.181220
 30
0.0
 10
49.190537
 20
72.503195
 30
0.0
 10
48.983739
 20
72.582604
 30
0.0
 10
48.897723
 20
72.773522
 30
0.0
 10
47.416960
 20
73.893066
 30
0.0
 10
44.735056
 20
74.673766
 30
0.0
 10
43.125441
 20
74.646983
 30
0.0
 10
41.564766
 20
73.999769
 30
0.0
 10
38.656300
 20
71.002447
 30
0.0
 10
38.197248
 20
66.717634
 30
0.0
 10
39.323510
 20
64.091675
 30
0.0
 10
41.561693
 20
62.250101
 30
0.0
 10
43.125159
 20
61.619287
 30
0.0
 10
44.735056
 20
61.588349
 30
0.0
 10
47.417239
 20
62.363907
 30
0.0
 10
48.897723
 20
63.483974
 30
0.0
 10
48.980626
 20
63.674892
 30
0.0
 10
49.179946
 20
63.754300
 30
0.0
 10
49.383137
 20
63.096322
 30
0.0
 10
49.462168
 20
61.404606
 30
0.0
 10
49.352821
 20
59.337918
 30
0.0
 10
48.796078
 20
58.429157
 30
0.0
 10
45.287280
 20
56.893010
 30
0.0
 10
40.761023
 20
57.140711
 30
0.0
  0
LWPOLYLINE
  5
11d
100
AcDbEntity
  8
Layer_1
 62
7
100
AcDbPolyline
 90
21
 70
0
 10
60.262787
 20
56.920354
 30
0.0
 10
59.650830
 20
57.202737
 30
0.0
 10
59.063342
 20
57.743481
 30
0.0
 10
58.573103
 20
59.746392
 30
0.0
 10
58.493273
 20
68.320749
 30
0.0
 10
58.493273
 20
73.247023
 30
0.0
 10
58.493273
 20
78.173296
 30
0.0
 10
58.839639
 20
78.519659
 30
0.0
 10
59.186002
 20
78.866022
 30
0.0
 10
60.892162
 20
79.572884
 30
0.0
 10
62.598323
 20
78.866022
 30
0.0
 10
62.944688
 20
78.519659
 30
0.0
 10
63.291051
 20
78.173296
 30
0.0
 10
63.291051
 20
73.182035
 30
0.0
 10
63.291051
 20
68.190775
 30
0.0
 10
63.291051
 20
63.199514
 30
0.0
 10
63.291051
 20
58.208253
 30
0.0
 10
62.973551
 20
57.920911
 30
0.0
 10
62.656051
 20
57.633569
 30
0.0
 10
61.548431
 20
56.981839
 30
0.0
 10
60.262787
 20
56.920354
 30
0.0
  0
LWPOLYLINE
  5
11e
100
AcDbEntity
  8
Layer_1
 62
7
100
AcDbPolyline
 90
19
 70
0
 10
68.177018
 20
57.112093
 30
0.0
 10
66.873896
 20
59.355568
 30
0.0
 10
66.731086
 20
68.929604
 30
0.0
 10
66.774957
 20
73.563366
 30
0.0
 10
66.818829
 20
78.197127
 30
0.0
 10
67.214753
 20
78.537532
 30
0.0
 10
67.610677
 20
78.877937
 30
0.0
 10
69.402325
 20
79.570152
 30
0.0
 10
71.027076
 20
78.690429
 30
0.0
 10
71.392398
 20
78.256270
 30
0.0
 10
71.757718
 20
77.822110
 30
0.0
 10
71.757718
 20
73.098706
 30
0.0
 10
71.757718
 20
68.375303
 30
0.0
 10
71.522900
 20
58.995074
 30
0.0
 10
70.030845
 20
57.011571
 30
0.0
 10
69.388733
 20
56.793888
 30
0.0
 10
69.105049
 20
56.709797
 30
0.0
 10
68.820710
 20
56.832527
 30
0.0
 10
68.177018
 20
57.112093
 30
0.0
  0
LWPOLYLINE
  5
11f
100
AcDbEntity
  8
Layer_1
 62
7
100
AcDbPolyline
 90
33
 70
0
 10
87.784652
 20
57.008204
 30
0.0
 10
84.569100
 20
58.003351
 30
0.0
 10
81.792276
 20
60.097863
 30
0.0
 10
78.918401
 20
70.291101
 30
0.0
 10
84.966706
 20
78.664055
 30
0.0
 10
86.782938
 20
79.287978
 30
0.0
 10
89.396607
 20
79.416127
 30
0.0
 10
91.840524
 20
79.306390
 30
0.0
 10
93.206607
 20
78.888205
 30
0.0
 10
94.909854
 20
77.584299
 30
0.0
 10
95.182162
 20
74.960970
 30
0.0
 10
95.182162
 20
73.693597
 30
0.0
 10
95.182162
 20
72.426225
 30
0.0
 10
94.799585
 20
72.808802
 30
0.0
 10
94.417007
 20
73.191380
 30
0.0
 10
92.423138
 20
74.447630
 30
0.0
 10
89.628986
 20
74.707641
 30
0.0
 10
87.767809
 20
74.477057
 30
0.0
 10
86.524541
 20
73.742560
 30
0.0
 10
84.813544
 20
71.904415
 30
0.0
 10
83.932116
 20
69.739150
 30
0.0
 10
84.356770
 20
65.418751
 30
0.0
 10
87.085593
 20
62.380482
 30
0.0
 10
91.021879
 20
61.736832
 30
0.0
 10
94.473906
 20
63.302615
 30
0.0
 10
94.828035
 20
63.656745
 30
0.0
 10
95.182162
 20
64.010872
 30
0.0
 10
95.182162
 20
62.727565
 30
0.0
 10
95.182162
 20
61.444258
 30
0.0
 10
94.913546
 20
58.817909
 30
0.0
 10
93.206607
 20
57.656669
 30
0.0
 10
90.714556
 20
57.025008
 30
0.0
 10
87.784652
 20
57.008204
 30
0.0
  0
LWPOLYLINE
  5
120
100
AcDbEntity
  8
Layer_1
 62
7
100
AcDbPolyline
 90
17
 70
0
 10
98.050437
 20
57.142807
 30
0.0
 10
97.361911
 20
57.561812
 30
0.0
 10
96.897718
 20
58.068341
 30
0.0
 10
96.670173
 20
60.947149
 30
0.0
 10
96.593273
 20
68.351209
 30
0.0
 10
96.593273
 20
73.208212
 30
0.0
 10
96.593273
 20
78.065216
 30
0.0
 10
96.939314
 20
78.438599
 30
0.0
 10
97.285353
 20
78.811985
 30
0.0
 10
99.784905
 20
79.429761
 30
0.0
 10
101.530133
 20
77.261950
 30
0.0
 10
101.629154
 20
73.966280
 30
0.0
 10
101.619389
 20
67.374941
 30
0.0
 10
101.460337
 20
59.474719
 30
0.0
 10
100.874870
 20
57.737469
 30
0.0
 10
99.570359
 20
56.940928
 30
0.0
 10
98.050437
 20
57.142807
 30
0.0
  0
LWPOLYLINE
  5
121
100
AcDbEntity
  8
Layer_1
 62
7
100
AcDbPolyline
 90
15
 70
0
 10
106.289582
 20
56.972520
 30
0.0
 10
104.975025
 20
58.912140
 30
0.0
 10
104.777718
 20
68.294172
 30
0.0
 10
104.777718
 20
73.182419
 30
0.0
 10
104.777718
 20
78.070669
 30
0.0
 10
105.149737
 20
78.442692
 30
0.0
 10
105.521757
 20
78.814711
 30
0.0
 10
107.045430
 20
79.543872
 30
0.0
 10
108.644436
 20
79.134542
 30
0.0
 10
109.726784
 20
76.643435
 30
0.0
 10
109.742108
 20
67.434933
 30
0.0
 10
109.487222
 20
59.404404
 30
0.0
 10
108.924700
 20
57.633273
 30
0.0
 10
107.641557
 20
56.897348
 30
0.0
 10
106.289582
 20
56.972520
 30
0.0
  0
LWPOLYLINE
  5
122
100
AcDbEntity
  8
Layer_1
 62
7
100
AcDbPolyline
 90
33
 70
0
 10
127.504119
 20
57.031561
 30
0.0
 10
121.543643
 20
60.093545
 30
0.0
 10
118.645170
 20
66.450880
 30
0.0
 10
119.717061
 20
73.790015
 30
0.0
 10
124.508139
 20
78.642993
 30
0.0
 10
126.274218
 20
79.285190
 30
0.0
 10
128.766607
 20
79.417639
 30
0.0
 10
131.269444
 20
79.283409
 30
0.0
 10
133.070496
 20
78.620771
 30
0.0
 10
133.881884
 20
78.222335
 30
0.0
 10
134.693273
 20
77.823902
 30
0.0
 10
134.693273
 20
76.539684
 30
0.0
 10
134.693273
 20
75.255466
 30
0.0
 10
134.693273
 20
73.971247
 30
0.0
 10
134.693273
 20
72.687026
 30
0.0
 10
134.375773
 20
72.977340
 30
0.0
 10
134.058273
 20
73.267653
 30
0.0
 10
130.854653
 20
74.751691
 30
0.0
 10
127.331340
 20
74.410952
 30
0.0
 10
123.793148
 20
70.295783
 30
0.0
 10
124.388745
 20
64.722455
 30
0.0
 10
128.762495
 20
61.759681
 30
0.0
 10
133.738851
 20
62.974786
 30
0.0
 10
134.227169
 20
63.403532
 30
0.0
 10
134.715487
 20
63.832281
 30
0.0
 10
134.674655
 20
62.507510
 30
0.0
 10
134.633823
 20
61.182740
 30
0.0
 10
134.592994
 20
59.857966
 30
0.0
 10
134.552162
 20
58.533195
 30
0.0
 10
133.776051
 20
58.157712
 30
0.0
 10
132.999940
 20
57.782230
 30
0.0
 10
130.442578
 20
56.960080
 30
0.0
 10
127.504119
 20
57.031561
 30
0.0
  0
LWPOLYLINE
  5
123
100
AcDbEntity
  8
Layer_1
 62
7
100
AcDbPolyline
 90
17
 70
0
 10
137.873898
 20
56.918088
 30
0.0
 10
137.261941
 20
57.202074
 30
0.0
 10
136.674454
 20
57.743481
 30
0.0
 10
136.181646
 20
60.216518
 30
0.0
 10
136.104384
 20
72.092833
 30
0.0
 10
136.104384
 20
78.905146
 30
0.0
 10
136.104384
 20
85.717463
 30
0.0
 10
136.538547
 20
86.082786
 30
0.0
 10
136.972706
 20
86.448108
 30
0.0
 10
138.241701
 20
87.135864
 30
0.0
 10
139.587876
 20
86.865354
 30
0.0
 10
140.858212
 20
84.453237
 30
0.0
 10
141.043273
 20
71.784307
 30
0.0
 10
140.966912
 20
60.319952
 30
0.0
 10
140.521984
 20
57.875253
 30
0.0
 10
139.296374
 20
57.088505
 30
0.0
 10
137.873898
 20
56.918088
 30
0.0
  0
LWPOLYLINE
  5
124
100
AcDbEntity
  8
Layer_1
 62
7
100
AcDbPolyline
 90
11
 70
0
 10
145.792718
 20
57.109406
 30
0.0
 10
144.344794
 20
59.994931
 30
0.0
 10
146.828829
 20
62.060973
 30
0.0
 10
149.147750
 20
60.506182
 30
0.0
 10
148.676749
 20
57.727738
 30
0.0
 10
148.107888
 20
57.200336
 30
0.0
 10
147.712055
 20
56.980973
 30
0.0
 10
147.409109
 20
56.942545
 30
0.0
 10
147.063579
 20
56.850152
 30
0.0
 10
146.535219
 20
56.872334
 30
0.0
 10
145.792718
 20
57.109406
 30
0.0
  0
LWPOLYLINE
  5
125
100
AcDbEntity
  8
Layer_1
 62
7
100
AcDbPolyline
 90
15
 70
0
 10
162.553622
 20
56.872475
 30
0.0
 10
162.410558
 20
57.659362
 30
0.0
 10
162.351051
 20
59.266770
 30
0.0
 10
162.447520
 20
61.151351
 30
0.0
 10
162.986051
 20
61.628501
 30
0.0
 10
165.513148
 20
62.515001
 30
0.0
 10
167.196855
 20
64.065366
 30
0.0
 10
169.060577
 20
65.716233
 30
0.0
 10
170.743801
 20
65.713326
 30
0.0
 10
171.955150
 20
64.683627
 30
0.0
 10
172.262267
 20
62.718703
 30
0.0
 10
170.777848
 20
60.537989
 30
0.0
 10
168.198958
 20
58.311033
 30
0.0
 10
164.871200
 20
57.021841
 30
0.0
 10
162.553622
 20
56.872475
 30
0.0
  0
LWPOLYLINE
  5
126
100
AcDbEntity
  8
Layer_1
 62
7
100
AcDbPolyline
 90
27
 70
0
 10
183.941051
 20
56.897424
 30
0.0
 10
176.647433
 20
61.487799
 30
0.0
 10
174.729281
 20
70.116419
 30
0.0
 10
177.892050
 20
76.340633
 30
0.0
 10
184.152718
 20
79.406664
 30
0.0
 10
184.681884
 20
79.495499
 30
0.0
 10
185.211051
 20
79.584331
 30
0.0
 10
185.211051
 20
78.383933
 30
0.0
 10
185.211051
 20
77.183532
 30
0.0
 10
185.211051
 20
75.983133
 30
0.0
 10
185.211051
 20
74.782732
 30
0.0
 10
184.611577
 20
74.621309
 30
0.0
 10
184.012101
 20
74.459887
 30
0.0
 10
181.520132
 20
72.844495
 30
0.0
 10
179.882272
 20
70.386531
 30
0.0
 10
179.583433
 20
68.131680
 30
0.0
 10
179.911573
 20
65.903719
 30
0.0
 10
181.561599
 20
63.431269
 30
0.0
 10
183.957285
 20
61.880308
 30
0.0
 10
184.513612
 20
61.749092
 30
0.0
 10
185.069940
 20
61.617873
 30
0.0
 10
185.110713
 20
60.388095
 30
0.0
 10
185.151482
 20
59.158314
 30
0.0
 10
185.143665
 20
57.433671
 30
0.0
 10
185.010369
 20
56.741039
 30
0.0
 10
184.604412
 20
56.804420
 30
0.0
 10
183.941051
 20
56.897424
 30
0.0
  0
LWPOLYLINE
  5
127
100
AcDbEntity
  8
Layer_1
 62
7
100
AcDbPolyline
 90
31
 70
0
 10
186.444196
 20
57.116360
 30
0.0
 10
186.376462
 20
57.968195
 30
0.0
 10
186.397234
 20
59.537692
 30
0.0
 10
186.439141
 20
60.577968
 30
0.0
 10
186.481045
 20
61.618248
 30
0.0
 10
187.037373
 20
61.749371
 30
0.0
 10
187.593701
 20
61.880495
 30
0.0
 10
190.024616
 20
63.458001
 30
0.0
 10
191.677132
 20
65.904639
 30
0.0
 10
191.954858
 20
68.562856
 30
0.0
 10
191.457848
 20
70.950976
 30
0.0
 10
189.754883
 20
73.124355
 30
0.0
 10
187.484817
 20
74.474447
 30
0.0
 10
186.912377
 20
74.628588
 30
0.0
 10
186.339934
 20
74.782732
 30
0.0
 10
186.339934
 20
75.985383
 30
0.0
 10
186.339934
 20
77.188036
 30
0.0
 10
186.339934
 20
78.390689
 30
0.0
 10
186.339934
 20
79.593340
 30
0.0
 10
187.010212
 20
79.498132
 30
0.0
 10
187.680490
 20
79.402927
 30
0.0
 10
192.816201
 20
77.045500
 30
0.0
 10
196.240631
 20
72.468008
 30
0.0
 10
196.962889
 20
68.123933
 30
0.0
 10
196.234084
 20
63.772013
 30
0.0
 10
193.968957
 20
60.358394
 30
0.0
 10
190.735046
 20
57.857126
 30
0.0
 10
187.998413
 20
57.001352
 30
0.0
 10
186.444182
 20
57.116360
 30
0.0
 10
186.444187
 20
57.116360
 30
0.0
 10
186.444196
 20
57.116360
 30
0.0
  0
LWPOLYLINE
  5
128
100
AcDbEntity
  8
Layer_1
 62
7
100
AcDbPolyline
 90
49
 70
0
 10
215.232234
 20
56.920089
 30
0.0
 10
214.611701
 20
57.193678
 30
0.0
 10
213.962234
 20
57.723731
 30
0.0
 10
213.361834
 20
59.241068
 30
0.0
 10
213.151051
 20
65.258141
 30
0.0
 10
212.721049
 20
72.277273
 30
0.0
 10
211.028195
 20
74.360711
 30
0.0
 10
208.748582
 20
74.711288
 30
0.0
 10
206.705414
 20
74.096574
 30
0.0
 10
206.287280
 20
73.768530
 30
0.0
 10
206.002718
 20
73.632087
 30
0.0
 10
205.868922
 20
74.287892
 30
0.0
 10
205.813273
 20
75.864620
 30
0.0
 10
205.813273
 20
76.980885
 30
0.0
 10
205.813273
 20
78.097153
 30
0.0
 10
206.546535
 20
78.462551
 30
0.0
 10
207.279796
 20
78.827953
 30
0.0
 10
210.305949
 20
79.560249
 30
0.0
 10
213.230672
 20
79.178188
 30
0.0
 10
215.090694
 20
77.979666
 30
0.0
 10
216.541474
 20
76.380288
 30
0.0
 10
216.785833
 20
75.978471
 30
0.0
 10
217.030190
 20
75.576657
 30
0.0
 10
217.484853
 20
76.150714
 30
0.0
 10
217.939516
 20
76.724774
 30
0.0
 10
220.315451
 20
78.722357
 30
0.0
 10
223.484748
 20
79.499233
 30
0.0
 10
228.006286
 20
78.613188
 30
0.0
 10
231.006444
 20
75.333974
 30
0.0
 10
231.558157
 20
73.156918
 30
0.0
 10
231.728272
 20
66.609294
 30
0.0
 10
231.744049
 20
61.155364
 30
0.0
 10
231.653241
 20
58.498976
 30
0.0
 10
229.909954
 20
57.009147
 30
0.0
 10
227.651412
 20
57.642987
 30
0.0
 10
227.121184
 20
59.187965
 30
0.0
 10
226.916979
 20
64.785986
 30
0.0
 10
226.455901
 20
71.834523
 30
0.0
 10
224.872048
 20
74.191113
 30
0.0
 10
222.667034
 20
74.751171
 30
0.0
 10
220.488425
 20
74.292506
 30
0.0
 10
219.734850
 20
73.622573
 30
0.0
 10
219.036711
 20
72.669729
 30
0.0
 10
218.452141
 20
70.720699
 30
0.0
 10
218.233998
 20
64.841305
 30
0.0
 10
218.028579
 20
59.189703
 30
0.0
 10
217.579169
 20
57.603755
 30
0.0
 10
216.574480
 20
56.982082
 30
0.0
 10
215.232234
 20
56.920089
 30
0.0
  0
LWPOLYLINE
  5
129
100
AcDbEntity
  8
Layer_1
 62
7
100
AcDbPolyline
 90
17
 70
0
 10
-14.877325
 20
57.538240
 30
0.0
 10
-15.317539
 20
58.120448
 30
0.0
 10
-15.593385
 20
58.737685
 30
0.0
 10
-15.681720
 20
63.074159
 30
0.0
 10
-15.671117
 20
72.598366
 30
0.0
 10
-15.630589
 20
79.207618
 30
0.0
 10
-15.590060
 20
85.816870
 30
0.0
 10
-15.194136
 20
86.157340
 30
0.0
 10
-14.798212
 20
86.497810
 30
0.0
 10
-12.743899
 20
87.137162
 30
0.0
 10
-11.077426
 20
85.773292
 30
0.0
 10
-10.728613
 20
82.770899
 30
0.0
 10
-10.651171
 20
72.135993
 30
0.0
 10
-10.825523
 20
59.956255
 30
0.0
 10
-11.791191
 20
57.257240
 30
0.0
 10
-13.436694
 20
56.994573
 30
0.0
 10
-14.877325
 20
57.538240
 30
0.0
  0
LWPOLYLINE
  5
12a
100
AcDbEntity
  8
Layer_1
 62
7
100
AcDbPolyline
 90
27
 70
0
 10
159.045111
 20
57.390410
 30
0.0
 10
154.866780
 20
59.852144
 30
0.0
 10
152.159868
 20
63.811597
 30
0.0
 10
151.617341
 20
65.793071
 30
0.0
 10
151.485496
 20
68.410976
 30
0.0
 10
151.626141
 20
71.089640
 30
0.0
 10
152.386668
 20
73.135587
 30
0.0
 10
155.656379
 20
77.253483
 30
0.0
 10
160.163829
 20
79.394737
 30
0.0
 10
160.692996
 20
79.489536
 30
0.0
 10
161.222162
 20
79.584331
 30
0.0
 10
161.222162
 20
78.389436
 30
0.0
 10
161.222162
 20
77.194541
 30
0.0
 10
161.222162
 20
75.999643
 30
0.0
 10
161.222162
 20
74.804748
 30
0.0
 10
160.751816
 20
74.649520
 30
0.0
 10
160.281468
 20
74.494293
 30
0.0
 10
157.509134
 20
72.199569
 30
0.0
 10
156.433339
 20
68.269865
 30
0.0
 10
157.454171
 20
64.309398
 30
0.0
 10
160.363013
 20
62.023036
 30
0.0
 10
160.792589
 20
61.873287
 30
0.0
 10
161.222162
 20
61.723537
 30
0.0
 10
161.222162
 20
60.537896
 30
0.0
 10
161.222162
 20
59.352255
 30
0.0
 10
160.956825
 20
57.114989
 30
0.0
 10
159.045111
 20
57.390410
 30
0.0
  0
LWPOLYLINE
  5
12b
100
AcDbEntity
  8
Layer_1
 62
7
100
AcDbPolyline
 90
19
 70
0
 10
200.429690
 20
57.709267
 30
0.0
 10
200.087594
 20
58.073413
 30
0.0
 10
199.745496
 20
58.437561
 30
0.0
 10
199.745496
 20
63.353711
 30
0.0
 10
199.745496
 20
68.269865
 30
0.0
 10
199.745496
 20
73.186015
 30
0.0
 10
199.745496
 20
78.102168
 30
0.0
 10
200.087594
 20
78.466314
 30
0.0
 10
200.429690
 20
78.830462
 30
0.0
 10
202.206397
 20
79.596647
 30
0.0
 10
203.953742
 20
78.690432
 30
0.0
 10
204.319065
 20
78.256272
 30
0.0
 10
204.684384
 20
77.822113
 30
0.0
 10
204.684384
 20
73.098709
 30
0.0
 10
204.684384
 20
68.375306
 30
0.0
 10
204.339464
 20
58.461259
 30
0.0
 10
202.029387
 20
56.980976
 30
0.0
 10
201.170867
 20
57.160387
 30
0.0
 10
200.429690
 20
57.709267
 30
0.0
  0
LWPOLYLINE
  5
12c
100
AcDbEntity
  8
Layer_1
 62
7
100
AcDbPolyline
 90
27
 70
0
 10
2.388712
 20
68.481531
 30
0.0
 10
2.430437
 20
69.434031
 30
0.0
 10
2.472162
 20
70.386531
 30
0.0
 10
3.791362
 20
70.427287
 30
0.0
 10
5.110562
 20
70.468045
 30
0.0
 10
6.429762
 20
70.508801
 30
0.0
 10
7.748961
 20
70.549560
 30
0.0
 10
7.655101
 20
70.923530
 30
0.0
 10
7.561241
 20
71.297499
 30
0.0
 10
6.155201
 20
73.582560
 30
0.0
 10
3.530496
 20
75.056008
 30
0.0
 10
2.930773
 20
75.235386
 30
0.0
 10
2.331051
 20
75.414763
 30
0.0
 10
2.331051
 20
76.450761
 30
0.0
 10
2.331051
 20
77.486760
 30
0.0
 10
2.646264
 20
79.472049
 30
0.0
 10
4.845979
 20
79.116720
 30
0.0
 10
10.071995
 20
75.786041
 30
0.0
 10
12.664804
 20
70.477099
 30
0.0
 10
12.648218
 20
68.473657
 30
0.0
 10
11.869972
 20
67.148788
 30
0.0
 10
10.653486
 20
66.665790
 30
0.0
 10
6.780495
 20
66.576531
 30
0.0
 10
4.542878
 20
66.576531
 30
0.0
 10
2.305261
 20
66.576531
 30
0.0
 10
2.346986
 20
67.529031
 30
0.0
 10
2.388712
 20
68.481531
 30
0.0
  0
LWPOLYLINE
  5
12d
100
AcDbEntity
  8
Layer_1
 62
7
100
AcDbPolyline
 90
23
 70
0
 10
168.912718
 20
70.666177
 30
0.0
 10
168.264930
 20
71.028093
 30
0.0
 10
167.995496
 20
71.338405
 30
0.0
 10
167.632470
 20
71.894636
 30
0.0
 10
166.759664
 20
72.847802
 30
0.0
 10
165.184672
 20
74.055886
 30
0.0
 10
162.703829
 20
74.926507
 30
0.0
 10
162.435430
 20
75.553385
 30
0.0
 10
162.351051
 20
77.331602
 30
0.0
 10
162.351051
 20
78.484661
 30
0.0
 10
162.351051
 20
79.637722
 30
0.0
 10
163.135677
 20
79.556741
 30
0.0
 10
163.920300
 20
79.475760
 30
0.0
 10
167.063965
 20
78.552194
 30
0.0
 10
169.947937
 20
76.857689
 30
0.0
 10
171.654193
 20
74.849345
 30
0.0
 10
172.511051
 20
72.998374
 30
0.0
 10
171.988367
 20
71.534385
 30
0.0
 10
170.784179
 20
70.558241
 30
0.0
 10
170.142067
 20
70.340557
 30
0.0
 10
169.858382
 20
70.256466
 30
0.0
 10
169.568865
 20
70.381372
 30
0.0
 10
168.912718
 20
70.666177
 30
0.0
  0
LWPOLYLINE
  5
12e
100
AcDbEntity
  8
Layer_1
 62
7
100
AcDbPolyline
 90
17
 70
0
 10
111.046187
 20
75.649081
 30
0.0
 10
111.086954
 20
76.968916
 30
0.0
 10
111.127718
 20
78.288753
 30
0.0
 10
111.762718
 20
78.610950
 30
0.0
 10
112.397718
 20
78.933143
 30
0.0
 10
114.214066
 20
79.409969
 30
0.0
 10
115.713829
 20
78.641971
 30
0.0
 10
116.198986
 20
77.931313
 30
0.0
 10
116.348829
 20
76.956729
 30
0.0
 10
115.690167
 20
75.211775
 30
0.0
 10
113.740370
 20
74.363288
 30
0.0
 10
112.603861
 20
74.055143
 30
0.0
 10
111.701049
 20
73.588656
 30
0.0
 10
111.332854
 20
73.299031
 30
0.0
 10
110.964655
 20
73.009409
 30
0.0
 10
111.005422
 20
74.329246
 30
0.0
 10
111.046187
 20
75.649081
 30
0.0
  0
LWPOLYLINE
  5
12f
100
AcDbEntity
  8
Layer_1
 62
7
100
AcDbPolyline
 90
13
 70
0
 10
72.886607
 20
75.716295
 30
0.0
 10
73.204157
 20
78.175371
 30
0.0
 10
75.073829
 20
79.215134
 30
0.0
 10
77.446965
 20
78.877156
 30
0.0
 10
78.531051
 20
76.728838
 30
0.0
 10
77.686922
 20
75.304098
 30
0.0
 10
76.224426
 20
74.472556
 30
0.0
 10
75.399237
 20
74.304190
 30
0.0
 10
74.337455
 20
73.908111
 30
0.0
 10
73.436181
 20
73.513850
 30
0.0
 10
72.996899
 20
73.349865
 30
0.0
 10
72.919006
 20
74.045003
 30
0.0
 10
72.886607
 20
75.716295
 30
0.0
  0
LWPOLYLINE
  5
130
100
AcDbEntity
  8
Layer_1
 62
7
100
AcDbPolyline
 90
9
 70
0
 10
59.186002
 20
82.227038
 30
0.0
 10
58.673286
 20
84.897263
 30
0.0
 10
60.847873
 20
86.444976
 30
0.0
 10
62.610280
 20
85.767126
 30
0.0
 10
63.291051
 20
84.012285
 30
0.0
 10
62.621298
 20
82.226143
 30
0.0
 10
60.892162
 20
81.534309
 30
0.0
 10
59.956048
 20
81.701322
 30
0.0
 10
59.186002
 20
82.227038
 30
0.0
  0
ENDSEC
  0
SECTION
  2
OBJECTS
  0
DICTIONARY
  5
C
330
0
100
AcDbDictionary
  3
ACAD_GROUP
350
D
  3
ACAD_MLINESTYLE
350
17
  0
DICTIONARY
  5
D
330
C
100
AcDbDictionary
  0
DICTIONARY
  5
1A
330
C
100
AcDbDictionary
  0
DICTIONARY
  5
17
330
C
100
AcDbDictionary
  3
STANDARD
350
18
  0
DICTIONARY
  5
19
330
C
100
AcDbDictionary
  0
ENDSEC
  0
EOF
