999
DXF created by Inkscape
  0
SECTION
  2
HEADER
  9
$ACADVER
  1
AC1014
  9
$HANDSEED
  5
FFFF
  9
$MEASUREMENT
 70
     1
  0
ENDSEC
  0
SECTION
  2
TABLES
  0
TABLE
  2
VPORT
  5
8
330
0
100
AcDbSymbolTable
 70
     4
  0
VPORT
  5
2E
330
8
100
AcDbSymbolTableRecord
100
AcDbViewportTableRecord
  2
*ACTIVE
 70
     0
 10
0.0
 20
0.0
 11
1.0
 21
1.0
 12
210.0
 22
148.5
 13
0.0
 23
0.0
 14
10.0
 24
10.0
 15
10.0
 25
10.0
 16
0.0
 26
0.0
 36
1.0
 17
0.0
 27
0.0
 37
0.0
 40
341.0
 41
1.24
 42
50.0
 43
0.0
 44
0.0
 50
0.0
 51
0.0
 71
     0
 72
   100
 73
     1
 74
     3
 75
     0
 76
     0
 77
     0
 78
     0
  0
ENDTAB
  0
TABLE
  2
LTYPE
  5
5
330
0
100
AcDbSymbolTable
 70
     1
  0
LTYPE
  5
14
330
5
100
AcDbSymbolTableRecord
100
AcDbLinetypeTableRecord
  2
BYBLOCK
 70
     0
  3

 72
    65
 73
     0
 40
0.0
  0
LTYPE
  5
15
330
5
100
AcDbSymbolTableRecord
100
AcDbLinetypeTableRecord
  2
BYLAYER
 70
     0
  3

 72
    65
 73
     0
 40
0.0
  0
LTYPE
  5
16
330
5
100
AcDbSymbolTableRecord
100
AcDbLinetypeTableRecord
  2
CONTINUOUS
 70
     0
  3
Solid line
 72
    65
 73
     0
 40
0.0
  0
ENDTAB
  0
TABLE
  2
LAYER
  5
2
100
AcDbSymbolTable
 70
2
  0
LAYER
  5
50
100
AcDbSymbolTableRecord
100
AcDbLayerTableRecord
  2
0
 70
0
  6
CONTINUOUS
  0
LAYER
  5
51
100
AcDbSymbolTableRecord
100
AcDbLayerTableRecord
  2
Layer_1
 70
0
  6
CONTINUOUS
  0
ENDTAB
  0
TABLE
  2
STYLE
  5
3
330
0
100
AcDbSymbolTable
 70
     1
  0
STYLE
  5
11
330
3
100
AcDbSymbolTableRecord
100
AcDbTextStyleTableRecord
  2
STANDARD
 70
     0
 40
0.0
 41
1.0
 50
0.0
 71
     0
 42
2.5
  3
txt
  4

  0
ENDTAB
  0
TABLE
  2
VIEW
  5
6
330
0
100
AcDbSymbolTable
 70
     0
  0
ENDTAB
  0
TABLE
  2
UCS
  5
7
330
0
100
AcDbSymbolTable
 70
     0
  0
ENDTAB
  0
TABLE
  2
APPID
  5
9
330
0
100
AcDbSymbolTable
 70
     2
  0
APPID
  5
12
330
9
100
AcDbSymbolTableRecord
100
AcDbRegAppTableRecord
  2
ACAD
 70
     0
  0
ENDTAB
  0
TABLE
  2
DIMSTYLE
  5
A
330
0
100
AcDbSymbolTable
 70
     1
  0
DIMSTYLE
105
27
330
A
100
AcDbSymbolTableRecord
100
AcDbDimStyleTableRecord
  2
ISO-25
 70
     0
  3

  4

  5

  6

  7

 40
1.0
 41
2.5
 42
0.625
 43
3.75
 44
1.25
 45
0.0
 46
0.0
 47
0.0
 48
0.0
140
2.5
141
2.5
142
0.0
143
0.03937007874016
144
1.0
145
0.0
146
1.0
147
0.625
 71
     0
 72
     0
 73
     0
 74
     0
 75
     0
 76
     0
 77
     1
 78
     8
170
     0
171
     3
172
     1
173
     0
174
     0
175
     0
176
     0
177
     0
178
     0
270
     2
271
     2
272
     2
273
     2
274
     3
340
11
275
     0
280
     0
281
     0
282
     0
283
     0
284
     8
285
     0
286
     0
287
     3
288
     0
  0
ENDTAB
  0
TABLE
  2
BLOCK_RECORD
  5
1
330
0
100
AcDbSymbolTable
 70
     1
  0
BLOCK_RECORD
  5
1F
330
1
100
AcDbSymbolTableRecord
100
AcDbBlockTableRecord
  2
*MODEL_SPACE
  0
BLOCK_RECORD
  5
1B
330
1
100
AcDbSymbolTableRecord
100
AcDbBlockTableRecord
  2
*PAPER_SPACE
  0
ENDTAB
  0
ENDSEC
  0
SECTION
  2
BLOCKS
  0
BLOCK
  5
20
330
1F
100
AcDbEntity
  8
0
100
AcDbBlockBegin
  2
*MODEL_SPACE
 70
     0
 10
0.0
 20
0.0
 30
0.0
  3
*MODEL_SPACE
  1

  0
ENDBLK
  5
21
330
1F
100
AcDbEntity
  8
0
100
AcDbBlockEnd
  0
BLOCK
  5
1C
330
1B
100
AcDbEntity
 67
     1
  8
0
100
AcDbBlockBegin
  2
*PAPER_SPACE
  1

  0
ENDBLK
  5
1D
330
1B
100
AcDbEntity
 67
     1
  8
0
100
AcDbBlockEnd
  0
ENDSEC
  0
SECTION
  2
ENTITIES
  0
LWPOLYLINE
  5
100
100
AcDbEntity
  8
Layer_1
 62
7
100
AcDbPolyline
 90
27
 70
0
 10
7.267802
 20
-266.540375
 30
0.0
 10
6.868921
 20
-266.315952
 30
0.0
 10
6.584571
 20
-265.937012
 30
0.0
 10
6.498462
 20
-265.646973
 30
0.0
 10
6.484831
 20
-264.923101
 30
0.0
 10
6.499929
 20
-264.200979
 30
0.0
 10
6.583239
 20
-263.895614
 30
0.0
 10
6.923669
 20
-263.465423
 30
0.0
 10
7.440263
 20
-263.238291
 30
0.0
 10
7.512419
 20
-263.224744
 30
0.0
 10
7.584577
 20
-263.211197
 30
0.0
 10
7.584577
 20
-263.358856
 30
0.0
 10
7.584577
 20
-263.506515
 30
0.0
 10
7.572103
 20
-263.739574
 30
0.0
 10
7.525457
 20
-263.801832
 30
0.0
 10
7.446963
 20
-263.832764
 30
0.0
 10
7.341234
 20
-263.907101
 30
0.0
 10
7.163098
 20
-264.262249
 30
0.0
 10
7.133826
 20
-265.058088
 30
0.0
 10
7.196773
 20
-265.705816
 30
0.0
 10
7.451470
 20
-265.982027
 30
0.0
 10
7.563196
 20
-266.092997
 30
0.0
 10
7.582952
 20
-266.345388
 30
0.0
 10
7.574936
 20
-266.542661
 30
0.0
 10
7.553403
 20
-266.623377
 30
0.0
 10
7.456649
 20
-266.597977
 30
0.0
 10
7.267802
 20
-266.540375
 30
0.0
  0
LWPOLYLINE
  5
101
100
AcDbEntity
  8
Layer_1
 62
7
100
AcDbPolyline
 90
25
 70
0
 10
7.750696
 20
-266.335059
 30
0.0
 10
7.767968
 20
-266.076966
 30
0.0
 10
7.877106
 20
-265.981096
 30
0.0
 10
8.117718
 20
-265.705703
 30
0.0
 10
8.165743
 20
-264.923101
 30
0.0
 10
8.116778
 20
-264.117187
 30
0.0
 10
7.886549
 20
-263.843375
 30
0.0
 10
7.769960
 20
-263.751850
 30
0.0
 10
7.751588
 20
-263.496157
 30
0.0
 10
7.751023
 20
-263.353691
 30
0.0
 10
7.750459
 20
-263.211226
 30
0.0
 10
7.828324
 20
-263.225619
 30
0.0
 10
7.906186
 20
-263.240012
 30
0.0
 10
8.430959
 20
-263.499487
 30
0.0
 10
8.775106
 20
-263.980987
 30
0.0
 10
8.811727
 20
-264.291883
 30
0.0
 10
8.826600
 20
-264.923016
 30
0.0
 10
8.814775
 20
-265.646041
 30
0.0
 10
8.731009
 20
-265.940427
 30
0.0
 10
8.387330
 20
-266.377702
 30
0.0
 10
7.885401
 20
-266.598711
 30
0.0
 10
7.817918
 20
-266.611128
 30
0.0
 10
7.750436
 20
-266.623546
 30
0.0
 10
7.750436
 20
-266.479246
 30
0.0
 10
7.750696
 20
-266.335059
 30
0.0
  0
LWPOLYLINE
  5
102
100
AcDbEntity
  8
Layer_1
 62
7
100
AcDbPolyline
 90
27
 70
0
 10
9.860428
 20
-266.567440
 30
0.0
 10
9.340177
 20
-266.273421
 30
0.0
 10
9.038555
 20
-265.776202
 30
0.0
 10
9.006543
 20
-265.287478
 30
0.0
 10
9.098417
 20
-264.840043
 30
0.0
 10
9.586964
 20
-264.074995
 30
0.0
 10
10.092474
 20
-263.351010
 30
0.0
 10
10.392793
 20
-263.209278
 30
0.0
 10
10.620422
 20
-263.418715
 30
0.0
 10
10.617882
 20
-263.618670
 30
0.0
 10
10.369492
 20
-264.005766
 30
0.0
 10
10.188867
 20
-264.297245
 30
0.0
 10
10.159203
 20
-264.572383
 30
0.0
 10
10.141225
 20
-264.816957
 30
0.0
 10
10.018828
 20
-264.902922
 30
0.0
 10
9.781048
 20
-265.081399
 30
0.0
 10
9.635528
 20
-265.321062
 30
0.0
 10
9.701862
 20
-265.729720
 30
0.0
 10
10.017028
 20
-266.003843
 30
0.0
 10
10.089929
 20
-266.027832
 30
0.0
 10
10.162827
 20
-266.051820
 30
0.0
 10
10.156731
 20
-266.188416
 30
0.0
 10
10.150635
 20
-266.325012
 30
0.0
 10
10.129835
 20
-266.521100
 30
0.0
 10
10.096925
 20
-266.608927
 30
0.0
 10
10.010303
 20
-266.601025
 30
0.0
 10
9.860428
 20
-266.567440
 30
0.0
  0
LWPOLYLINE
  5
103
100
AcDbEntity
  8
Layer_1
 62
7
100
AcDbPolyline
 90
23
 70
0
 10
10.283875
 20
-266.338445
 30
0.0
 10
10.283875
 20
-266.194794
 30
0.0
 10
10.283875
 20
-266.051171
 30
0.0
 10
10.360399
 20
-266.013128
 30
0.0
 10
10.436924
 20
-265.975084
 30
0.0
 10
10.568044
 20
-265.889797
 30
0.0
 10
10.668366
 20
-265.791583
 30
0.0
 10
10.753995
 20
-265.311495
 30
0.0
 10
10.450874
 20
-264.939244
 30
0.0
 10
10.367376
 20
-264.902414
 30
0.0
 10
10.283875
 20
-264.865584
 30
0.0
 10
10.283875
 20
-264.721312
 30
0.0
 10
10.283875
 20
-264.577068
 30
0.0
 10
10.283875
 20
-264.432824
 30
0.0
 10
10.283875
 20
-264.288552
 30
0.0
 10
10.400966
 20
-264.300688
 30
0.0
 10
10.518057
 20
-264.312824
 30
0.0
 10
11.424194
 20
-265.212971
 30
0.0
 10
10.823735
 20
-266.466179
 30
0.0
 10
10.564164
 20
-266.565578
 30
0.0
 10
10.307014
 20
-266.625804
 30
0.0
 10
10.290673
 20
-266.541420
 30
0.0
 10
10.283875
 20
-266.338445
 30
0.0
  0
LWPOLYLINE
  5
104
100
AcDbEntity
  8
Layer_1
 62
7
100
AcDbPolyline
 90
23
 70
0
 10
13.722490
 20
-266.567610
 30
0.0
 10
12.939442
 20
-265.860417
 30
0.0
 10
13.041000
 20
-264.733052
 30
0.0
 10
13.620244
 20
-263.834288
 30
0.0
 10
14.111895
 20
-263.230530
 30
0.0
 10
14.386943
 20
-263.264481
 30
0.0
 10
14.519686
 20
-263.544389
 30
0.0
 10
14.446494
 20
-263.697043
 30
0.0
 10
14.270520
 20
-263.964505
 30
0.0
 10
14.053878
 20
-264.304808
 30
0.0
 10
14.021355
 20
-264.594368
 30
0.0
 10
14.005607
 20
-264.841228
 30
0.0
 10
13.902601
 20
-264.901031
 30
0.0
 10
13.787299
 20
-264.952424
 30
0.0
 10
13.676841
 20
-265.039320
 30
0.0
 10
13.505879
 20
-265.566652
 30
0.0
 10
13.856241
 20
-265.987474
 30
0.0
 10
13.938794
 20
-266.023880
 30
0.0
 10
14.021346
 20
-266.060315
 30
0.0
 10
14.021346
 20
-266.201652
 30
0.0
 10
14.021346
 20
-266.343017
 30
0.0
 10
13.986972
 20
-266.603734
 30
0.0
 10
13.722490
 20
-266.567610
 30
0.0
  0
LWPOLYLINE
  5
105
100
AcDbEntity
  8
Layer_1
 62
7
100
AcDbPolyline
 90
25
 70
0
 10
14.145936
 20
-266.340618
 30
0.0
 10
14.145936
 20
-266.196177
 30
0.0
 10
14.145936
 20
-266.051736
 30
0.0
 10
14.235522
 20
-266.008358
 30
0.0
 10
14.325108
 20
-265.965009
 30
0.0
 10
14.645653
 20
-265.446341
 30
0.0
 10
14.315380
 20
-264.940345
 30
0.0
 10
14.230659
 20
-264.902950
 30
0.0
 10
14.145936
 20
-264.865584
 30
0.0
 10
14.145936
 20
-264.724219
 30
0.0
 10
14.145936
 20
-264.582882
 30
0.0
 10
14.145936
 20
-264.441517
 30
0.0
 10
14.145936
 20
-264.300180
 30
0.0
 10
14.234184
 20
-264.300378
 30
0.0
 10
14.322430
 20
-264.300603
 30
0.0
 10
14.878261
 20
-264.503380
 30
0.0
 10
15.245259
 20
-265.000853
 30
0.0
 10
15.137451
 20
-266.019224
 30
0.0
 10
14.301666
 20
-266.602662
 30
0.0
 10
14.223801
 20
-266.616208
 30
0.0
 10
14.145936
 20
-266.629473
 30
0.0
 10
14.145936
 20
-266.485032
 30
0.0
 10
14.145936
 20
-266.340618
 30
0.0
 10
14.145936
 20
-266.340590
 30
0.0
 10
14.145936
 20
-266.340618
 30
0.0
  0
LWPOLYLINE
  5
106
100
AcDbEntity
  8
Layer_1
 62
7
100
AcDbPolyline
 90
13
 70
0
 10
16.191884
 20
-266.581918
 30
0.0
 10
15.500211
 20
-266.177720
 30
0.0
 10
15.501057
 20
-265.673586
 30
0.0
 10
15.720491
 20
-265.600462
 30
0.0
 10
15.998398
 20
-265.795845
 30
0.0
 10
16.191407
 20
-265.951039
 30
0.0
 10
16.345012
 20
-266.029440
 30
0.0
 10
16.455459
 20
-266.087465
 30
0.0
 10
16.471349
 20
-266.340223
 30
0.0
 10
16.459241
 20
-266.558071
 30
0.0
 10
16.419437
 20
-266.621176
 30
0.0
 10
16.331141
 20
-266.607629
 30
0.0
 10
16.191884
 20
-266.581918
 30
0.0
  0
LWPOLYLINE
  5
107
100
AcDbEntity
  8
Layer_1
 62
7
100
AcDbPolyline
 90
23
 70
0
 10
16.597663
 20
-266.319057
 30
0.0
 10
16.617023
 20
-266.052978
 30
0.0
 10
16.729156
 20
-265.940512
 30
0.0
 10
16.945019
 20
-265.733728
 30
0.0
 10
17.018634
 20
-265.477668
 30
0.0
 10
16.946142
 20
-265.174758
 30
0.0
 10
16.738833
 20
-264.957588
 30
0.0
 10
16.615310
 20
-264.848876
 30
0.0
 10
16.596063
 20
-264.607520
 30
0.0
 10
16.610258
 20
-264.380359
 30
0.0
 10
16.693686
 20
-264.341695
 30
0.0
 10
16.804097
 20
-264.355806
 30
0.0
 10
16.932469
 20
-264.389729
 30
0.0
 10
17.555031
 20
-264.942518
 30
0.0
 10
17.632357
 20
-265.804509
 30
0.0
 10
17.297196
 20
-266.298031
 30
0.0
 10
16.763093
 20
-266.584035
 30
0.0
 10
16.679578
 20
-266.599275
 30
0.0
 10
16.596063
 20
-266.614515
 30
0.0
 10
16.596909
 20
-266.466772
 30
0.0
 10
16.597756
 20
-266.319000
 30
0.0
 10
16.597756
 20
-266.319000
 30
0.0
 10
16.597663
 20
-266.319057
 30
0.0
  0
LWPOLYLINE
  5
108
100
AcDbEntity
  8
Layer_1
 62
7
100
AcDbPolyline
 90
15
 70
0
 10
20.553876
 20
-266.525530
 30
0.0
 10
20.495617
 20
-266.475436
 30
0.0
 10
20.437361
 20
-266.425342
 30
0.0
 10
20.431463
 20
-265.634498
 30
0.0
 10
20.425564
 20
-264.843655
 30
0.0
 10
20.419666
 20
-264.052812
 30
0.0
 10
20.413767
 20
-263.261997
 30
0.0
 10
20.539063
 20
-263.261997
 30
0.0
 10
20.664358
 20
-263.261997
 30
0.0
 10
21.037089
 20
-263.436100
 30
0.0
 10
21.079741
 20
-264.912715
 30
0.0
 10
21.054539
 20
-266.292528
 30
0.0
 10
20.886549
 20
-266.577403
 30
0.0
 10
20.719143
 20
-266.619990
 30
0.0
 10
20.553876
 20
-266.525530
 30
0.0
  0
LWPOLYLINE
  5
109
100
AcDbEntity
  8
Layer_1
 62
7
100
AcDbPolyline
 90
13
 70
0
 10
22.091036
 20
-266.576359
 30
0.0
 10
21.947761
 20
-266.408098
 30
0.0
 10
21.960291
 20
-266.182405
 30
0.0
 10
21.988372
 20
-266.123759
 30
0.0
 10
22.016482
 20
-266.065085
 30
0.0
 10
22.493784
 20
-266.058876
 30
0.0
 10
22.971084
 20
-266.052667
 30
0.0
 10
23.983647
 20
-266.073834
 30
0.0
 10
24.270864
 20
-266.230552
 30
0.0
 10
24.280883
 20
-266.429801
 30
0.0
 10
24.158805
 20
-266.581552
 30
0.0
 10
23.129806
 20
-266.623320
 30
0.0
 10
22.091036
 20
-266.576359
 30
0.0
  0
LWPOLYLINE
  5
10a
100
AcDbEntity
  8
Layer_1
 62
7
100
AcDbPolyline
 90
15
 70
0
 10
27.102530
 20
-266.597243
 30
0.0
 10
27.037190
 20
-266.561852
 30
0.0
 10
26.967566
 20
-266.510149
 30
0.0
 10
26.906162
 20
-266.209752
 30
0.0
 10
26.894902
 20
-264.854464
 30
0.0
 10
26.894902
 20
-264.058287
 30
0.0
 10
26.894902
 20
-263.262110
 30
0.0
 10
27.016266
 20
-263.262110
 30
0.0
 10
27.137630
 20
-263.262110
 30
0.0
 10
27.477902
 20
-263.435254
 30
0.0
 10
27.517814
 20
-264.911502
 30
0.0
 10
27.506328
 20
-266.185989
 30
0.0
 10
27.445136
 20
-266.494881
 30
0.0
 10
27.282551
 20
-266.595098
 30
0.0
 10
27.102530
 20
-266.597243
 30
0.0
  0
LWPOLYLINE
  5
10b
100
AcDbEntity
  8
Layer_1
 62
7
100
AcDbPolyline
 90
65
 70
0
 10
29.167012
 20
-266.566622
 30
0.0
 10
28.828577
 20
-266.396216
 30
0.0
 10
28.535232
 20
-266.088876
 30
0.0
 10
28.430237
 20
-265.887172
 30
0.0
 10
28.410651
 20
-265.573736
 30
0.0
 10
28.479166
 20
-265.102086
 30
0.0
 10
28.714663
 20
-264.818368
 30
0.0
 10
28.819969
 20
-264.732460
 30
0.0
 10
28.790683
 20
-264.691481
 30
0.0
 10
28.710523
 20
-264.620813
 30
0.0
 10
28.617187
 20
-264.489043
 30
0.0
 10
28.515237
 20
-264.124694
 30
0.0
 10
28.571357
 20
-263.746206
 30
0.0
 10
28.907503
 20
-263.385949
 30
0.0
 10
29.380984
 20
-263.220567
 30
0.0
 10
29.455813
 20
-263.262590
 30
0.0
 10
29.469613
 20
-263.490513
 30
0.0
 10
29.456970
 20
-263.702236
 30
0.0
 10
29.411004
 20
-263.760430
 30
0.0
 10
29.235671
 20
-263.901259
 30
0.0
 10
29.137384
 20
-264.152465
 30
0.0
 10
29.374253
 20
-264.485233
 30
0.0
 10
29.789289
 20
-264.415948
 30
0.0
 10
29.909872
 20
-264.095343
 30
0.0
 10
29.719408
 20
-263.810637
 30
0.0
 10
29.612903
 20
-263.712085
 30
0.0
 10
29.594446
 20
-263.480127
 30
0.0
 10
29.609150
 20
-263.254547
 30
0.0
 10
29.708388
 20
-263.220990
 30
0.0
 10
30.031611
 20
-263.321828
 30
0.0
 10
30.329319
 20
-263.516731
 30
0.0
 10
30.546698
 20
-264.090432
 30
0.0
 10
30.326739
 20
-264.628941
 30
0.0
 10
30.272389
 20
-264.679035
 30
0.0
 10
30.218039
 20
-264.729158
 30
0.0
 10
30.298881
 20
-264.798359
 30
0.0
 10
30.379726
 20
-264.867560
 30
0.0
 10
30.649181
 20
-265.336190
 30
0.0
 10
30.590950
 20
-265.930832
 30
0.0
 10
30.267563
 20
-266.366160
 30
0.0
 10
29.729153
 20
-266.598908
 30
0.0
 10
29.661671
 20
-266.611326
 30
0.0
 10
29.594186
 20
-266.623744
 30
0.0
 10
29.594186
 20
-266.478399
 30
0.0
 10
29.594186
 20
-266.333083
 30
0.0
 10
29.609342
 20
-266.082018
 30
0.0
 10
29.691293
 20
-266.005451
 30
0.0
 10
29.910292
 20
-265.821584
 30
0.0
 10
30.009448
 20
-265.561629
 30
0.0
 10
29.864448
 20
-265.190732
 30
0.0
 10
29.488265
 20
-265.047787
 30
0.0
 10
29.338885
 20
-265.077505
 30
0.0
 10
29.195508
 20
-265.188982
 30
0.0
 10
29.079929
 20
-265.339463
 30
0.0
 10
29.054304
 20
-265.522654
 30
0.0
 10
29.124089
 20
-265.814218
 30
0.0
 10
29.334590
 20
-265.989167
 30
0.0
 10
29.403952
 20
-266.018151
 30
0.0
 10
29.473313
 20
-266.047107
 30
0.0
 10
29.467189
 20
-266.184945
 30
0.0
 10
29.461065
 20
-266.322782
 30
0.0
 10
29.440209
 20
-266.520620
 30
0.0
 10
29.407282
 20
-266.609181
 30
0.0
 10
29.319564
 20
-266.600997
 30
0.0
 10
29.167012
 20
-266.566622
 30
0.0
  0
LWPOLYLINE
  5
10c
100
AcDbEntity
  8
Layer_1
 62
7
100
AcDbPolyline
 90
15
 70
0
 10
33.012998
 20
-266.582426
 30
0.0
 10
32.346423
 20
-266.190928
 30
0.0
 10
32.271741
 20
-265.643134
 30
0.0
 10
32.429916
 20
-265.534140
 30
0.0
 10
32.620785
 20
-265.523698
 30
0.0
 10
32.716428
 20
-265.599221
 30
0.0
 10
32.846569
 20
-265.749109
 30
0.0
 10
32.992153
 20
-265.907436
 30
0.0
 10
33.124939
 20
-266.003194
 30
0.0
 10
33.231870
 20
-266.086139
 30
0.0
 10
33.248606
 20
-266.340082
 30
0.0
 10
33.239462
 20
-266.540488
 30
0.0
 10
33.217477
 20
-266.621176
 30
0.0
 10
33.144567
 20
-266.607911
 30
0.0
 10
33.012998
 20
-266.582426
 30
0.0
  0
LWPOLYLINE
  5
10d
100
AcDbEntity
  8
Layer_1
 62
7
100
AcDbPolyline
 90
31
 70
0
 10
33.414719
 20
-266.333055
 30
0.0
 10
33.429959
 20
-266.081567
 30
0.0
 10
33.513093
 20
-266.004972
 30
0.0
 10
33.767006
 20
-265.701696
 30
0.0
 10
33.723662
 20
-265.305907
 30
0.0
 10
33.532806
 20
-265.150967
 30
0.0
 10
33.281826
 20
-265.088681
 30
0.0
 10
32.902553
 20
-264.867306
 30
0.0
 10
33.179227
 20
-264.565949
 30
0.0
 10
33.531516
 20
-264.367067
 30
0.0
 10
33.575879
 20
-264.031561
 30
0.0
 10
33.528861
 20
-263.918079
 30
0.0
 10
33.474431
 20
-263.857486
 30
0.0
 10
33.427856
 20
-263.770957
 30
0.0
 10
33.414733
 20
-263.522376
 30
0.0
 10
33.414733
 20
-263.366250
 30
0.0
 10
33.414733
 20
-263.210153
 30
0.0
 10
33.482215
 20
-263.223418
 30
0.0
 10
33.549697
 20
-263.236682
 30
0.0
 10
34.216789
 20
-263.850572
 30
0.0
 10
33.962707
 20
-264.674604
 30
0.0
 10
33.893938
 20
-264.744200
 30
0.0
 10
33.899977
 20
-264.782780
 30
0.0
 10
34.164222
 20
-264.969329
 30
0.0
 10
34.364343
 20
-265.223047
 30
0.0
 10
34.309527
 20
-266.073241
 30
0.0
 10
33.549686
 20
-266.598795
 30
0.0
 10
33.482204
 20
-266.611213
 30
0.0
 10
33.414722
 20
-266.623631
 30
0.0
 10
33.414722
 20
-266.478286
 30
0.0
 10
33.414719
 20
-266.333055
 30
0.0
  0
LWPOLYLINE
  5
10e
100
AcDbEntity
  8
Layer_1
 62
7
100
AcDbPolyline
 90
15
 70
0
 10
36.010190
 20
-266.575653
 30
0.0
 10
35.848891
 20
-266.277993
 30
0.0
 10
35.824648
 20
-264.829742
 30
0.0
 10
35.824084
 20
-264.045898
 30
0.0
 10
35.823519
 20
-263.262082
 30
0.0
 10
35.942911
 20
-263.262364
 30
0.0
 10
36.062302
 20
-263.262646
 30
0.0
 10
36.438888
 20
-263.454388
 30
0.0
 10
36.487961
 20
-264.918416
 30
0.0
 10
36.460134
 20
-266.277965
 30
0.0
 10
36.294540
 20
-266.579632
 30
0.0
 10
36.144934
 20
-266.621768
 30
0.0
 10
36.010379
 20
-266.575540
 30
0.0
 10
36.010379
 20
-266.575568
 30
0.0
 10
36.010190
 20
-266.575653
 30
0.0
  0
LWPOLYLINE
  5
10f
100
AcDbEntity
  8
Layer_1
 62
7
100
AcDbPolyline
 90
25
 70
0
 10
22.243809
 20
-265.901819
 30
0.0
 10
22.403456
 20
-265.745299
 30
0.0
 10
22.787287
 20
-265.394327
 30
0.0
 10
23.394858
 20
-264.775188
 30
0.0
 10
23.537552
 20
-264.344997
 30
0.0
 10
23.483013
 20
-264.065823
 30
0.0
 10
23.296870
 20
-263.905746
 30
0.0
 10
22.918233
 20
-263.887402
 30
0.0
 10
22.645812
 20
-264.257960
 30
0.0
 10
22.551205
 20
-264.441997
 30
0.0
 10
22.446896
 20
-264.523136
 30
0.0
 10
22.099170
 20
-264.448149
 30
0.0
 10
22.053439
 20
-264.034919
 30
0.0
 10
22.451081
 20
-263.488452
 30
0.0
 10
23.135171
 20
-263.286240
 30
0.0
 10
23.908576
 20
-263.561238
 30
0.0
 10
24.193996
 20
-264.300124
 30
0.0
 10
24.060761
 20
-264.823900
 30
0.0
 10
23.511086
 20
-265.465871
 30
0.0
 10
23.283027
 20
-265.692777
 30
0.0
 10
23.054969
 20
-265.919712
 30
0.0
 10
22.852178
 20
-265.919712
 30
0.0
 10
22.649388
 20
-265.919712
 30
0.0
 10
22.362949
 20
-265.914350
 30
0.0
 10
22.243809
 20
-265.901819
 30
0.0
  0
LWPOLYLINE
  5
110
100
AcDbEntity
  8
Layer_1
 62
7
100
AcDbPolyline
 90
33
 70
0
 10
15.535223
 20
-265.111936
 30
0.0
 10
15.463234
 20
-265.018294
 30
0.0
 10
15.433290
 20
-264.936281
 30
0.0
 10
15.471579
 20
-264.649120
 30
0.0
 10
15.563629
 20
-264.062295
 30
0.0
 10
15.628797
 20
-263.662188
 30
0.0
 10
15.693967
 20
-263.262082
 30
0.0
 10
16.093682
 20
-263.262082
 30
0.0
 10
16.493399
 20
-263.262082
 30
0.0
 10
17.176819
 20
-263.274782
 30
0.0
 10
17.387405
 20
-263.338762
 30
0.0
 10
17.481134
 20
-263.541482
 30
0.0
 10
17.411343
 20
-263.752076
 30
0.0
 10
17.244446
 20
-263.811964
 30
0.0
 10
16.767216
 20
-263.837082
 30
0.0
 10
16.480473
 20
-263.844137
 30
0.0
 10
16.193729
 20
-263.851193
 30
0.0
 10
16.169740
 20
-263.981438
 30
0.0
 10
16.145752
 20
-264.111712
 30
0.0
 10
16.101180
 20
-264.419391
 30
0.0
 10
16.170426
 20
-264.432091
 30
0.0
 10
16.255296
 20
-264.397772
 30
0.0
 10
16.357300
 20
-264.367546
 30
0.0
 10
16.414399
 20
-264.354000
 30
0.0
 10
16.471501
 20
-264.340453
 30
0.0
 10
16.471501
 20
-264.473210
 30
0.0
 10
16.471501
 20
-264.605968
 30
0.0
 10
16.455188
 20
-264.840438
 30
0.0
 10
16.345373
 20
-264.896713
 30
0.0
 10
16.200105
 20
-264.957447
 30
0.0
 10
16.027944
 20
-265.068022
 30
0.0
 10
15.749337
 20
-265.206960
 30
0.0
 10
15.535223
 20
-265.111936
 30
0.0
  0
LWPOLYLINE
  5
111
100
AcDbEntity
  8
Layer_1
 62
7
100
AcDbPolyline
 90
15
 70
0
 10
32.425296
 20
-264.079567
 30
0.0
 10
32.340558
 20
-263.868352
 30
0.0
 10
32.455855
 20
-263.606026
 30
0.0
 10
32.733067
 20
-263.368564
 30
0.0
 10
33.099863
 20
-263.233803
 30
0.0
 10
33.174237
 20
-263.221668
 30
0.0
 10
33.248608
 20
-263.209532
 30
0.0
 10
33.248608
 20
-263.355356
 30
0.0
 10
33.248608
 20
-263.501152
 30
0.0
 10
33.233764
 20
-263.753374
 30
0.0
 10
33.148228
 20
-263.817975
 30
0.0
 10
33.051677
 20
-263.877270
 30
0.0
 10
32.960513
 20
-263.984486
 30
0.0
 10
32.701095
 20
-264.177837
 30
0.0
 10
32.425296
 20
-264.079567
 30
0.0
  0
LWPOLYLINE
  5
112
100
AcDbEntity
  8
Layer_1
 62
7
100
AcDbPolyline
 90
15
 70
0
 10
19.861662
 20
-263.739376
 30
0.0
 10
19.768808
 20
-263.567813
 30
0.0
 10
19.824625
 20
-263.392045
 30
0.0
 10
19.928794
 20
-263.302637
 30
0.0
 10
20.098937
 20
-263.270182
 30
0.0
 10
20.195474
 20
-263.263973
 30
0.0
 10
20.292014
 20
-263.257764
 30
0.0
 10
20.292014
 20
-263.393852
 30
0.0
 10
20.292014
 20
-263.529967
 30
0.0
 10
20.292014
 20
-263.666055
 30
0.0
 10
20.292014
 20
-263.802171
 30
0.0
 10
20.200060
 20
-263.802171
 30
0.0
 10
20.108106
 20
-263.802171
 30
0.0
 10
19.958052
 20
-263.784673
 30
0.0
 10
19.861662
 20
-263.739376
 30
0.0
  0
LWPOLYLINE
  5
113
100
AcDbEntity
  8
Layer_1
 62
7
100
AcDbPolyline
 90
15
 70
0
 10
26.299181
 20
-263.726112
 30
0.0
 10
26.250642
 20
-263.634502
 30
0.0
 10
26.230463
 20
-263.520852
 30
0.0
 10
26.320743
 20
-263.330577
 30
0.0
 10
26.571924
 20
-263.262223
 30
0.0
 10
26.650359
 20
-263.262223
 30
0.0
 10
26.728794
 20
-263.262223
 30
0.0
 10
26.728794
 20
-263.397182
 30
0.0
 10
26.728794
 20
-263.532140
 30
0.0
 10
26.728794
 20
-263.667099
 30
0.0
 10
26.728794
 20
-263.802058
 30
0.0
 10
26.638576
 20
-263.802058
 30
0.0
 10
26.548358
 20
-263.802058
 30
0.0
 10
26.395436
 20
-263.783431
 30
0.0
 10
26.299181
 20
-263.726112
 30
0.0
  0
LWPOLYLINE
  5
114
100
AcDbEntity
  8
Layer_1
 62
7
100
AcDbPolyline
 90
13
 70
0
 10
35.241930
 20
-263.719056
 30
0.0
 10
35.186530
 20
-263.417191
 30
0.0
 10
35.511859
 20
-263.262280
 30
0.0
 10
35.605297
 20
-263.262280
 30
0.0
 10
35.698735
 20
-263.262280
 30
0.0
 10
35.698735
 20
-263.397238
 30
0.0
 10
35.698735
 20
-263.532197
 30
0.0
 10
35.698735
 20
-263.667156
 30
0.0
 10
35.698735
 20
-263.802114
 30
0.0
 10
35.605297
 20
-263.802114
 30
0.0
 10
35.511859
 20
-263.802114
 30
0.0
 10
35.349499
 20
-263.782359
 30
0.0
 10
35.241930
 20
-263.719056
 30
0.0
  0
LWPOLYLINE
  5
115
100
AcDbEntity
  8
Layer_1
 62
7
100
AcDbPolyline
 90
29
 70
0
 10
13.449527
 20
-260.916477
 30
0.0
 10
12.915092
 20
-260.678592
 30
0.0
 10
12.606033
 20
-260.327592
 30
0.0
 10
12.539005
 20
-260.144006
 30
0.0
 10
12.565054
 20
-259.974701
 30
0.0
 10
12.635014
 20
-259.830316
 30
0.0
 10
12.763301
 20
-259.746948
 30
0.0
 10
13.023042
 20
-259.721548
 30
0.0
 10
13.282178
 20
-259.943120
 30
0.0
 10
13.629763
 20
-260.240018
 30
0.0
 10
14.021363
 20
-260.330104
 30
0.0
 10
14.359827
 20
-260.267958
 30
0.0
 10
14.658367
 20
-260.070205
 30
0.0
 10
14.884808
 20
-259.657907
 30
0.0
 10
14.934970
 20
-258.127444
 30
0.0
 10
14.964248
 20
-256.775769
 30
0.0
 10
15.031462
 20
-256.459680
 30
0.0
 10
15.220486
 20
-256.350911
 30
0.0
 10
15.441644
 20
-256.372078
 30
0.0
 10
15.649551
 20
-256.675467
 30
0.0
 10
15.682464
 20
-258.061545
 30
0.0
 10
15.669933
 20
-259.146407
 30
0.0
 10
15.637215
 20
-259.712658
 30
0.0
 10
15.362641
 20
-260.352992
 30
0.0
 10
14.779223
 20
-260.799834
 30
0.0
 10
14.461466
 20
-260.927568
 30
0.0
 10
14.073256
 20
-260.963608
 30
0.0
 10
13.714588
 20
-260.959092
 30
0.0
 10
13.449527
 20
-260.916477
 30
0.0
  0
LWPOLYLINE
  5
116
100
AcDbEntity
  8
Layer_1
 62
7
100
AcDbPolyline
 90
37
 70
0
 10
2.767391
 20
-259.661096
 30
0.0
 10
1.746842
 20
-259.131647
 30
0.0
 10
1.355947
 20
-257.985430
 30
0.0
 10
1.551566
 20
-257.152902
 30
0.0
 10
2.111244
 20
-256.550330
 30
0.0
 10
2.791179
 20
-256.330676
 30
0.0
 10
3.452595
 20
-256.429115
 30
0.0
 10
3.761030
 20
-256.630989
 30
0.0
 10
3.805579
 20
-257.010267
 30
0.0
 10
3.805579
 20
-257.191510
 30
0.0
 10
3.805579
 20
-257.372725
 30
0.0
 10
3.738097
 20
-257.315829
 30
0.0
 10
3.670615
 20
-257.258933
 30
0.0
 10
3.380428
 20
-257.084887
 30
0.0
 10
3.037320
 20
-257.033127
 30
0.0
 10
2.529715
 20
-257.158010
 30
0.0
 10
2.201679
 20
-257.552218
 30
0.0
 10
2.110211
 20
-258.125581
 30
0.0
 10
2.336649
 20
-258.647636
 30
0.0
 10
2.639550
 20
-258.882501
 30
0.0
 10
3.036177
 20
-258.953790
 30
0.0
 10
3.395386
 20
-258.895427
 30
0.0
 10
3.691378
 20
-258.702500
 30
0.0
 10
3.748480
 20
-258.649075
 30
0.0
 10
3.805579
 20
-258.595650
 30
0.0
 10
3.805579
 20
-258.786856
 30
0.0
 10
3.805579
 20
-258.978062
 30
0.0
 10
3.805579
 20
-259.169295
 30
0.0
 10
3.805579
 20
-259.360501
 30
0.0
 10
3.709446
 20
-259.421461
 30
0.0
 10
3.613313
 20
-259.482449
 30
0.0
 10
3.421164
 20
-259.576175
 30
0.0
 10
3.229183
 20
-259.630362
 30
0.0
 10
3.075380
 20
-259.651528
 30
0.0
 10
2.975027
 20
-259.666204
 30
0.0
 10
2.888340
 20
-259.669026
 30
0.0
 10
2.767391
 20
-259.661096
 30
0.0
  0
LWPOLYLINE
  5
117
100
AcDbEntity
  8
Layer_1
 62
7
100
AcDbPolyline
 90
19
 70
0
 10
4.228303
 20
-259.640776
 30
0.0
 10
4.005632
 20
-259.346813
 30
0.0
 10
3.980486
 20
-257.926953
 30
0.0
 10
3.986470
 20
-257.234239
 30
0.0
 10
3.992453
 20
-256.541524
 30
0.0
 10
4.042790
 20
-256.487958
 30
0.0
 10
4.093130
 20
-256.434421
 30
0.0
 10
4.354578
 20
-256.321730
 30
0.0
 10
4.611674
 20
-256.455080
 30
0.0
 10
4.665429
 20
-256.518946
 30
0.0
 10
4.719186
 20
-256.582842
 30
0.0
 10
4.719186
 20
-257.277870
 30
0.0
 10
4.719186
 20
-257.972899
 30
0.0
 10
4.685884
 20
-259.346644
 30
0.0
 10
4.481662
 20
-259.638208
 30
0.0
 10
4.360022
 20
-259.656552
 30
0.0
 10
4.228303
 20
-259.640748
 30
0.0
 10
4.228303
 20
-259.640748
 30
0.0
 10
4.228303
 20
-259.640776
 30
0.0
  0
LWPOLYLINE
  5
118
100
AcDbEntity
  8
Layer_1
 62
7
100
AcDbPolyline
 90
37
 70
0
 10
7.435380
 20
-259.648114
 30
0.0
 10
6.546383
 20
-259.112653
 30
0.0
 10
6.140477
 20
-258.138140
 30
0.0
 10
6.236946
 20
-257.397391
 30
0.0
 10
6.630113
 20
-256.800012
 30
0.0
 10
6.950974
 20
-256.539041
 30
0.0
 10
7.298220
 20
-256.392031
 30
0.0
 10
7.621596
 20
-256.340300
 30
0.0
 10
7.667641
 20
-256.637847
 30
0.0
 10
7.652570
 20
-256.910981
 30
0.0
 10
7.553454
 20
-256.974989
 30
0.0
 10
7.145993
 20
-257.191059
 30
0.0
 10
6.901331
 20
-257.562632
 30
0.0
 10
6.928086
 20
-257.643969
 30
0.0
 10
7.270354
 20
-257.656104
 30
0.0
 10
7.469007
 20
-257.656104
 30
0.0
 10
7.667663
 20
-257.656104
 30
0.0
 10
7.667663
 20
-257.801449
 30
0.0
 10
7.667663
 20
-257.946793
 30
0.0
 10
7.667663
 20
-258.092138
 30
0.0
 10
7.667663
 20
-258.237482
 30
0.0
 10
7.470407
 20
-258.237482
 30
0.0
 10
7.273151
 20
-258.237482
 30
0.0
 10
6.937374
 20
-258.250182
 30
0.0
 10
6.878641
 20
-258.322290
 30
0.0
 10
6.971156
 20
-258.582696
 30
0.0
 10
7.172459
 20
-258.835991
 30
0.0
 10
7.318667
 20
-258.928334
 30
0.0
 10
7.485737
 20
-258.995164
 30
0.0
 10
7.576700
 20
-259.019435
 30
0.0
 10
7.667663
 20
-259.043706
 30
0.0
 10
7.667663
 20
-259.205533
 30
0.0
 10
7.667663
 20
-259.367331
 30
0.0
 10
7.658519
 20
-259.594548
 30
0.0
 10
7.636534
 20
-259.686383
 30
0.0
 10
7.564610
 20
-259.673401
 30
0.0
 10
7.435380
 20
-259.648114
 30
0.0
  0
LWPOLYLINE
  5
119
100
AcDbEntity
  8
Layer_1
 62
7
100
AcDbPolyline
 90
15
 70
0
 10
7.833751
 20
-259.369193
 30
0.0
 10
7.833751
 20
-259.206436
 30
0.0
 10
7.833751
 20
-259.043706
 30
0.0
 10
7.928804
 20
-259.018306
 30
0.0
 10
8.023856
 20
-258.992906
 30
0.0
 10
8.221000
 20
-258.903752
 30
0.0
 10
8.432762
 20
-258.735125
 30
0.0
 10
8.772160
 20
-258.525462
 30
0.0
 10
9.039117
 20
-258.633130
 30
0.0
 10
8.964853
 20
-259.233840
 30
0.0
 10
7.989479
 20
-259.668631
 30
0.0
 10
7.911616
 20
-259.681613
 30
0.0
 10
7.833751
 20
-259.694596
 30
0.0
 10
7.833751
 20
-259.531866
 30
0.0
 10
7.833751
 20
-259.369193
 30
0.0
  0
LWPOLYLINE
  5
11a
100
AcDbEntity
  8
Layer_1
 62
7
100
AcDbPolyline
 90
31
 70
0
 10
9.838282
 20
-259.661717
 30
0.0
 10
9.660934
 20
-259.531951
 30
0.0
 10
9.577907
 20
-259.311930
 30
0.0
 10
9.820999
 20
-258.843498
 30
0.0
 10
10.378137
 20
-258.024348
 30
0.0
 10
10.418227
 20
-257.969710
 30
0.0
 10
10.458316
 20
-257.915072
 30
0.0
 10
10.265361
 20
-257.638607
 30
0.0
 10
10.072406
 20
-257.362114
 30
0.0
 10
9.760968
 20
-256.886767
 30
0.0
 10
9.690644
 20
-256.662767
 30
0.0
 10
9.799818
 20
-256.425446
 30
0.0
 10
10.050020
 20
-256.327176
 30
0.0
 10
10.289973
 20
-256.445992
 30
0.0
 10
10.640623
 20
-256.960257
 30
0.0
 10
10.820038
 20
-257.245753
 30
0.0
 10
10.906790
 20
-257.363835
 30
0.0
 10
10.988547
 20
-257.251624
 30
0.0
 10
11.155955
 20
-256.983400
 30
0.0
 10
11.516246
 20
-256.452794
 30
0.0
 10
11.764294
 20
-256.327176
 30
0.0
 10
12.010101
 20
-256.428156
 30
0.0
 10
12.111089
 20
-256.673971
 30
0.0
 10
11.929247
 20
-257.052657
 30
0.0
 10
11.145572
 20
-258.211744
 30
0.0
 10
10.354046
 20
-259.328102
 30
0.0
 10
10.059660
 20
-259.648734
 30
0.0
 10
9.973399
 20
-259.676957
 30
0.0
 10
9.935076
 20
-259.685423
 30
0.0
 10
9.904918
 20
-259.676110
 30
0.0
 10
9.838282
 20
-259.661717
 30
0.0
  0
LWPOLYLINE
  5
11b
100
AcDbEntity
  8
Layer_1
 62
7
100
AcDbPolyline
 90
13
 70
0
 10
11.706839
 20
-259.640550
 30
0.0
 10
11.354471
 20
-259.186285
 30
0.0
 10
11.072900
 20
-258.694710
 30
0.0
 10
11.129283
 20
-258.578858
 30
0.0
 10
11.264840
 20
-258.373542
 30
0.0
 10
11.440334
 20
-258.152336
 30
0.0
 10
11.529637
 20
-258.181405
 30
0.0
 10
11.941862
 20
-258.763036
 30
0.0
 10
12.235670
 20
-259.278995
 30
0.0
 10
12.159690
 20
-259.499890
 30
0.0
 10
11.981571
 20
-259.644896
 30
0.0
 10
11.831531
 20
-259.684746
 30
0.0
 10
11.706839
 20
-259.640550
 30
0.0
  0
LWPOLYLINE
  5
11c
100
AcDbEntity
  8
Layer_1
 62
7
100
AcDbPolyline
 90
39
 70
0
 10
13.488522
 20
-259.625874
 30
0.0
 10
13.057224
 20
-259.423690
 30
0.0
 10
12.714409
 20
-259.128119
 30
0.0
 10
12.461719
 20
-258.666545
 30
0.0
 10
12.368080
 20
-258.112853
 30
0.0
 10
12.413851
 20
-257.512284
 30
0.0
 10
12.637506
 20
-257.025112
 30
0.0
 10
13.180220
 20
-256.521091
 30
0.0
 10
13.920460
 20
-256.351306
 30
0.0
 10
14.240498
 20
-256.369933
 30
0.0
 10
14.501847
 20
-256.473791
 30
0.0
 10
14.624966
 20
-256.536698
 30
0.0
 10
14.748086
 20
-256.599606
 30
0.0
 10
14.754069
 20
-256.791037
 30
0.0
 10
14.760052
 20
-256.982496
 30
0.0
 10
14.757794
 20
-257.265622
 30
0.0
 10
14.729047
 20
-257.365387
 30
0.0
 10
14.698618
 20
-257.353816
 30
0.0
 10
14.685974
 20
-257.325876
 30
0.0
 10
14.468087
 20
-257.161143
 30
0.0
 10
14.073459
 20
-257.046279
 30
0.0
 10
13.836612
 20
-257.050230
 30
0.0
 10
13.606968
 20
-257.145452
 30
0.0
 10
13.179001
 20
-257.586508
 30
0.0
 10
13.111453
 20
-258.216993
 30
0.0
 10
13.277177
 20
-258.603383
 30
0.0
 10
13.606516
 20
-258.874373
 30
0.0
 10
13.836570
 20
-258.967196
 30
0.0
 10
14.073459
 20
-258.971712
 30
0.0
 10
14.468130
 20
-258.857581
 30
0.0
 10
14.685974
 20
-258.692763
 30
0.0
 10
14.698166
 20
-258.664541
 30
0.0
 10
14.727497
 20
-258.652970
 30
0.0
 10
14.757396
 20
-258.749800
 30
0.0
 10
14.769024
 20
-258.998720
 30
0.0
 10
14.752937
 20
-259.302815
 30
0.0
 10
14.671013
 20
-259.436532
 30
0.0
 10
14.154713
 20
-259.662592
 30
0.0
 10
13.488522
 20
-259.625874
 30
0.0
  0
LWPOLYLINE
  5
11d
100
AcDbEntity
  8
Layer_1
 62
7
100
AcDbPolyline
 90
21
 70
0
 10
16.358107
 20
-259.658302
 30
0.0
 10
16.268061
 20
-259.616730
 30
0.0
 10
16.181614
 20
-259.537172
 30
0.0
 10
16.109478
 20
-259.242447
 30
0.0
 10
16.097737
 20
-257.980773
 30
0.0
 10
16.097737
 20
-257.255913
 30
0.0
 10
16.097737
 20
-256.531026
 30
0.0
 10
16.148704
 20
-256.480056
 30
0.0
 10
16.199670
 20
-256.429087
 30
0.0
 10
16.450721
 20
-256.325088
 30
0.0
 10
16.701775
 20
-256.429087
 30
0.0
 10
16.752741
 20
-256.480056
 30
0.0
 10
16.803705
 20
-256.531026
 30
0.0
 10
16.803705
 20
-257.265481
 30
0.0
 10
16.803705
 20
-257.999908
 30
0.0
 10
16.803705
 20
-258.734334
 30
0.0
 10
16.803705
 20
-259.468790
 30
0.0
 10
16.756988
 20
-259.511066
 30
0.0
 10
16.710269
 20
-259.553343
 30
0.0
 10
16.547289
 20
-259.649242
 30
0.0
 10
16.358107
 20
-259.658302
 30
0.0
  0
LWPOLYLINE
  5
11e
100
AcDbEntity
  8
Layer_1
 62
7
100
AcDbPolyline
 90
33
 70
0
 10
20.407807
 20
-259.645320
 30
0.0
 10
19.934655
 20
-259.498874
 30
0.0
 10
19.526060
 20
-259.190688
 30
0.0
 10
19.103184
 20
-257.690790
 30
0.0
 10
19.993160
 20
-256.458748
 30
0.0
 10
20.260410
 20
-256.366942
 30
0.0
 10
20.644998
 20
-256.348033
 30
0.0
 10
21.004608
 20
-256.364119
 30
0.0
 10
21.205621
 20
-256.425672
 30
0.0
 10
21.456245
 20
-256.617527
 30
0.0
 10
21.496312
 20
-257.003550
 30
0.0
 10
21.496312
 20
-257.190014
 30
0.0
 10
21.496312
 20
-257.376507
 30
0.0
 10
21.440018
 20
-257.320232
 30
0.0
 10
21.383725
 20
-257.263928
 30
0.0
 10
21.090336
 20
-257.079073
 30
0.0
 10
20.679192
 20
-257.040804
 30
0.0
 10
20.405329
 20
-257.074755
 30
0.0
 10
20.222389
 20
-257.182818
 30
0.0
 10
19.970625
 20
-257.453300
 30
0.0
 10
19.840927
 20
-257.771900
 30
0.0
 10
19.903413
 20
-258.407634
 30
0.0
 10
20.304945
 20
-258.854702
 30
0.0
 10
20.884150
 20
-258.949416
 30
0.0
 10
21.392096
 20
-258.719010
 30
0.0
 10
21.444206
 20
-258.666883
 30
0.0
 10
21.496312
 20
-258.614785
 30
0.0
 10
21.496312
 20
-258.803620
 30
0.0
 10
21.496312
 20
-258.992455
 30
0.0
 10
21.456787
 20
-259.378902
 30
0.0
 10
21.205621
 20
-259.549787
 30
0.0
 10
20.838927
 20
-259.642723
 30
0.0
 10
20.407807
 20
-259.645320
 30
0.0
  0
LWPOLYLINE
  5
11f
100
AcDbEntity
  8
Layer_1
 62
7
100
AcDbPolyline
 90
17
 70
0
 10
21.918364
 20
-259.625564
 30
0.0
 10
21.817052
 20
-259.563898
 30
0.0
 10
21.748749
 20
-259.489364
 30
0.0
 10
21.715266
 20
-259.065776
 30
0.0
 10
21.703949
 20
-257.976286
 30
0.0
 10
21.703949
 20
-257.261614
 30
0.0
 10
21.703949
 20
-256.546943
 30
0.0
 10
21.754865
 20
-256.491994
 30
0.0
 10
21.805783
 20
-256.437046
 30
0.0
 10
22.173581
 20
-256.346142
 30
0.0
 10
22.430380
 20
-256.665138
 30
0.0
 10
22.444943
 20
-257.150080
 30
0.0
 10
22.443532
 20
-258.119937
 30
0.0
 10
22.420136
 20
-259.282438
 30
0.0
 10
22.333987
 20
-259.538047
 30
0.0
 10
22.142037
 20
-259.655254
 30
0.0
 10
21.918364
 20
-259.625564
 30
0.0
  0
LWPOLYLINE
  5
120
100
AcDbEntity
  8
Layer_1
 62
7
100
AcDbPolyline
 90
33
 70
0
 10
26.252321
 20
-259.641933
 30
0.0
 10
25.375268
 20
-259.191365
 30
0.0
 10
24.948774
 20
-258.255911
 30
0.0
 10
25.106496
 20
-257.176016
 30
0.0
 10
25.811479
 20
-256.461909
 30
0.0
 10
26.071349
 20
-256.367421
 30
0.0
 10
26.438091
 20
-256.347948
 30
0.0
 10
26.806369
 20
-256.367704
 30
0.0
 10
27.071387
 20
-256.465211
 30
0.0
 10
27.190778
 20
-256.523829
 30
0.0
 10
27.310169
 20
-256.582446
 30
0.0
 10
27.310169
 20
-256.771422
 30
0.0
 10
27.310169
 20
-256.960398
 30
0.0
 10
27.310169
 20
-257.149346
 30
0.0
 10
27.310169
 20
-257.338322
 30
0.0
 10
27.263450
 20
-257.295594
 30
0.0
 10
27.216731
 20
-257.252894
 30
0.0
 10
26.745335
 20
-257.034510
 30
0.0
 10
26.226899
 20
-257.084661
 30
0.0
 10
25.706272
 20
-257.690197
 30
0.0
 10
25.793911
 20
-258.510278
 30
0.0
 10
26.437484
 20
-258.946227
 30
0.0
 10
27.169730
 20
-258.767439
 30
0.0
 10
27.241584
 20
-258.704334
 30
0.0
 10
27.313437
 20
-258.641258
 30
0.0
 10
27.307426
 20
-258.836188
 30
0.0
 10
27.301415
 20
-259.031119
 30
0.0
 10
27.295403
 20
-259.226050
 30
0.0
 10
27.289392
 20
-259.420981
 30
0.0
 10
27.175191
 20
-259.476240
 30
0.0
 10
27.060990
 20
-259.531499
 30
0.0
 10
26.684686
 20
-259.652460
 30
0.0
 10
26.252321
 20
-259.641933
 30
0.0
  0
LWPOLYLINE
  5
121
100
AcDbEntity
  8
Layer_1
 62
7
100
AcDbPolyline
 90
17
 70
0
 10
27.778181
 20
-259.658584
 30
0.0
 10
27.688135
 20
-259.616787
 30
0.0
 10
27.601691
 20
-259.537116
 30
0.0
 10
27.529176
 20
-259.173218
 30
0.0
 10
27.517803
 20
-257.425698
 30
0.0
 10
27.517803
 20
-256.423301
 30
0.0
 10
27.517803
 20
-255.420904
 30
0.0
 10
27.581690
 20
-255.367141
 30
0.0
 10
27.645573
 20
-255.313378
 30
0.0
 10
27.832300
 20
-255.212173
 30
0.0
 10
28.030381
 20
-255.251994
 30
0.0
 10
28.217305
 20
-255.606917
 30
0.0
 10
28.244539
 20
-257.471080
 30
0.0
 10
28.233307
 20
-259.158006
 30
0.0
 10
28.167839
 20
-259.517727
 30
0.0
 10
27.987496
 20
-259.633494
 30
0.0
 10
27.778181
 20
-259.658584
 30
0.0
  0
LWPOLYLINE
  5
122
100
AcDbEntity
  8
Layer_1
 62
7
100
AcDbPolyline
 90
11
 70
0
 10
28.943396
 20
-259.630362
 30
0.0
 10
28.730341
 20
-259.205758
 30
0.0
 10
29.095855
 20
-258.901749
 30
0.0
 10
29.437070
 20
-259.130546
 30
0.0
 10
29.367765
 20
-259.539373
 30
0.0
 10
29.284061
 20
-259.616984
 30
0.0
 10
29.225816
 20
-259.649242
 30
0.0
 10
29.181239
 20
-259.654887
 30
0.0
 10
29.130396
 20
-259.668434
 30
0.0
 10
29.052650
 20
-259.665047
 30
0.0
 10
28.943396
 20
-259.630362
 30
0.0
  0
LWPOLYLINE
  5
123
100
AcDbEntity
  8
Layer_1
 62
7
100
AcDbPolyline
 90
15
 70
0
 10
31.409677
 20
-259.665216
 30
0.0
 10
31.388623
 20
-259.549420
 30
0.0
 10
31.379874
 20
-259.312918
 30
0.0
 10
31.394070
 20
-259.035607
 30
0.0
 10
31.473312
 20
-258.965390
 30
0.0
 10
31.845160
 20
-258.834947
 30
0.0
 10
32.092908
 20
-258.606826
 30
0.0
 10
32.367147
 20
-258.363890
 30
0.0
 10
32.614825
 20
-258.363890
 30
0.0
 10
32.793068
 20
-258.515415
 30
0.0
 10
32.838260
 20
-258.804551
 30
0.0
 10
32.619834
 20
-259.125438
 30
0.0
 10
32.240364
 20
-259.453098
 30
0.0
 10
31.750703
 20
-259.642808
 30
0.0
 10
31.409677
 20
-259.665216
 30
0.0
  0
LWPOLYLINE
  5
124
100
AcDbEntity
  8
Layer_1
 62
7
100
AcDbPolyline
 90
27
 70
0
 10
34.556725
 20
-259.661547
 30
0.0
 10
33.483508
 20
-258.986105
 30
0.0
 10
33.201263
 20
-257.716444
 30
0.0
 10
33.666647
 20
-256.800576
 30
0.0
 10
34.587871
 20
-256.349416
 30
0.0
 10
34.665737
 20
-256.336433
 30
0.0
 10
34.743599
 20
-256.323451
 30
0.0
 10
34.743599
 20
-256.500094
 30
0.0
 10
34.743599
 20
-256.676737
 30
0.0
 10
34.743599
 20
-256.853352
 30
0.0
 10
34.743599
 20
-257.029994
 30
0.0
 10
34.655390
 20
-257.053701
 30
0.0
 10
34.567182
 20
-257.077408
 30
0.0
 10
34.200502
 20
-257.315095
 30
0.0
 10
33.959498
 20
-257.676763
 30
0.0
 10
33.915525
 20
-258.008572
 30
0.0
 10
33.963810
 20
-258.336401
 30
0.0
 10
34.206603
 20
-258.700214
 30
0.0
 10
34.559116
 20
-258.928419
 30
0.0
 10
34.640974
 20
-258.947610
 30
0.0
 10
34.722836
 20
-258.966801
 30
0.0
 10
34.728847
 20
-259.147762
 30
0.0
 10
34.734858
 20
-259.328723
 30
0.0
 10
34.733730
 20
-259.582497
 30
0.0
 10
34.714115
 20
-259.684407
 30
0.0
 10
34.654383
 20
-259.675094
 30
0.0
 10
34.556725
 20
-259.661547
 30
0.0
  0
LWPOLYLINE
  5
125
100
AcDbEntity
  8
Layer_1
 62
7
100
AcDbPolyline
 90
31
 70
0
 10
34.925051
 20
-259.629318
 30
0.0
 10
34.915088
 20
-259.503983
 30
0.0
 10
34.918136
 20
-259.273040
 30
0.0
 10
34.924317
 20
-259.119963
 30
0.0
 10
34.930469
 20
-258.966914
 30
0.0
 10
35.012331
 20
-258.947723
 30
0.0
 10
35.094192
 20
-258.928532
 30
0.0
 10
35.451889
 20
-258.696404
 30
0.0
 10
35.695049
 20
-258.336373
 30
0.0
 10
35.735915
 20
-257.945241
 30
0.0
 10
35.662783
 20
-257.593846
 30
0.0
 10
35.412197
 20
-257.274032
 30
0.0
 10
35.078170
 20
-257.075376
 30
0.0
 10
34.993938
 20
-257.052798
 30
0.0
 10
34.909706
 20
-257.030220
 30
0.0
 10
34.909706
 20
-256.853267
 30
0.0
 10
34.909706
 20
-256.676314
 30
0.0
 10
34.909706
 20
-256.499332
 30
0.0
 10
34.909706
 20
-256.322379
 30
0.0
 10
35.008335
 20
-256.336490
 30
0.0
 10
35.106963
 20
-256.350601
 30
0.0
 10
35.862655
 20
-256.697480
 30
0.0
 10
36.366543
 20
-257.371032
 30
0.0
 10
36.472820
 20
-258.010237
 30
0.0
 10
36.365581
 20
-258.650599
 30
0.0
 10
36.032279
 20
-259.152898
 30
0.0
 10
35.556424
 20
-259.520944
 30
0.0
 10
35.153744
 20
-259.646872
 30
0.0
 10
34.925045
 20
-259.629938
 30
0.0
 10
34.925048
 20
-259.629938
 30
0.0
 10
34.925051
 20
-259.629318
 30
0.0
  0
LWPOLYLINE
  5
126
100
AcDbEntity
  8
Layer_1
 62
7
100
AcDbPolyline
 90
49
 70
0
 10
39.161062
 20
-259.658217
 30
0.0
 10
39.069755
 20
-259.617944
 30
0.0
 10
38.974189
 20
-259.539966
 30
0.0
 10
38.885842
 20
-259.316700
 30
0.0
 10
38.854826
 20
-258.431312
 30
0.0
 10
38.791555
 20
-257.398492
 30
0.0
 10
38.542460
 20
-257.091914
 30
0.0
 10
38.207027
 20
-257.040324
 30
0.0
 10
37.906384
 20
-257.130776
 30
0.0
 10
37.844860
 20
-257.179036
 30
0.0
 10
37.802987
 20
-257.199074
 30
0.0
 10
37.783287
 20
-257.102582
 30
0.0
 10
37.775103
 20
-256.870567
 30
0.0
 10
37.775103
 20
-256.706314
 30
0.0
 10
37.775103
 20
-256.542060
 30
0.0
 10
37.882999
 20
-256.488297
 30
0.0
 10
37.990893
 20
-256.434534
 30
0.0
 10
38.436177
 20
-256.326781
 30
0.0
 10
38.866535
 20
-256.383000
 30
0.0
 10
39.140226
 20
-256.559361
 30
0.0
 10
39.353702
 20
-256.794706
 30
0.0
 10
39.389657
 20
-256.853831
 30
0.0
 10
39.425615
 20
-256.912957
 30
0.0
 10
39.492515
 20
-256.828488
 30
0.0
 10
39.559416
 20
-256.744019
 30
0.0
 10
39.909022
 20
-256.450084
 30
0.0
 10
40.375369
 20
-256.335756
 30
0.0
 10
41.040691
 20
-256.466143
 30
0.0
 10
41.482148
 20
-256.948658
 30
0.0
 10
41.563330
 20
-257.269008
 30
0.0
 10
41.588363
 20
-258.232459
 30
0.0
 10
41.590620
 20
-259.034958
 30
0.0
 10
41.577271
 20
-259.425835
 30
0.0
 10
41.320757
 20
-259.645066
 30
0.0
 10
40.988423
 20
-259.551791
 30
0.0
 10
40.910403
 20
-259.324461
 30
0.0
 10
40.880355
 20
-258.500739
 30
0.0
 10
40.812511
 20
-257.463601
 30
0.0
 10
40.579455
 20
-257.116834
 30
0.0
 10
40.254998
 20
-257.034425
 30
0.0
 10
39.934428
 20
-257.101905
 30
0.0
 10
39.823542
 20
-257.200485
 30
0.0
 10
39.720816
 20
-257.340693
 30
0.0
 10
39.634798
 20
-257.627487
 30
0.0
 10
39.602701
 20
-258.492611
 30
0.0
 10
39.572475
 20
-259.324207
 30
0.0
 10
39.506344
 20
-259.557577
 30
0.0
 10
39.358511
 20
-259.649045
 30
0.0
 10
39.161062
 20
-259.658217
 30
0.0
  0
LWPOLYLINE
  5
127
100
AcDbEntity
  8
Layer_1
 62
7
100
AcDbPolyline
 90
17
 70
0
 10
5.301628
 20
-259.567257
 30
0.0
 10
5.236852
 20
-259.481574
 30
0.0
 10
5.196263
 20
-259.390755
 30
0.0
 10
5.183253
 20
-258.752679
 30
0.0
 10
5.184946
 20
-257.351220
 30
0.0
 10
5.190901
 20
-256.378710
 30
0.0
 10
5.196856
 20
-255.406201
 30
0.0
 10
5.255115
 20
-255.356106
 30
0.0
 10
5.313371
 20
-255.306012
 30
0.0
 10
5.615654
 20
-255.211919
 30
0.0
 10
5.860868
 20
-255.412607
 30
0.0
 10
5.912193
 20
-255.854398
 30
0.0
 10
5.923595
 20
-257.419264
 30
0.0
 10
5.897941
 20
-259.211459
 30
0.0
 10
5.755848
 20
-259.608602
 30
0.0
 10
5.513721
 20
-259.647239
 30
0.0
 10
5.301628
 20
-259.567257
 30
0.0
  0
LWPOLYLINE
  5
128
100
AcDbEntity
  8
Layer_1
 62
7
100
AcDbPolyline
 90
27
 70
0
 10
30.893416
 20
-259.588988
 30
0.0
 10
30.278598
 20
-259.226756
 30
0.0
 10
29.880289
 20
-258.644136
 30
0.0
 10
29.800460
 20
-258.352572
 30
0.0
 10
29.781071
 20
-257.967367
 30
0.0
 10
29.801758
 20
-257.573216
 30
0.0
 10
29.913665
 20
-257.272169
 30
0.0
 10
30.394786
 20
-256.666238
 30
0.0
 10
31.058033
 20
-256.351165
 30
0.0
 10
31.135899
 20
-256.337336
 30
0.0
 10
31.213761
 20
-256.323508
 30
0.0
 10
31.213761
 20
-256.499332
 30
0.0
 10
31.213761
 20
-256.675156
 30
0.0
 10
31.213761
 20
-256.850981
 30
0.0
 10
31.213761
 20
-257.026805
 30
0.0
 10
31.144551
 20
-257.049665
 30
0.0
 10
31.075342
 20
-257.072525
 30
0.0
 10
30.667410
 20
-257.410176
 30
0.0
 10
30.509111
 20
-257.988421
 30
0.0
 10
30.659321
 20
-258.571182
 30
0.0
 10
31.087342
 20
-258.907591
 30
0.0
 10
31.150552
 20
-258.929604
 30
0.0
 10
31.213761
 20
-258.951617
 30
0.0
 10
31.213761
 20
-259.126087
 30
0.0
 10
31.213761
 20
-259.300557
 30
0.0
 10
31.174718
 20
-259.629741
 30
0.0
 10
30.893416
 20
-259.588988
 30
0.0
  0
LWPOLYLINE
  5
129
100
AcDbEntity
  8
Layer_1
 62
7
100
AcDbPolyline
 90
19
 70
0
 10
36.982945
 20
-259.542054
 30
0.0
 10
36.932608
 20
-259.488489
 30
0.0
 10
36.882268
 20
-259.434895
 30
0.0
 10
36.882268
 20
-258.711503
 30
0.0
 10
36.882268
 20
-257.988139
 30
0.0
 10
36.882268
 20
-257.264747
 30
0.0
 10
36.882268
 20
-256.541355
 30
0.0
 10
36.932608
 20
-256.487761
 30
0.0
 10
36.982945
 20
-256.434195
 30
0.0
 10
37.244378
 20
-256.321447
 30
0.0
 10
37.501491
 20
-256.454797
 30
0.0
 10
37.555246
 20
-256.518692
 30
0.0
 10
37.609001
 20
-256.582559
 30
0.0
 10
37.609001
 20
-257.277588
 30
0.0
 10
37.609001
 20
-257.972617
 30
0.0
 10
37.558246
 20
-259.431423
 30
0.0
 10
37.218332
 20
-259.649242
 30
0.0
 10
37.092004
 20
-259.622996
 30
0.0
 10
36.982945
 20
-259.542054
 30
0.0
  0
LWPOLYLINE
  5
12a
100
AcDbEntity
  8
Layer_1
 62
7
100
AcDbPolyline
 90
27
 70
0
 10
7.842235
 20
-257.956982
 30
0.0
 10
7.848387
 20
-257.816830
 30
0.0
 10
7.854511
 20
-257.676678
 30
0.0
 10
8.048624
 20
-257.670752
 30
0.0
 10
8.242739
 20
-257.664825
 30
0.0
 10
8.436852
 20
-257.658898
 30
0.0
 10
8.630967
 20
-257.652972
 30
0.0
 10
8.617166
 20
-257.597938
 30
0.0
 10
8.603366
 20
-257.542905
 30
0.0
 10
8.396474
 20
-257.206666
 30
0.0
 10
8.010261
 20
-256.989862
 30
0.0
 10
7.922016
 20
-256.963334
 30
0.0
 10
7.833771
 20
-256.937087
 30
0.0
 10
7.833771
 20
-256.784659
 30
0.0
 10
7.833771
 20
-256.632202
 30
0.0
 10
7.880151
 20
-256.340074
 30
0.0
 10
8.203829
 20
-256.392370
 30
0.0
 10
8.972811
 20
-256.882449
 30
0.0
 10
9.354328
 20
-257.663640
 30
0.0
 10
9.351788
 20
-257.958449
 30
0.0
 10
9.237273
 20
-258.153380
 30
0.0
 10
9.058271
 20
-258.224444
 30
0.0
 10
8.488383
 20
-258.237426
 30
0.0
 10
8.159128
 20
-258.237426
 30
0.0
 10
7.829873
 20
-258.237426
 30
0.0
 10
7.836026
 20
-258.097274
 30
0.0
 10
7.842235
 20
-257.956982
 30
0.0
  0
LWPOLYLINE
  5
12b
100
AcDbEntity
  8
Layer_1
 62
7
100
AcDbPolyline
 90
23
 70
0
 10
32.345384
 20
-257.635530
 30
0.0
 10
32.250067
 20
-257.582275
 30
0.0
 10
32.210420
 20
-257.536612
 30
0.0
 10
32.157004
 20
-257.454767
 30
0.0
 10
32.028573
 20
-257.314503
 30
0.0
 10
31.796821
 20
-257.136759
 30
0.0
 10
31.431778
 20
-257.008630
 30
0.0
 10
31.392286
 20
-256.916400
 30
0.0
 10
31.379868
 20
-256.654752
 30
0.0
 10
31.379868
 20
-256.485080
 30
0.0
 10
31.379868
 20
-256.315408
 30
0.0
 10
31.495323
 20
-256.327261
 30
0.0
 10
31.610777
 20
-256.339114
 30
0.0
 10
32.073350
 20
-256.475004
 30
0.0
 10
32.497711
 20
-256.724348
 30
0.0
 10
32.748779
 20
-257.019863
 30
0.0
 10
32.874862
 20
-257.292235
 30
0.0
 10
32.797950
 20
-257.507656
 30
0.0
 10
32.620760
 20
-257.651278
 30
0.0
 10
32.526278
 20
-257.683311
 30
0.0
 10
32.484534
 20
-257.695728
 30
0.0
 10
32.441933
 20
-257.677384
 30
0.0
 10
32.345384
 20
-257.635530
 30
0.0
  0
LWPOLYLINE
  5
12c
100
AcDbEntity
  8
Layer_1
 62
7
100
AcDbPolyline
 90
28
 70
0
 10
23.130712
 20
-259.650682
 30
0.0
 10
22.937283
 20
-259.365270
 30
0.0
 10
22.908250
 20
-257.984752
 30
0.0
 10
22.908250
 20
-257.265480
 30
0.0
 10
22.908250
 20
-256.546181
 30
0.0
 10
22.962990
 20
-256.491458
 30
0.0
 10
23.017730
 20
-256.436707
 30
0.0
 10
23.241930
 20
-256.329406
 30
0.0
 10
23.482132
 20
-256.369961
 30
0.0
 10
23.720050
 20
-256.616172
 30
0.0
 10
23.842646
 20
-256.513894
 30
0.0
 10
23.936084
 20
-256.466481
 30
0.0
 10
24.029522
 20
-256.419096
 30
0.0
 10
24.296787
 20
-256.348907
 30
0.0
 10
24.517470
 20
-256.461937
 30
0.0
 10
24.588858
 20
-256.566501
 30
0.0
 10
24.610900
 20
-256.709898
 30
0.0
 10
24.513982
 20
-256.966664
 30
0.0
 10
24.227080
 20
-257.091519
 30
0.0
 10
24.059850
 20
-257.136844
 30
0.0
 10
23.927005
 20
-257.205508
 30
0.0
 10
23.872827
 20
-257.248124
 30
0.0
 10
23.633915
 20
-257.513413
 30
0.0
 10
23.638743
 20
-258.111188
 30
0.0
 10
23.601237
 20
-259.292824
 30
0.0
 10
23.518466
 20
-259.553456
 30
0.0
 10
23.329658
 20
-259.661745
 30
0.0
 10
23.130719
 20
-259.650738
 30
0.0
  0
LWPOLYLINE
  5
12d
100
AcDbEntity
  8
Layer_1
 62
7
100
AcDbPolyline
 90
26
 70
0
 10
17.522646
 20
-259.630079
 30
0.0
 10
17.330899
 20
-259.299964
 30
0.0
 10
17.309873
 20
-257.891195
 30
0.0
 10
17.316336
 20
-257.209346
 30
0.0
 10
17.322799
 20
-256.527526
 30
0.0
 10
17.381058
 20
-256.477431
 30
0.0
 10
17.439317
 20
-256.427337
 30
0.0
 10
17.702949
 20
-256.325483
 30
0.0
 10
17.952452
 20
-256.364571
 30
0.0
 10
18.114740
 20
-256.621449
 30
0.0
 10
18.537475
 20
-256.377581
 30
0.0
 10
18.886671
 20
-256.427309
 30
0.0
 10
19.046189
 20
-256.743426
 30
0.0
 10
18.921977
 20
-256.953060
 30
0.0
 10
18.706780
 20
-257.075432
 30
0.0
 10
18.585357
 20
-257.100268
 30
0.0
 10
18.429121
 20
-257.158546
 30
0.0
 10
18.050709
 20
-257.290288
 30
0.0
 10
18.056484
 20
-257.413252
 30
0.0
 10
18.049532
 20
-257.972729
 30
0.0
 10
18.014980
 20
-259.352965
 30
0.0
 10
17.795431
 20
-259.644840
 30
0.0
 10
17.700948
 20
-259.676872
 30
0.0
 10
17.659205
 20
-259.689290
 30
0.0
 10
17.617365
 20
-259.671227
 30
0.0
 10
17.522646
 20
-259.630051
 30
0.0
  0
LWPOLYLINE
  5
12e
100
AcDbEntity
  8
Layer_1
 62
7
100
AcDbPolyline
 90
9
 70
0
 10
16.199664
 20
-255.934408
 30
0.0
 10
16.124221
 20
-255.541498
 30
0.0
 10
16.444199
 20
-255.313773
 30
0.0
 10
16.703527
 20
-255.413510
 30
0.0
 10
16.803699
 20
-255.671715
 30
0.0
 10
16.705150
 20
-255.934549
 30
0.0
 10
16.450715
 20
-256.036346
 30
0.0
 10
16.312971
 20
-256.011793
 30
0.0
 10
16.199664
 20
-255.934408
 30
0.0
  0
ENDSEC
  0
SECTION
  2
OBJECTS
  0
DICTIONARY
  5
C
330
0
100
AcDbDictionary
  3
ACAD_GROUP
350
D
  3
ACAD_MLINESTYLE
350
17
  0
DICTIONARY
  5
D
330
C
100
AcDbDictionary
  0
DICTIONARY
  5
1A
330
C
100
AcDbDictionary
  0
DICTIONARY
  5
17
330
C
100
AcDbDictionary
  3
STANDARD
350
18
  0
DICTIONARY
  5
19
330
C
100
AcDbDictionary
  0
ENDSEC
  0
EOF
