999
DXF created by Inkscape
  0
SECTION
  2
HEADER
  9
$ACADVER
  1
AC1014
  9
$HANDSEED
  5
FFFF
  9
$MEASUREMENT
 70
     1
  0
ENDSEC
  0
SECTION
  2
TABLES
  0
TABLE
  2
VPORT
  5
8
330
0
100
AcDbSymbolTable
 70
     4
  0
VPORT
  5
2E
330
8
100
AcDbSymbolTableRecord
100
AcDbViewportTableRecord
  2
*ACTIVE
 70
     0
 10
0.0
 20
0.0
 11
1.0
 21
1.0
 12
210.0
 22
148.5
 13
0.0
 23
0.0
 14
10.0
 24
10.0
 15
10.0
 25
10.0
 16
0.0
 26
0.0
 36
1.0
 17
0.0
 27
0.0
 37
0.0
 40
341.0
 41
1.24
 42
50.0
 43
0.0
 44
0.0
 50
0.0
 51
0.0
 71
     0
 72
   100
 73
     1
 74
     3
 75
     0
 76
     0
 77
     0
 78
     0
  0
ENDTAB
  0
TABLE
  2
LTYPE
  5
5
330
0
100
AcDbSymbolTable
 70
     1
  0
LTYPE
  5
14
330
5
100
AcDbSymbolTableRecord
100
AcDbLinetypeTableRecord
  2
BYBLOCK
 70
     0
  3

 72
    65
 73
     0
 40
0.0
  0
LTYPE
  5
15
330
5
100
AcDbSymbolTableRecord
100
AcDbLinetypeTableRecord
  2
BYLAYER
 70
     0
  3

 72
    65
 73
     0
 40
0.0
  0
LTYPE
  5
16
330
5
100
AcDbSymbolTableRecord
100
AcDbLinetypeTableRecord
  2
CONTINUOUS
 70
     0
  3
Solid line
 72
    65
 73
     0
 40
0.0
  0
ENDTAB
  0
TABLE
  2
LAYER
  5
2
100
AcDbSymbolTable
 70
1
  0
LAYER
  5
50
100
AcDbSymbolTableRecord
100
AcDbLayerTableRecord
  2
0
 70
0
  6
CONTINUOUS
  0
ENDTAB
  0
TABLE
  2
STYLE
  5
3
330
0
100
AcDbSymbolTable
 70
     1
  0
STYLE
  5
11
330
3
100
AcDbSymbolTableRecord
100
AcDbTextStyleTableRecord
  2
STANDARD
 70
     0
 40
0.0
 41
1.0
 50
0.0
 71
     0
 42
2.5
  3
txt
  4

  0
ENDTAB
  0
TABLE
  2
VIEW
  5
6
330
0
100
AcDbSymbolTable
 70
     0
  0
ENDTAB
  0
TABLE
  2
UCS
  5
7
330
0
100
AcDbSymbolTable
 70
     0
  0
ENDTAB
  0
TABLE
  2
APPID
  5
9
330
0
100
AcDbSymbolTable
 70
     2
  0
APPID
  5
12
330
9
100
AcDbSymbolTableRecord
100
AcDbRegAppTableRecord
  2
ACAD
 70
     0
  0
ENDTAB
  0
TABLE
  2
DIMSTYLE
  5
A
330
0
100
AcDbSymbolTable
 70
     1
  0
DIMSTYLE
105
27
330
A
100
AcDbSymbolTableRecord
100
AcDbDimStyleTableRecord
  2
ISO-25
 70
     0
  3

  4

  5

  6

  7

 40
1.0
 41
2.5
 42
0.625
 43
3.75
 44
1.25
 45
0.0
 46
0.0
 47
0.0
 48
0.0
140
2.5
141
2.5
142
0.0
143
0.03937007874016
144
1.0
145
0.0
146
1.0
147
0.625
 71
     0
 72
     0
 73
     0
 74
     0
 75
     0
 76
     0
 77
     1
 78
     8
170
     0
171
     3
172
     1
173
     0
174
     0
175
     0
176
     0
177
     0
178
     0
270
     2
271
     2
272
     2
273
     2
274
     3
340
11
275
     0
280
     0
281
     0
282
     0
283
     0
284
     8
285
     0
286
     0
287
     3
288
     0
  0
ENDTAB
  0
TABLE
  2
BLOCK_RECORD
  5
1
330
0
100
AcDbSymbolTable
 70
     1
  0
BLOCK_RECORD
  5
1F
330
1
100
AcDbSymbolTableRecord
100
AcDbBlockTableRecord
  2
*MODEL_SPACE
  0
BLOCK_RECORD
  5
1B
330
1
100
AcDbSymbolTableRecord
100
AcDbBlockTableRecord
  2
*PAPER_SPACE
  0
ENDTAB
  0
ENDSEC
  0
SECTION
  2
BLOCKS
  0
BLOCK
  5
20
330
1F
100
AcDbEntity
  8
0
100
AcDbBlockBegin
  2
*MODEL_SPACE
 70
     0
 10
0.0
 20
0.0
 30
0.0
  3
*MODEL_SPACE
  1

  0
ENDBLK
  5
21
330
1F
100
AcDbEntity
  8
0
100
AcDbBlockEnd
  0
BLOCK
  5
1C
330
1B
100
AcDbEntity
 67
     1
  8
0
100
AcDbBlockBegin
  2
*PAPER_SPACE
  1

  0
ENDBLK
  5
1D
330
1B
100
AcDbEntity
 67
     1
  8
0
100
AcDbBlockEnd
  0
ENDSEC
  0
SECTION
  2
ENTITIES
  0
LWPOLYLINE
  5
100
100
AcDbEntity
  8
0
 62
7
100
AcDbPolyline
 90
483
 70
0
 10
2.833582
 20
0.846936
 30
0.0
 10
2.719429
 20
1.747602
 30
0.0
 10
2.605276
 20
2.648266
 30
0.0
 10
1.559504
 20
2.679449
 30
0.0
 10
0.513733
 20
2.710632
 30
0.0
 10
0.256866
 20
2.759079
 30
0.0
 10
0.000000
 20
2.807527
 30
0.0
 10
0.583787
 20
3.033702
 30
0.0
 10
1.167574
 20
3.259877
 30
0.0
 10
1.751361
 20
3.374298
 30
0.0
 10
2.335148
 20
3.488720
 30
0.0
 10
2.415805
 20
4.199591
 30
0.0
 10
2.496462
 20
4.910462
 30
0.0
 10
2.654050
 20
5.621333
 30
0.0
 10
2.811638
 20
6.332204
 30
0.0
 10
2.827768
 20
5.868592
 30
0.0
 10
2.843897
 20
5.404981
 30
0.0
 10
2.779715
 20
4.570480
 30
0.0
 10
2.715533
 20
3.735980
 30
0.0
 10
2.712154
 20
3.365091
 30
0.0
 10
2.708774
 20
2.994201
 30
0.0
 10
3.531447
 20
2.958377
 30
0.0
 10
4.354120
 20
2.922553
 30
0.0
 10
5.355166
 20
3.169812
 30
0.0
 10
6.356213
 20
3.417071
 30
0.0
 10
6.478915
 20
4.287396
 30
0.0
 10
6.601619
 20
5.157721
 30
0.0
 10
6.633128
 20
5.744962
 30
0.0
 10
6.664637
 20
6.332204
 30
0.0
 10
6.775074
 20
5.806777
 30
0.0
 10
6.885510
 20
5.281351
 30
0.0
 10
6.973826
 20
4.685539
 30
0.0
 10
7.062142
 20
4.089728
 30
0.0
 10
8.556165
 20
3.402935
 30
0.0
 10
10.050188
 20
2.716142
 30
0.0
 10
10.354176
 20
3.652367
 30
0.0
 10
10.658164
 20
4.588591
 30
0.0
 10
11.024548
 20
5.405110
 30
0.0
 10
11.390933
 20
6.221629
 30
0.0
 10
12.461865
 20
6.141441
 30
0.0
 10
13.532797
 20
6.061253
 30
0.0
 10
13.703965
 20
6.196728
 30
0.0
 10
13.875133
 20
6.332204
 30
0.0
 10
13.834567
 20
6.135686
 30
0.0
 10
13.794002
 20
5.939170
 30
0.0
 10
13.883556
 20
4.948591
 30
0.0
 10
13.973111
 20
3.958013
 30
0.0
 10
14.358436
 20
3.220715
 30
0.0
 10
14.743761
 20
2.483418
 30
0.0
 10
15.233419
 20
2.620383
 30
0.0
 10
15.723078
 20
2.757348
 30
0.0
 10
16.271233
 20
3.127487
 30
0.0
 10
16.819388
 20
3.497627
 30
0.0
 10
16.769085
 20
4.698563
 30
0.0
 10
16.718781
 20
5.899500
 30
0.0
 10
16.745804
 20
6.115852
 30
0.0
 10
16.772827
 20
6.332204
 30
0.0
 10
16.918873
 20
6.054037
 30
0.0
 10
17.064918
 20
5.775870
 30
0.0
 10
17.244451
 20
5.268319
 30
0.0
 10
17.423984
 20
4.760768
 30
0.0
 10
18.058530
 20
4.940012
 30
0.0
 10
18.693076
 20
5.119255
 30
0.0
 10
19.259038
 20
5.639570
 30
0.0
 10
19.825001
 20
6.159885
 30
0.0
 10
20.081867
 20
6.130829
 30
0.0
 10
20.338734
 20
6.101773
 30
0.0
 10
20.718094
 20
6.089009
 30
0.0
 10
21.097457
 20
6.076246
 30
0.0
 10
21.401026
 20
6.195858
 30
0.0
 10
21.704595
 20
6.315470
 30
0.0
 10
21.609232
 20
6.168165
 30
0.0
 10
21.513868
 20
6.020860
 30
0.0
 10
21.492789
 20
4.897903
 30
0.0
 10
21.471710
 20
3.774947
 30
0.0
 10
22.044230
 20
3.509343
 30
0.0
 10
22.616750
 20
3.243740
 30
0.0
 10
23.432358
 20
3.890342
 30
0.0
 10
24.247966
 20
4.536944
 30
0.0
 10
23.820661
 20
5.180536
 30
0.0
 10
23.393357
 20
5.824128
 30
0.0
 10
23.166895
 20
6.072703
 30
0.0
 10
22.940432
 20
6.321277
 30
0.0
 10
23.328300
 20
6.144355
 30
0.0
 10
23.716168
 20
5.967432
 30
0.0
 10
24.035519
 20
5.967432
 30
0.0
 10
24.354870
 20
5.967432
 30
0.0
 10
24.507372
 20
6.149819
 30
0.0
 10
24.659874
 20
6.332205
 30
0.0
 10
24.656586
 20
6.077694
 30
0.0
 10
24.653298
 20
5.823184
 30
0.0
 10
24.904478
 20
4.710354
 30
0.0
 10
25.155658
 20
3.597524
 30
0.0
 10
26.258039
 20
3.986600
 30
0.0
 10
27.360417
 20
4.375676
 30
0.0
 10
27.543621
 20
5.117454
 30
0.0
 10
27.726826
 20
5.859233
 30
0.0
 10
27.855620
 20
5.947363
 30
0.0
 10
27.984415
 20
6.035492
 30
0.0
 10
28.208589
 20
6.035492
 30
0.0
 10
28.432763
 20
6.035492
 30
0.0
 10
28.680754
 20
6.183848
 30
0.0
 10
28.928746
 20
6.332204
 30
0.0
 10
28.888656
 20
6.074808
 30
0.0
 10
28.848569
 20
5.817412
 30
0.0
 10
28.810740
 20
5.455510
 30
0.0
 10
28.772911
 20
5.093607
 30
0.0
 10
29.370545
 20
4.554245
 30
0.0
 10
29.968176
 20
4.014882
 30
0.0
 10
30.596527
 20
3.699655
 30
0.0
 10
31.224875
 20
3.384427
 30
0.0
 10
31.607701
 20
4.415998
 30
0.0
 10
31.990527
 20
5.447570
 30
0.0
 10
32.172300
 20
5.889639
 30
0.0
 10
32.354074
 20
6.331708
 30
0.0
 10
32.378007
 20
5.991974
 30
0.0
 10
32.401939
 20
5.652240
 30
0.0
 10
32.780715
 20
4.286718
 30
0.0
 10
33.159491
 20
2.921197
 30
0.0
 10
33.668115
 20
2.513806
 30
0.0
 10
34.176739
 20
2.106414
 30
0.0
 10
34.456678
 20
2.513806
 30
0.0
 10
34.736619
 20
2.921197
 30
0.0
 10
34.835222
 20
4.008552
 30
0.0
 10
34.933825
 20
5.095906
 30
0.0
 10
34.832694
 20
5.714055
 30
0.0
 10
34.731562
 20
6.332204
 30
0.0
 10
34.977767
 20
5.775870
 30
0.0
 10
35.223972
 20
5.219536
 30
0.0
 10
35.682448
 20
4.663202
 30
0.0
 10
36.140918
 20
4.106869
 30
0.0
 10
36.871712
 20
4.972277
 30
0.0
 10
37.602507
 20
5.837685
 30
0.0
 10
37.713023
 20
5.878569
 30
0.0
 10
37.823541
 20
5.919453
 30
0.0
 10
38.367592
 20
5.564510
 30
0.0
 10
38.911640
 20
5.209567
 30
0.0
 10
39.583419
 20
5.446849
 30
0.0
 10
40.255198
 20
5.684132
 30
0.0
 10
40.384247
 20
5.575320
 30
0.0
 10
40.513299
 20
5.466508
 30
0.0
 10
40.432361
 20
4.415655
 30
0.0
 10
40.351422
 20
3.364803
 30
0.0
 10
40.626448
 20
2.746798
 30
0.0
 10
40.901476
 20
2.128793
 30
0.0
 10
42.303917
 20
3.199292
 30
0.0
 10
43.706364
 20
4.269790
 30
0.0
 10
43.332739
 20
4.806466
 30
0.0
 10
42.959116
 20
5.343143
 30
0.0
 10
42.642544
 20
5.832402
 30
0.0
 10
42.325970
 20
6.321661
 30
0.0
 10
42.818722
 20
5.881908
 30
0.0
 10
43.311476
 20
5.442155
 30
0.0
 10
43.704284
 20
4.997130
 30
0.0
 10
44.097092
 20
4.552106
 30
0.0
 10
44.508824
 20
4.998656
 30
0.0
 10
44.920555
 20
5.445206
 30
0.0
 10
45.382804
 20
5.783559
 30
0.0
 10
45.845058
 20
6.121913
 30
0.0
 10
46.321709
 20
5.855802
 30
0.0
 10
46.798360
 20
5.589691
 30
0.0
 10
47.437277
 20
5.696362
 30
0.0
 10
48.076191
 20
5.803033
 30
0.0
 10
48.423068
 20
6.064292
 30
0.0
 10
48.769942
 20
6.325552
 30
0.0
 10
48.600332
 20
5.985570
 30
0.0
 10
48.430722
 20
5.645589
 30
0.0
 10
48.222298
 20
4.858032
 30
0.0
 10
48.013871
 20
4.070475
 30
0.0
 10
49.042139
 20
3.371040
 30
0.0
 10
50.070405
 20
2.671605
 30
0.0
 10
50.680888
 20
3.156704
 30
0.0
 10
51.291371
 20
3.641803
 30
0.0
 10
50.981105
 20
4.483134
 30
0.0
 10
50.670838
 20
5.324465
 30
0.0
 10
50.341609
 20
5.827536
 30
0.0
 10
50.012383
 20
6.330607
 30
0.0
 10
50.445041
 20
5.960516
 30
0.0
 10
50.877699
 20
5.590425
 30
0.0
 10
51.305914
 20
5.219536
 30
0.0
 10
51.734127
 20
4.848647
 30
0.0
 10
52.394350
 20
5.408155
 30
0.0
 10
53.054575
 20
5.967664
 30
0.0
 10
53.149760
 20
6.149934
 30
0.0
 10
53.244945
 20
6.332204
 30
0.0
 10
53.287738
 20
6.054037
 30
0.0
 10
53.330534
 20
5.775870
 30
0.0
 10
53.778034
 20
4.845162
 30
0.0
 10
54.225537
 20
3.914455
 30
0.0
 10
54.725429
 20
3.261915
 30
0.0
 10
55.225323
 20
2.609374
 30
0.0
 10
55.527552
 20
3.107152
 30
0.0
 10
55.829784
 20
3.604929
 30
0.0
 10
56.077618
 20
4.566544
 30
0.0
 10
56.325451
 20
5.528159
 30
0.0
 10
56.271053
 20
5.991996
 30
0.0
 10
56.216654
 20
6.455833
 30
0.0
 10
56.384371
 20
6.023129
 30
0.0
 10
56.552081
 20
5.590425
 30
0.0
 10
57.139298
 20
5.076388
 30
0.0
 10
57.726515
 20
4.562351
 30
0.0
 10
58.579487
 20
5.206729
 30
0.0
 10
59.432461
 20
5.851107
 30
0.0
 10
59.641424
 20
6.082942
 30
0.0
 10
59.850384
 20
6.314777
 30
0.0
 10
59.627347
 20
5.742557
 30
0.0
 10
59.404309
 20
5.170337
 30
0.0
 10
59.219358
 20
4.013998
 30
0.0
 10
59.034403
 20
2.857658
 30
0.0
 10
59.150896
 20
2.174671
 30
0.0
 10
59.267389
 20
1.491684
 30
0.0
 10
60.572785
 20
1.471505
 30
0.0
 10
61.878179
 20
1.451326
 30
0.0
 10
61.809328
 20
2.413824
 30
0.0
 10
61.740474
 20
3.376321
 30
0.0
 10
61.335782
 20
4.549555
 30
0.0
 10
60.931092
 20
5.722790
 30
0.0
 10
60.733308
 20
6.027496
 30
0.0
 10
60.535524
 20
6.332203
 30
0.0
 10
60.881271
 20
6.142395
 30
0.0
 10
61.227019
 20
5.952586
 30
0.0
 10
61.985184
 20
5.952586
 30
0.0
 10
62.743342
 20
5.952586
 30
0.0
 10
63.631504
 20
6.065560
 30
0.0
 10
64.519663
 20
6.178535
 30
0.0
 10
64.556569
 20
5.373876
 30
0.0
 10
64.593476
 20
4.569218
 30
0.0
 10
65.833213
 20
3.969550
 30
0.0
 10
67.072945
 20
3.369881
 30
0.0
 10
67.681269
 20
3.978926
 30
0.0
 10
68.289596
 20
4.587970
 30
0.0
 10
68.213755
 20
5.418077
 30
0.0
 10
68.137910
 20
6.248184
 30
0.0
 10
68.297696
 20
5.722389
 30
0.0
 10
68.457479
 20
5.196594
 30
0.0
 10
68.520824
 20
4.749689
 30
0.0
 10
68.584166
 20
4.302783
 30
0.0
 10
69.021793
 20
4.380743
 30
0.0
 10
69.459419
 20
4.458703
 30
0.0
 10
70.660085
 20
5.036351
 30
0.0
 10
71.860749
 20
5.613999
 30
0.0
 10
72.016050
 20
5.509490
 30
0.0
 10
72.171346
 20
5.404980
 30
0.0
 10
72.396042
 20
4.520505
 30
0.0
 10
72.620739
 20
3.636030
 30
0.0
 10
72.890086
 20
3.215166
 30
0.0
 10
73.159431
 20
2.794302
 30
0.0
 10
73.574111
 20
2.967906
 30
0.0
 10
73.988792
 20
3.141511
 30
0.0
 10
74.452229
 20
3.956586
 30
0.0
 10
74.915669
 20
4.771661
 30
0.0
 10
75.044805
 20
5.513439
 30
0.0
 10
75.173942
 20
6.255217
 30
0.0
 10
75.190593
 20
5.582979
 30
0.0
 10
75.207244
 20
4.910740
 30
0.0
 10
75.381677
 20
3.994581
 30
0.0
 10
75.556110
 20
3.078421
 30
0.0
 10
75.794252
 20
2.831022
 30
0.0
 10
76.032391
 20
2.583623
 30
0.0
 10
75.718755
 20
2.665131
 30
0.0
 10
75.405115
 20
2.746640
 30
0.0
 10
74.723109
 20
2.747825
 30
0.0
 10
74.041102
 20
2.749010
 30
0.0
 10
73.441410
 20
2.038290
 30
0.0
 10
72.841716
 20
1.327570
 30
0.0
 10
72.741361
 20
0.622143
 30
0.0
 10
72.641008
 20
-0.083285
 30
0.0
 10
72.546108
 20
-0.123793
 30
0.0
 10
72.451211
 20
-0.164301
 30
0.0
 10
70.950912
 20
-0.109685
 30
0.0
 10
69.450616
 20
-0.055069
 30
0.0
 10
69.279714
 20
0.033534
 30
0.0
 10
69.108811
 20
0.122137
 30
0.0
 10
69.005337
 20
1.142082
 30
0.0
 10
68.901860
 20
2.162027
 30
0.0
 10
68.681837
 20
2.985923
 30
0.0
 10
68.461819
 20
3.809819
 30
0.0
 10
67.813679
 20
3.438929
 30
0.0
 10
67.165539
 20
3.068040
 30
0.0
 10
66.539737
 20
2.660218
 30
0.0
 10
65.913931
 20
2.252395
 30
0.0
 10
65.972402
 20
1.572432
 30
0.0
 10
66.030873
 20
0.892468
 30
0.0
 10
65.993253
 20
0.397949
 30
0.0
 10
65.955638
 20
-0.096570
 30
0.0
 10
65.858116
 20
0.555137
 30
0.0
 10
65.760600
 20
1.206843
 30
0.0
 10
65.516021
 20
1.819738
 30
0.0
 10
65.271447
 20
2.432632
 30
0.0
 10
64.422060
 20
2.163240
 30
0.0
 10
63.572675
 20
1.893847
 30
0.0
 10
63.019536
 20
1.126416
 30
0.0
 10
62.466398
 20
0.358984
 30
0.0
 10
62.337357
 20
0.316652
 30
0.0
 10
62.208334
 20
0.274344
 30
0.0
 10
61.673562
 20
0.585107
 30
0.0
 10
61.138788
 20
0.895869
 30
0.0
 10
60.494697
 20
0.967927
 30
0.0
 10
59.850610
 20
1.039986
 30
0.0
 10
59.326122
 20
0.731054
 30
0.0
 10
58.801635
 20
0.422123
 30
0.0
 10
58.475245
 20
0.042822
 30
0.0
 10
58.148858
 20
-0.336480
 30
0.0
 10
57.479949
 20
0.094393
 30
0.0
 10
56.811043
 20
0.525266
 30
0.0
 10
56.060876
 20
0.956139
 30
0.0
 10
55.310710
 20
1.387012
 30
0.0
 10
54.942407
 20
0.954308
 30
0.0
 10
54.574107
 20
0.521604
 30
0.0
 10
54.027347
 20
0.103241
 30
0.0
 10
53.480586
 20
-0.315122
 30
0.0
 10
53.407677
 20
-0.241732
 30
0.0
 10
53.334770
 20
-0.168343
 30
0.0
 10
54.222128
 20
0.916462
 30
0.0
 10
55.109483
 20
2.001266
 30
0.0
 10
54.564892
 20
2.847869
 30
0.0
 10
54.020299
 20
3.694473
 30
0.0
 10
53.475709
 20
4.407759
 30
0.0
 10
52.931116
 20
5.121045
 30
0.0
 10
52.636482
 20
4.898407
 30
0.0
 10
52.341848
 20
4.675770
 30
0.0
 10
52.140090
 20
3.025295
 30
0.0
 10
51.938332
 20
1.374820
 30
0.0
 10
52.138112
 20
0.515508
 30
0.0
 10
52.337891
 20
-0.343804
 30
0.0
 10
52.018334
 20
0.396833
 30
0.0
 10
51.698776
 20
1.137470
 30
0.0
 10
51.146400
 20
1.799046
 30
0.0
 10
50.594023
 20
2.460624
 30
0.0
 10
49.847540
 20
1.586896
 30
0.0
 10
49.101053
 20
0.713168
 30
0.0
 10
49.085813
 20
0.122867
 30
0.0
 10
49.070601
 20
-0.467434
 30
0.0
 10
49.015769
 20
0.198388
 30
0.0
 10
48.960941
 20
0.864210
 30
0.0
 10
48.719300
 20
1.692777
 30
0.0
 10
48.477658
 20
2.521345
 30
0.0
 10
47.897201
 20
2.250728
 30
0.0
 10
47.316746
 20
1.980112
 30
0.0
 10
46.974339
 20
1.151545
 30
0.0
 10
46.631928
 20
0.322977
 30
0.0
 10
46.583323
 20
0.113216
 30
0.0
 10
46.534722
 20
-0.096545
 30
0.0
 10
46.433455
 20
0.305252
 30
0.0
 10
46.332182
 20
0.707048
 30
0.0
 10
46.295457
 20
0.923400
 30
0.0
 10
46.258731
 20
1.139752
 30
0.0
 10
45.890265
 20
1.324004
 30
0.0
 10
45.521798
 20
1.508256
 30
0.0
 10
45.188626
 20
1.692508
 30
0.0
 10
44.855457
 20
1.876760
 30
0.0
 10
44.554247
 20
1.321619
 30
0.0
 10
44.253040
 20
0.766478
 30
0.0
 10
43.767189
 20
0.211337
 30
0.0
 10
43.281338
 20
-0.343804
 30
0.0
 10
42.647331
 20
0.212529
 30
0.0
 10
42.013324
 20
0.768863
 30
0.0
 10
41.434329
 20
1.325197
 30
0.0
 10
40.855330
 20
1.881531
 30
0.0
 10
40.405476
 20
1.068203
 30
0.0
 10
39.955620
 20
0.254875
 30
0.0
 10
39.944556
 20
-0.106280
 30
0.0
 10
39.933493
 20
-0.467434
 30
0.0
 10
39.873973
 20
-0.096545
 30
0.0
 10
39.814455
 20
0.274344
 30
0.0
 10
39.277126
 20
0.682048
 30
0.0
 10
38.739801
 20
1.089752
 30
0.0
 10
38.028513
 20
0.759305
 30
0.0
 10
37.317228
 20
0.428858
 30
0.0
 10
37.083746
 20
0.061597
 30
0.0
 10
36.850264
 20
-0.305664
 30
0.0
 10
36.228711
 20
-0.007051
 30
0.0
 10
35.607159
 20
0.291562
 30
0.0
 10
34.985607
 20
0.590175
 30
0.0
 10
34.364058
 20
0.888788
 30
0.0
 10
34.257979
 20
0.580640
 30
0.0
 10
34.151900
 20
0.272492
 30
0.0
 10
33.968921
 20
-0.035656
 30
0.0
 10
33.785957
 20
-0.343804
 30
0.0
 10
33.869681
 20
0.102018
 30
0.0
 10
33.953402
 20
0.547839
 30
0.0
 10
33.862710
 20
1.258710
 30
0.0
 10
33.772015
 20
1.969581
 30
0.0
 10
33.189268
 20
2.470654
 30
0.0
 10
32.606519
 20
2.971727
 30
0.0
 10
31.704277
 20
2.582685
 30
0.0
 10
30.802032
 20
2.193644
 30
0.0
 10
30.900105
 20
1.388531
 30
0.0
 10
30.998174
 20
0.583419
 30
0.0
 10
31.100655
 20
0.119807
 30
0.0
 10
31.203135
 20
-0.343804
 30
0.0
 10
31.104863
 20
-0.251082
 30
0.0
 10
31.006590
 20
-0.158360
 30
0.0
 10
30.841013
 20
0.215540
 30
0.0
 10
30.675433
 20
0.589440
 30
0.0
 10
30.511933
 20
0.870617
 30
0.0
 10
30.348431
 20
1.151795
 30
0.0
 10
29.792656
 20
0.898707
 30
0.0
 10
29.236879
 20
0.645620
 30
0.0
 10
28.593878
 20
0.277085
 30
0.0
 10
27.950879
 20
-0.091450
 30
0.0
 10
27.584208
 20
0.589169
 30
0.0
 10
27.217538
 20
1.269789
 30
0.0
 10
26.125152
 20
2.235409
 30
0.0
 10
25.032766
 20
3.201028
 30
0.0
 10
24.767956
 20
2.479464
 30
0.0
 10
24.503147
 20
1.757901
 30
0.0
 10
24.240780
 20
0.779056
 30
0.0
 10
23.978416
 20
-0.199790
 30
0.0
 10
24.077264
 20
0.712702
 30
0.0
 10
24.176114
 20
1.625194
 30
0.0
 10
24.313355
 20
2.403863
 30
0.0
 10
24.450598
 20
3.182533
 30
0.0
 10
23.922851
 20
3.100437
 30
0.0
 10
23.395102
 20
3.018340
 30
0.0
 10
22.268974
 20
2.338882
 30
0.0
 10
21.142844
 20
1.659424
 30
0.0
 10
21.088039
 20
0.926597
 30
0.0
 10
21.033234
 20
0.193770
 30
0.0
 10
20.877160
 20
0.119416
 30
0.0
 10
20.721087
 20
0.045061
 30
0.0
 10
20.274692
 20
0.045061
 30
0.0
 10
19.828298
 20
0.045061
 30
0.0
 10
19.422828
 20
-0.143908
 30
0.0
 10
19.017361
 20
-0.332876
 30
0.0
 10
19.246237
 20
-0.082663
 30
0.0
 10
19.475113
 20
0.167549
 30
0.0
 10
19.825385
 20
0.457234
 30
0.0
 10
20.175657
 20
0.746919
 30
0.0
 10
19.517226
 20
1.495982
 30
0.0
 10
18.858795
 20
2.245044
 30
0.0
 10
17.971438
 20
2.750638
 30
0.0
 10
17.084081
 20
3.256233
 30
0.0
 10
17.044895
 20
2.250770
 30
0.0
 10
17.005710
 20
1.245308
 30
0.0
 10
17.157088
 20
0.524188
 30
0.0
 10
17.308466
 20
-0.196933
 30
0.0
 10
16.873943
 20
0.976178
 30
0.0
 10
16.439421
 20
2.149289
 30
0.0
 10
15.692173
 20
2.152704
 30
0.0
 10
14.944926
 20
2.156116
 30
0.0
 10
14.656031
 20
1.457569
 30
0.0
 10
14.367136
 20
0.759021
 30
0.0
 10
14.311756
 20
0.145794
 30
0.0
 10
14.256376
 20
-0.467434
 30
0.0
 10
14.241703
 20
0.119807
 30
0.0
 10
14.227031
 20
0.707048
 30
0.0
 10
14.095598
 20
1.295106
 30
0.0
 10
13.964166
 20
1.883164
 30
0.0
 10
12.399617
 20
1.485719
 30
0.0
 10
10.835068
 20
1.088272
 30
0.0
 10
10.985919
 20
0.676959
 30
0.0
 10
11.136771
 20
0.265645
 30
0.0
 10
11.194216
 20
-0.039080
 30
0.0
 10
11.251662
 20
-0.343804
 30
0.0
 10
10.999047
 20
-0.022198
 30
0.0
 10
10.746433
 20
0.299409
 30
0.0
 10
10.587223
 20
0.621016
 30
0.0
 10
10.428015
 20
0.942623
 30
0.0
 10
10.174395
 20
0.621016
 30
0.0
 10
9.920775
 20
0.299409
 30
0.0
 10
9.803113
 20
0.426515
 30
0.0
 10
9.685450
 20
0.553621
 30
0.0
 10
9.917094
 20
1.167209
 30
0.0
 10
10.148738
 20
1.780798
 30
0.0
 10
8.544135
 20
2.696572
 30
0.0
 10
6.939531
 20
3.612347
 30
0.0
 10
6.528096
 20
2.297750
 30
0.0
 10
6.116662
 20
0.983153
 30
0.0
 10
6.082634
 20
0.257860
 30
0.0
 10
6.048606
 20
-0.467434
 30
0.0
 10
6.030945
 20
0.243437
 30
0.0
 10
6.013283
 20
0.954308
 30
0.0
 10
5.995622
 20
1.665179
 30
0.0
 10
5.977958
 20
2.376049
 30
0.0
 10
5.510928
 20
2.399231
 30
0.0
 10
5.043898
 20
2.422413
 30
0.0
 10
4.008784
 20
1.719269
 30
0.0
 10
2.973670
 20
1.016125
 30
0.0
 10
2.919318
 20
0.274347
 30
0.0
 10
2.864965
 20
-0.467432
 30
0.0
 10
2.849262
 20
0.189752
 30
0.0
 10
2.833582
 20
0.846936
 30
0.0
  0
LWPOLYLINE
  5
101
100
AcDbEntity
  8
0
 62
7
100
AcDbPolyline
 90
11
 70
0
 10
44.052772
 20
1.025492
 30
0.0
 10
44.198983
 20
1.983622
 30
0.0
 10
44.345194
 20
2.941752
 30
0.0
 10
44.163290
 20
3.383129
 30
0.0
 10
43.981384
 20
3.824505
 30
0.0
 10
42.820215
 20
2.854322
 30
0.0
 10
41.659042
 20
1.884138
 30
0.0
 10
42.505066
 20
0.896218
 30
0.0
 10
43.351089
 20
-0.091702
 30
0.0
 10
43.701930
 20
0.466895
 30
0.0
 10
44.052772
 20
1.025492
 30
0.0
  0
LWPOLYLINE
  5
102
100
AcDbEntity
  8
0
 62
7
100
AcDbPolyline
 90
13
 70
0
 10
37.549181
 20
1.566025
 30
0.0
 10
37.139172
 20
2.618202
 30
0.0
 10
36.729165
 20
3.670379
 30
0.0
 10
35.869849
 20
3.203256
 30
0.0
 10
35.010533
 20
2.736133
 30
0.0
 10
34.751081
 20
2.057497
 30
0.0
 10
34.491628
 20
1.378860
 30
0.0
 10
35.090013
 20
1.028160
 30
0.0
 10
35.688400
 20
0.677460
 30
0.0
 10
36.408625
 20
0.697684
 30
0.0
 10
37.128854
 20
0.717908
 30
0.0
 10
37.339019
 20
1.141967
 30
0.0
 10
37.549181
 20
1.566025
 30
0.0
  0
LWPOLYLINE
  5
103
100
AcDbEntity
  8
0
 62
7
100
AcDbPolyline
 90
13
 70
0
 10
58.504102
 20
0.559929
 30
0.0
 10
58.616139
 20
1.860197
 30
0.0
 10
58.728178
 20
3.160465
 30
0.0
 10
58.197538
 20
3.700758
 30
0.0
 10
57.666896
 20
4.241050
 30
0.0
 10
56.840078
 20
3.787029
 30
0.0
 10
56.013257
 20
3.333008
 30
0.0
 10
55.657569
 20
2.692679
 30
0.0
 10
55.301882
 20
2.052349
 30
0.0
 10
56.692828
 20
1.109593
 30
0.0
 10
58.083775
 20
0.166836
 30
0.0
 10
58.293937
 20
0.363383
 30
0.0
 10
58.504102
 20
0.559929
 30
0.0
  0
LWPOLYLINE
  5
104
100
AcDbEntity
  8
0
 62
7
100
AcDbPolyline
 90
19
 70
0
 10
29.450936
 20
1.169590
 30
0.0
 10
29.992566
 20
1.729864
 30
0.0
 10
30.534195
 20
2.290138
 30
0.0
 10
30.566865
 20
2.637618
 30
0.0
 10
30.599532
 20
2.985099
 30
0.0
 10
29.996534
 20
3.523645
 30
0.0
 10
29.393532
 20
4.062191
 30
0.0
 10
28.818431
 20
4.572649
 30
0.0
 10
28.243327
 20
5.083108
 30
0.0
 10
27.907723
 20
4.591432
 30
0.0
 10
27.572117
 20
4.099757
 30
0.0
 10
27.236511
 20
3.542513
 30
0.0
 10
26.900906
 20
2.985269
 30
0.0
 10
27.139976
 20
2.295257
 30
0.0
 10
27.379049
 20
1.605246
 30
0.0
 10
27.776024
 20
1.063670
 30
0.0
 10
28.172999
 20
0.522094
 30
0.0
 10
28.811968
 20
0.845842
 30
0.0
 10
29.450936
 20
1.169590
 30
0.0
  0
LWPOLYLINE
  5
105
100
AcDbEntity
  8
0
 62
7
100
AcDbPolyline
 90
13
 70
0
 10
72.567021
 20
1.428091
 30
0.0
 10
72.454276
 20
2.433641
 30
0.0
 10
72.341534
 20
3.439190
 30
0.0
 10
72.008139
 20
3.927570
 30
0.0
 10
71.674747
 20
4.415949
 30
0.0
 10
70.238747
 20
4.095494
 30
0.0
 10
68.802744
 20
3.775038
 30
0.0
 10
69.011825
 20
2.927242
 30
0.0
 10
69.220904
 20
2.079447
 30
0.0
 10
70.398132
 20
1.259495
 30
0.0
 10
71.575354
 20
0.439542
 30
0.0
 10
72.071190
 20
0.933817
 30
0.0
 10
72.567021
 20
1.428091
 30
0.0
  0
LWPOLYLINE
  5
106
100
AcDbEntity
  8
0
 62
7
100
AcDbPolyline
 90
15
 70
0
 10
21.295622
 20
2.888340
 30
0.0
 10
20.838660
 20
4.271880
 30
0.0
 10
20.381699
 20
5.655420
 30
0.0
 10
19.633241
 20
5.249287
 30
0.0
 10
18.884783
 20
4.843154
 30
0.0
 10
18.302404
 20
4.379537
 30
0.0
 10
17.720025
 20
3.915921
 30
0.0
 10
18.401228
 20
3.210449
 30
0.0
 10
19.082432
 20
2.504976
 30
0.0
 10
19.763636
 20
1.799504
 30
0.0
 10
20.444840
 20
1.094031
 30
0.0
 10
20.657304
 20
1.445444
 30
0.0
 10
20.869767
 20
1.796857
 30
0.0
 10
21.082694
 20
2.342598
 30
0.0
 10
21.295622
 20
2.888340
 30
0.0
  0
LWPOLYLINE
  5
107
100
AcDbEntity
  8
0
 62
7
100
AcDbPolyline
 90
13
 70
0
 10
39.988002
 20
1.770203
 30
0.0
 10
40.036155
 20
2.542888
 30
0.0
 10
40.084310
 20
3.315574
 30
0.0
 10
39.487210
 20
4.069379
 30
0.0
 10
38.890112
 20
4.823184
 30
0.0
 10
38.218824
 20
4.773116
 30
0.0
 10
37.547536
 20
4.723047
 30
0.0
 10
37.361546
 20
4.329057
 30
0.0
 10
37.175559
 20
3.935067
 30
0.0
 10
37.710872
 20
2.746713
 30
0.0
 10
38.246188
 20
1.558359
 30
0.0
 10
39.117095
 20
1.664281
 30
0.0
 10
39.988002
 20
1.770203
 30
0.0
  0
LWPOLYLINE
  5
108
100
AcDbEntity
  8
0
 62
7
100
AcDbPolyline
 90
17
 70
0
 10
47.134915
 20
2.240408
 30
0.0
 10
47.429138
 20
3.093263
 30
0.0
 10
47.723363
 20
3.946117
 30
0.0
 10
47.233880
 20
4.575420
 30
0.0
 10
46.744399
 20
5.204723
 30
0.0
 10
45.808499
 20
5.052621
 30
0.0
 10
44.872602
 20
4.900520
 30
0.0
 10
44.564562
 20
4.562218
 30
0.0
 10
44.256523
 20
4.223917
 30
0.0
 10
44.401511
 20
3.764627
 30
0.0
 10
44.546500
 20
3.305337
 30
0.0
 10
45.041352
 20
2.601575
 30
0.0
 10
45.536206
 20
1.897813
 30
0.0
 10
45.932773
 20
1.653025
 30
0.0
 10
46.329338
 20
1.408236
 30
0.0
 10
46.732125
 20
1.824322
 30
0.0
 10
47.134915
 20
2.240408
 30
0.0
  0
LWPOLYLINE
  5
109
100
AcDbEntity
  8
0
 62
7
100
AcDbPolyline
 90
19
 70
0
 10
64.450087
 20
3.413678
 30
0.0
 10
64.348721
 20
4.183588
 30
0.0
 10
64.247361
 20
4.953499
 30
0.0
 10
64.145995
 20
5.486305
 30
0.0
 10
64.044632
 20
6.019112
 30
0.0
 10
63.483594
 20
5.832057
 30
0.0
 10
62.922559
 20
5.645002
 30
0.0
 10
62.361524
 20
5.457947
 30
0.0
 10
61.800489
 20
5.270893
 30
0.0
 10
61.860464
 20
4.701720
 30
0.0
 10
61.920439
 20
4.132547
 30
0.0
 10
62.032789
 20
3.161654
 30
0.0
 10
62.145136
 20
2.190760
 30
0.0
 10
62.197511
 20
1.789040
 30
0.0
 10
62.249883
 20
1.387319
 30
0.0
 10
62.799934
 20
1.775357
 30
0.0
 10
63.349985
 20
2.163395
 30
0.0
 10
63.900036
 20
2.788536
 30
0.0
 10
64.450087
 20
3.413678
 30
0.0
  0
LWPOLYLINE
  5
10a
100
AcDbEntity
  8
0
 62
7
100
AcDbPolyline
 90
17
 70
0
 10
12.127468
 20
1.894332
 30
0.0
 10
12.945906
 20
2.079968
 30
0.0
 10
13.764345
 20
2.265604
 30
0.0
 10
13.967994
 20
2.321211
 30
0.0
 10
14.171643
 20
2.376818
 30
0.0
 10
13.957669
 20
3.072934
 30
0.0
 10
13.743695
 20
3.769051
 30
0.0
 10
12.896529
 20
4.731007
 30
0.0
 10
12.049364
 20
5.692963
 30
0.0
 10
11.675740
 20
5.772074
 30
0.0
 10
11.302117
 20
5.851184
 30
0.0
 10
11.052394
 20
4.967872
 30
0.0
 10
10.802672
 20
4.084560
 30
0.0
 10
10.751167
 20
2.859417
 30
0.0
 10
10.699663
 20
1.634275
 30
0.0
 10
11.413565
 20
1.764303
 30
0.0
 10
12.127468
 20
1.894332
 30
0.0
  0
ENDSEC
  0
SECTION
  2
OBJECTS
  0
DICTIONARY
  5
C
330
0
100
AcDbDictionary
  3
ACAD_GROUP
350
D
  3
ACAD_MLINESTYLE
350
17
  0
DICTIONARY
  5
D
330
C
100
AcDbDictionary
  0
DICTIONARY
  5
1A
330
C
100
AcDbDictionary
  0
DICTIONARY
  5
17
330
C
100
AcDbDictionary
  3
STANDARD
350
18
  0
DICTIONARY
  5
19
330
C
100
AcDbDictionary
  0
ENDSEC
  0
EOF
