999
DXF created by Inkscape
  0
SECTION
  2
HEADER
  9
$ACADVER
  1
AC1014
  9
$HANDSEED
  5
FFFF
  9
$MEASUREMENT
 70
     1
  0
ENDSEC
  0
SECTION
  2
TABLES
  0
TABLE
  2
VPORT
  5
8
330
0
100
AcDbSymbolTable
 70
     4
  0
VPORT
  5
2E
330
8
100
AcDbSymbolTableRecord
100
AcDbViewportTableRecord
  2
*ACTIVE
 70
     0
 10
0.0
 20
0.0
 11
1.0
 21
1.0
 12
210.0
 22
148.5
 13
0.0
 23
0.0
 14
10.0
 24
10.0
 15
10.0
 25
10.0
 16
0.0
 26
0.0
 36
1.0
 17
0.0
 27
0.0
 37
0.0
 40
341.0
 41
1.24
 42
50.0
 43
0.0
 44
0.0
 50
0.0
 51
0.0
 71
     0
 72
   100
 73
     1
 74
     3
 75
     0
 76
     0
 77
     0
 78
     0
  0
ENDTAB
  0
TABLE
  2
LTYPE
  5
5
330
0
100
AcDbSymbolTable
 70
     1
  0
LTYPE
  5
14
330
5
100
AcDbSymbolTableRecord
100
AcDbLinetypeTableRecord
  2
BYBLOCK
 70
     0
  3

 72
    65
 73
     0
 40
0.0
  0
LTYPE
  5
15
330
5
100
AcDbSymbolTableRecord
100
AcDbLinetypeTableRecord
  2
BYLAYER
 70
     0
  3

 72
    65
 73
     0
 40
0.0
  0
LTYPE
  5
16
330
5
100
AcDbSymbolTableRecord
100
AcDbLinetypeTableRecord
  2
CONTINUOUS
 70
     0
  3
Solid line
 72
    65
 73
     0
 40
0.0
  0
ENDTAB
  0
TABLE
  2
LAYER
  5
2
100
AcDbSymbolTable
 70
2
  0
LAYER
  5
50
100
AcDbSymbolTableRecord
100
AcDbLayerTableRecord
  2
0
 70
0
  6
CONTINUOUS
  0
LAYER
  5
51
100
AcDbSymbolTableRecord
100
AcDbLayerTableRecord
  2
Layer_1
 70
0
  6
CONTINUOUS
  0
ENDTAB
  0
TABLE
  2
STYLE
  5
3
330
0
100
AcDbSymbolTable
 70
     1
  0
STYLE
  5
11
330
3
100
AcDbSymbolTableRecord
100
AcDbTextStyleTableRecord
  2
STANDARD
 70
     0
 40
0.0
 41
1.0
 50
0.0
 71
     0
 42
2.5
  3
txt
  4

  0
ENDTAB
  0
TABLE
  2
VIEW
  5
6
330
0
100
AcDbSymbolTable
 70
     0
  0
ENDTAB
  0
TABLE
  2
UCS
  5
7
330
0
100
AcDbSymbolTable
 70
     0
  0
ENDTAB
  0
TABLE
  2
APPID
  5
9
330
0
100
AcDbSymbolTable
 70
     2
  0
APPID
  5
12
330
9
100
AcDbSymbolTableRecord
100
AcDbRegAppTableRecord
  2
ACAD
 70
     0
  0
ENDTAB
  0
TABLE
  2
DIMSTYLE
  5
A
330
0
100
AcDbSymbolTable
 70
     1
  0
DIMSTYLE
105
27
330
A
100
AcDbSymbolTableRecord
100
AcDbDimStyleTableRecord
  2
ISO-25
 70
     0
  3

  4

  5

  6

  7

 40
1.0
 41
2.5
 42
0.625
 43
3.75
 44
1.25
 45
0.0
 46
0.0
 47
0.0
 48
0.0
140
2.5
141
2.5
142
0.0
143
0.03937007874016
144
1.0
145
0.0
146
1.0
147
0.625
 71
     0
 72
     0
 73
     0
 74
     0
 75
     0
 76
     0
 77
     1
 78
     8
170
     0
171
     3
172
     1
173
     0
174
     0
175
     0
176
     0
177
     0
178
     0
270
     2
271
     2
272
     2
273
     2
274
     3
340
11
275
     0
280
     0
281
     0
282
     0
283
     0
284
     8
285
     0
286
     0
287
     3
288
     0
  0
ENDTAB
  0
TABLE
  2
BLOCK_RECORD
  5
1
330
0
100
AcDbSymbolTable
 70
     1
  0
BLOCK_RECORD
  5
1F
330
1
100
AcDbSymbolTableRecord
100
AcDbBlockTableRecord
  2
*MODEL_SPACE
  0
BLOCK_RECORD
  5
1B
330
1
100
AcDbSymbolTableRecord
100
AcDbBlockTableRecord
  2
*PAPER_SPACE
  0
ENDTAB
  0
ENDSEC
  0
SECTION
  2
BLOCKS
  0
BLOCK
  5
20
330
1F
100
AcDbEntity
  8
0
100
AcDbBlockBegin
  2
*MODEL_SPACE
 70
     0
 10
0.0
 20
0.0
 30
0.0
  3
*MODEL_SPACE
  1

  0
ENDBLK
  5
21
330
1F
100
AcDbEntity
  8
0
100
AcDbBlockEnd
  0
BLOCK
  5
1C
330
1B
100
AcDbEntity
 67
     1
  8
0
100
AcDbBlockBegin
  2
*PAPER_SPACE
  1

  0
ENDBLK
  5
1D
330
1B
100
AcDbEntity
 67
     1
  8
0
100
AcDbBlockEnd
  0
ENDSEC
  0
SECTION
  2
ENTITIES
  0
LWPOLYLINE
  5
100
100
AcDbEntity
  8
Layer_1
 62
7
100
AcDbPolyline
 90
27
 70
0
 10
7.582420
 20
15.672543
 30
0.0
 10
7.183539
 20
15.896966
 30
0.0
 10
6.899189
 20
16.275907
 30
0.0
 10
6.813080
 20
16.565945
 30
0.0
 10
6.799449
 20
17.289818
 30
0.0
 10
6.814548
 20
18.011940
 30
0.0
 10
6.897858
 20
18.317305
 30
0.0
 10
7.238288
 20
18.747495
 30
0.0
 10
7.754882
 20
18.974627
 30
0.0
 10
7.827038
 20
18.988174
 30
0.0
 10
7.899196
 20
19.001721
 30
0.0
 10
7.899196
 20
18.854062
 30
0.0
 10
7.899196
 20
18.706403
 30
0.0
 10
7.886722
 20
18.473344
 30
0.0
 10
7.840076
 20
18.411086
 30
0.0
 10
7.761582
 20
18.380154
 30
0.0
 10
7.655853
 20
18.305817
 30
0.0
 10
7.477717
 20
17.950669
 30
0.0
 10
7.448445
 20
17.154830
 30
0.0
 10
7.511392
 20
16.507102
 30
0.0
 10
7.766089
 20
16.230891
 30
0.0
 10
7.877815
 20
16.119921
 30
0.0
 10
7.897570
 20
15.867530
 30
0.0
 10
7.889555
 20
15.670257
 30
0.0
 10
7.868022
 20
15.589541
 30
0.0
 10
7.771268
 20
15.614941
 30
0.0
 10
7.582421
 20
15.672543
 30
0.0
  0
LWPOLYLINE
  5
101
100
AcDbEntity
  8
Layer_1
 62
7
100
AcDbPolyline
 90
25
 70
0
 10
8.065314
 20
15.877859
 30
0.0
 10
8.082586
 20
16.135953
 30
0.0
 10
8.191725
 20
16.231822
 30
0.0
 10
8.432337
 20
16.507215
 30
0.0
 10
8.480361
 20
17.289818
 30
0.0
 10
8.431397
 20
18.095731
 30
0.0
 10
8.201168
 20
18.369543
 30
0.0
 10
8.084578
 20
18.461069
 30
0.0
 10
8.066206
 20
18.716761
 30
0.0
 10
8.065641
 20
18.859227
 30
0.0
 10
8.065077
 20
19.001692
 30
0.0
 10
8.142942
 20
18.987299
 30
0.0
 10
8.220804
 20
18.972906
 30
0.0
 10
8.745577
 20
18.713431
 30
0.0
 10
9.089724
 20
18.231931
 30
0.0
 10
9.126345
 20
17.921035
 30
0.0
 10
9.141218
 20
17.289902
 30
0.0
 10
9.129393
 20
16.566877
 30
0.0
 10
9.045627
 20
16.272491
 30
0.0
 10
8.701948
 20
15.835216
 30
0.0
 10
8.200019
 20
15.614207
 30
0.0
 10
8.132536
 20
15.601789
 30
0.0
 10
8.065054
 20
15.589371
 30
0.0
 10
8.065054
 20
15.733671
 30
0.0
 10
8.065314
 20
15.877858
 30
0.0
  0
LWPOLYLINE
  5
102
100
AcDbEntity
  8
Layer_1
 62
7
100
AcDbPolyline
 90
27
 70
0
 10
10.175046
 20
15.645479
 30
0.0
 10
9.654795
 20
15.939497
 30
0.0
 10
9.353174
 20
16.436716
 30
0.0
 10
9.321162
 20
16.925440
 30
0.0
 10
9.413035
 20
17.372876
 30
0.0
 10
9.901582
 20
18.137924
 30
0.0
 10
10.407093
 20
18.861908
 30
0.0
 10
10.707411
 20
19.003640
 30
0.0
 10
10.935041
 20
18.794203
 30
0.0
 10
10.932501
 20
18.594248
 30
0.0
 10
10.684110
 20
18.207152
 30
0.0
 10
10.503486
 20
17.915674
 30
0.0
 10
10.473822
 20
17.640535
 30
0.0
 10
10.455844
 20
17.395961
 30
0.0
 10
10.333447
 20
17.309996
 30
0.0
 10
10.095667
 20
17.131519
 30
0.0
 10
9.950147
 20
16.891857
 30
0.0
 10
10.016481
 20
16.483198
 30
0.0
 10
10.331647
 20
16.209075
 30
0.0
 10
10.404548
 20
16.185087
 30
0.0
 10
10.477446
 20
16.161098
 30
0.0
 10
10.471350
 20
16.024502
 30
0.0
 10
10.465254
 20
15.887905
 30
0.0
 10
10.444454
 20
15.691817
 30
0.0
 10
10.411544
 20
15.603990
 30
0.0
 10
10.324922
 20
15.611893
 30
0.0
 10
10.175047
 20
15.645478
 30
0.0
  0
LWPOLYLINE
  5
103
100
AcDbEntity
  8
Layer_1
 62
7
100
AcDbPolyline
 90
23
 70
0
 10
10.598493
 20
15.874473
 30
0.0
 10
10.598493
 20
16.018124
 30
0.0
 10
10.598493
 20
16.161747
 30
0.0
 10
10.675017
 20
16.199790
 30
0.0
 10
10.751543
 20
16.237834
 30
0.0
 10
10.882662
 20
16.323121
 30
0.0
 10
10.982985
 20
16.421335
 30
0.0
 10
11.068614
 20
16.901423
 30
0.0
 10
10.765493
 20
17.273674
 30
0.0
 10
10.681995
 20
17.310504
 30
0.0
 10
10.598493
 20
17.347334
 30
0.0
 10
10.598493
 20
17.491606
 30
0.0
 10
10.598493
 20
17.635850
 30
0.0
 10
10.598493
 20
17.780095
 30
0.0
 10
10.598493
 20
17.924367
 30
0.0
 10
10.715585
 20
17.912231
 30
0.0
 10
10.832676
 20
17.900095
 30
0.0
 10
11.738813
 20
16.999949
 30
0.0
 10
11.138354
 20
15.746740
 30
0.0
 10
10.878782
 20
15.647341
 30
0.0
 10
10.621633
 20
15.587116
 30
0.0
 10
10.605292
 20
15.671499
 30
0.0
 10
10.598493
 20
15.874475
 30
0.0
  0
LWPOLYLINE
  5
104
100
AcDbEntity
  8
Layer_1
 62
7
100
AcDbPolyline
 90
23
 70
0
 10
14.037108
 20
15.645308
 30
0.0
 10
13.254061
 20
16.352501
 30
0.0
 10
13.355619
 20
17.479867
 30
0.0
 10
13.934862
 20
18.378630
 30
0.0
 10
14.426514
 20
18.982388
 30
0.0
 10
14.701561
 20
18.948438
 30
0.0
 10
14.834304
 20
18.668530
 30
0.0
 10
14.761113
 20
18.515876
 30
0.0
 10
14.585139
 20
18.248414
 30
0.0
 10
14.368497
 20
17.908111
 30
0.0
 10
14.335974
 20
17.618551
 30
0.0
 10
14.320226
 20
17.371690
 30
0.0
 10
14.217220
 20
17.311887
 30
0.0
 10
14.101917
 20
17.260494
 30
0.0
 10
13.991460
 20
17.173598
 30
0.0
 10
13.820498
 20
16.646266
 30
0.0
 10
14.170860
 20
16.225444
 30
0.0
 10
14.253413
 20
16.189039
 30
0.0
 10
14.335965
 20
16.152603
 30
0.0
 10
14.335965
 20
16.011266
 30
0.0
 10
14.335965
 20
15.869901
 30
0.0
 10
14.301591
 20
15.609184
 30
0.0
 10
14.037108
 20
15.645308
 30
0.0
  0
LWPOLYLINE
  5
105
100
AcDbEntity
  8
Layer_1
 62
7
100
AcDbPolyline
 90
25
 70
0
 10
14.460554
 20
15.872301
 30
0.0
 10
14.460554
 20
16.016741
 30
0.0
 10
14.460554
 20
16.161182
 30
0.0
 10
14.550141
 20
16.204560
 30
0.0
 10
14.639727
 20
16.247910
 30
0.0
 10
14.960271
 20
16.766578
 30
0.0
 10
14.629998
 20
17.272573
 30
0.0
 10
14.545278
 20
17.309968
 30
0.0
 10
14.460554
 20
17.347334
 30
0.0
 10
14.460554
 20
17.488700
 30
0.0
 10
14.460554
 20
17.630036
 30
0.0
 10
14.460554
 20
17.771402
 30
0.0
 10
14.460554
 20
17.912738
 30
0.0
 10
14.548803
 20
17.912540
 30
0.0
 10
14.637049
 20
17.912315
 30
0.0
 10
15.192880
 20
17.709538
 30
0.0
 10
15.559877
 20
17.212065
 30
0.0
 10
15.452069
 20
16.193694
 30
0.0
 10
14.616284
 20
15.610256
 30
0.0
 10
14.538420
 20
15.596710
 30
0.0
 10
14.460554
 20
15.583445
 30
0.0
 10
14.460554
 20
15.727886
 30
0.0
 10
14.460554
 20
15.872300
 30
0.0
 10
14.460554
 20
15.872328
 30
0.0
 10
14.460554
 20
15.872300
 30
0.0
  0
LWPOLYLINE
  5
106
100
AcDbEntity
  8
Layer_1
 62
7
100
AcDbPolyline
 90
13
 70
0
 10
16.506502
 20
15.631001
 30
0.0
 10
15.814829
 20
16.035198
 30
0.0
 10
15.815676
 20
16.539332
 30
0.0
 10
16.035110
 20
16.612457
 30
0.0
 10
16.313017
 20
16.417074
 30
0.0
 10
16.506026
 20
16.261880
 30
0.0
 10
16.659631
 20
16.183478
 30
0.0
 10
16.770078
 20
16.125453
 30
0.0
 10
16.785967
 20
15.872695
 30
0.0
 10
16.773860
 20
15.654847
 30
0.0
 10
16.734056
 20
15.591742
 30
0.0
 10
16.645760
 20
15.605289
 30
0.0
 10
16.506503
 20
15.630999
 30
0.0
  0
LWPOLYLINE
  5
107
100
AcDbEntity
  8
Layer_1
 62
7
100
AcDbPolyline
 90
23
 70
0
 10
16.912282
 20
15.893861
 30
0.0
 10
16.931642
 20
16.159940
 30
0.0
 10
17.043775
 20
16.272406
 30
0.0
 10
17.259638
 20
16.479190
 30
0.0
 10
17.333253
 20
16.735250
 30
0.0
 10
17.260761
 20
17.038161
 30
0.0
 10
17.053452
 20
17.255331
 30
0.0
 10
16.929929
 20
17.364043
 30
0.0
 10
16.910682
 20
17.605398
 30
0.0
 10
16.924877
 20
17.832559
 30
0.0
 10
17.008305
 20
17.871224
 30
0.0
 10
17.118716
 20
17.857112
 30
0.0
 10
17.247088
 20
17.823189
 30
0.0
 10
17.869650
 20
17.270400
 30
0.0
 10
17.946976
 20
16.408409
 30
0.0
 10
17.611815
 20
15.914887
 30
0.0
 10
17.077712
 20
15.628883
 30
0.0
 10
16.994197
 20
15.613643
 30
0.0
 10
16.910682
 20
15.598403
 30
0.0
 10
16.911529
 20
15.746146
 30
0.0
 10
16.912376
 20
15.893918
 30
0.0
 10
16.912376
 20
15.893918
 30
0.0
 10
16.912283
 20
15.893861
 30
0.0
  0
LWPOLYLINE
  5
108
100
AcDbEntity
  8
Layer_1
 62
7
100
AcDbPolyline
 90
15
 70
0
 10
20.868494
 20
15.687389
 30
0.0
 10
20.810236
 20
15.737482
 30
0.0
 10
20.751979
 20
15.787576
 30
0.0
 10
20.746081
 20
16.578421
 30
0.0
 10
20.740183
 20
17.369263
 30
0.0
 10
20.734284
 20
18.160106
 30
0.0
 10
20.728386
 20
18.950921
 30
0.0
 10
20.853682
 20
18.950921
 30
0.0
 10
20.978977
 20
18.950921
 30
0.0
 10
21.351708
 20
18.776818
 30
0.0
 10
21.394360
 20
17.300203
 30
0.0
 10
21.369157
 20
15.920390
 30
0.0
 10
21.201167
 20
15.635516
 30
0.0
 10
21.033761
 20
15.592928
 30
0.0
 10
20.868494
 20
15.687389
 30
0.0
  0
LWPOLYLINE
  5
109
100
AcDbEntity
  8
Layer_1
 62
7
100
AcDbPolyline
 90
13
 70
0
 10
22.405654
 20
15.636559
 30
0.0
 10
22.262379
 20
15.804820
 30
0.0
 10
22.274910
 20
16.030513
 30
0.0
 10
22.302991
 20
16.089160
 30
0.0
 10
22.331101
 20
16.147834
 30
0.0
 10
22.808402
 20
16.154042
 30
0.0
 10
23.285703
 20
16.160251
 30
0.0
 10
24.298265
 20
16.139085
 30
0.0
 10
24.585482
 20
15.982367
 30
0.0
 10
24.595501
 20
15.783118
 30
0.0
 10
24.473423
 20
15.631367
 30
0.0
 10
23.444424
 20
15.589599
 30
0.0
 10
22.405654
 20
15.636560
 30
0.0
  0
LWPOLYLINE
  5
10a
100
AcDbEntity
  8
Layer_1
 62
7
100
AcDbPolyline
 90
15
 70
0
 10
27.417149
 20
15.615675
 30
0.0
 10
27.351809
 20
15.651067
 30
0.0
 10
27.282185
 20
15.702769
 30
0.0
 10
27.220780
 20
16.003166
 30
0.0
 10
27.209520
 20
17.358455
 30
0.0
 10
27.209520
 20
18.154631
 30
0.0
 10
27.209520
 20
18.950808
 30
0.0
 10
27.330884
 20
18.950808
 30
0.0
 10
27.452248
 20
18.950808
 30
0.0
 10
27.792520
 20
18.777664
 30
0.0
 10
27.832432
 20
17.301416
 30
0.0
 10
27.820945
 20
16.026930
 30
0.0
 10
27.759753
 20
15.718037
 30
0.0
 10
27.597168
 20
15.617820
 30
0.0
 10
27.417147
 20
15.615676
 30
0.0
  0
LWPOLYLINE
  5
10b
100
AcDbEntity
  8
Layer_1
 62
7
100
AcDbPolyline
 90
65
 70
0
 10
29.481630
 20
15.646296
 30
0.0
 10
29.143195
 20
15.816702
 30
0.0
 10
28.849851
 20
16.124042
 30
0.0
 10
28.744855
 20
16.325746
 30
0.0
 10
28.725269
 20
16.639182
 30
0.0
 10
28.793784
 20
17.110832
 30
0.0
 10
29.029282
 20
17.394550
 30
0.0
 10
29.134587
 20
17.480458
 30
0.0
 10
29.105301
 20
17.521437
 30
0.0
 10
29.025142
 20
17.592105
 30
0.0
 10
28.931805
 20
17.723875
 30
0.0
 10
28.829855
 20
18.088224
 30
0.0
 10
28.885975
 20
18.466712
 30
0.0
 10
29.222121
 20
18.826969
 30
0.0
 10
29.695603
 20
18.992351
 30
0.0
 10
29.770431
 20
18.950328
 30
0.0
 10
29.784232
 20
18.722405
 30
0.0
 10
29.771588
 20
18.510682
 30
0.0
 10
29.725623
 20
18.452488
 30
0.0
 10
29.550289
 20
18.311660
 30
0.0
 10
29.452003
 20
18.060454
 30
0.0
 10
29.688872
 20
17.727685
 30
0.0
 10
30.103908
 20
17.796970
 30
0.0
 10
30.224490
 20
18.117575
 30
0.0
 10
30.034027
 20
18.402281
 30
0.0
 10
29.927522
 20
18.500833
 30
0.0
 10
29.909064
 20
18.732792
 30
0.0
 10
29.923768
 20
18.958371
 30
0.0
 10
30.023006
 20
18.991929
 30
0.0
 10
30.346229
 20
18.891091
 30
0.0
 10
30.643937
 20
18.696187
 30
0.0
 10
30.861316
 20
18.122487
 30
0.0
 10
30.641358
 20
17.583977
 30
0.0
 10
30.587007
 20
17.533883
 30
0.0
 10
30.532657
 20
17.483760
 30
0.0
 10
30.613500
 20
17.414559
 30
0.0
 10
30.694345
 20
17.345358
 30
0.0
 10
30.963799
 20
16.876728
 30
0.0
 10
30.905569
 20
16.282086
 30
0.0
 10
30.582181
 20
15.846758
 30
0.0
 10
30.043772
 20
15.614010
 30
0.0
 10
29.976290
 20
15.601593
 30
0.0
 10
29.908805
 20
15.589175
 30
0.0
 10
29.908805
 20
15.734520
 30
0.0
 10
29.908805
 20
15.879836
 30
0.0
 10
29.923960
 20
16.130901
 30
0.0
 10
30.005912
 20
16.207468
 30
0.0
 10
30.224911
 20
16.391335
 30
0.0
 10
30.324067
 20
16.651290
 30
0.0
 10
30.179066
 20
17.022187
 30
0.0
 10
29.802884
 20
17.165132
 30
0.0
 10
29.653504
 20
17.135414
 30
0.0
 10
29.510126
 20
17.023937
 30
0.0
 10
29.394548
 20
16.873456
 30
0.0
 10
29.368922
 20
16.690265
 30
0.0
 10
29.438707
 20
16.398701
 30
0.0
 10
29.649208
 20
16.223752
 30
0.0
 10
29.718570
 20
16.194768
 30
0.0
 10
29.787932
 20
16.165812
 30
0.0
 10
29.781808
 20
16.027974
 30
0.0
 10
29.775683
 20
15.890137
 30
0.0
 10
29.754827
 20
15.692299
 30
0.0
 10
29.721900
 20
15.603738
 30
0.0
 10
29.634183
 20
15.611922
 30
0.0
 10
29.481630
 20
15.646297
 30
0.0
  0
LWPOLYLINE
  5
10c
100
AcDbEntity
  8
Layer_1
 62
7
100
AcDbPolyline
 90
15
 70
0
 10
33.327617
 20
15.630493
 30
0.0
 10
32.661042
 20
16.021990
 30
0.0
 10
32.586360
 20
16.569785
 30
0.0
 10
32.744534
 20
16.678778
 30
0.0
 10
32.935404
 20
16.689221
 30
0.0
 10
33.031046
 20
16.613698
 30
0.0
 10
33.161187
 20
16.463810
 30
0.0
 10
33.306772
 20
16.305483
 30
0.0
 10
33.439557
 20
16.209725
 30
0.0
 10
33.546488
 20
16.126780
 30
0.0
 10
33.563224
 20
15.872837
 30
0.0
 10
33.554080
 20
15.672431
 30
0.0
 10
33.532095
 20
15.591743
 30
0.0
 10
33.459186
 20
15.605007
 30
0.0
 10
33.327617
 20
15.630492
 30
0.0
  0
LWPOLYLINE
  5
10d
100
AcDbEntity
  8
Layer_1
 62
7
100
AcDbPolyline
 90
31
 70
0
 10
33.729337
 20
15.879864
 30
0.0
 10
33.744577
 20
16.131351
 30
0.0
 10
33.827712
 20
16.207946
 30
0.0
 10
34.081624
 20
16.511222
 30
0.0
 10
34.038280
 20
16.907011
 30
0.0
 10
33.847425
 20
17.061951
 30
0.0
 10
33.596445
 20
17.124237
 30
0.0
 10
33.217172
 20
17.345612
 30
0.0
 10
33.493845
 20
17.646969
 30
0.0
 10
33.846135
 20
17.845851
 30
0.0
 10
33.890498
 20
18.181358
 30
0.0
 10
33.843479
 20
18.294839
 30
0.0
 10
33.789050
 20
18.355432
 30
0.0
 10
33.742475
 20
18.441962
 30
0.0
 10
33.729351
 20
18.690542
 30
0.0
 10
33.729351
 20
18.846668
 30
0.0
 10
33.729351
 20
19.002765
 30
0.0
 10
33.796834
 20
18.989501
 30
0.0
 10
33.864316
 20
18.976236
 30
0.0
 10
34.531407
 20
18.362346
 30
0.0
 10
34.277325
 20
17.538314
 30
0.0
 10
34.208556
 20
17.468718
 30
0.0
 10
34.214596
 20
17.430138
 30
0.0
 10
34.478841
 20
17.243590
 30
0.0
 10
34.678961
 20
16.989871
 30
0.0
 10
34.624145
 20
16.139677
 30
0.0
 10
33.864304
 20
15.614123
 30
0.0
 10
33.796822
 20
15.601706
 30
0.0
 10
33.729340
 20
15.589288
 30
0.0
 10
33.729340
 20
15.734633
 30
0.0
 10
33.729337
 20
15.879864
 30
0.0
  0
LWPOLYLINE
  5
10e
100
AcDbEntity
  8
Layer_1
 62
7
100
AcDbPolyline
 90
15
 70
0
 10
36.324808
 20
15.637265
 30
0.0
 10
36.163510
 20
15.934925
 30
0.0
 10
36.139267
 20
17.383176
 30
0.0
 10
36.138702
 20
18.167020
 30
0.0
 10
36.138138
 20
18.950836
 30
0.0
 10
36.257529
 20
18.950554
 30
0.0
 10
36.376920
 20
18.950273
 30
0.0
 10
36.753506
 20
18.758530
 30
0.0
 10
36.802579
 20
17.294502
 30
0.0
 10
36.774752
 20
15.934953
 30
0.0
 10
36.609158
 20
15.633287
 30
0.0
 10
36.459552
 20
15.591150
 30
0.0
 10
36.324997
 20
15.637378
 30
0.0
 10
36.324997
 20
15.637351
 30
0.0
 10
36.324808
 20
15.637265
 30
0.0
  0
LWPOLYLINE
  5
10f
100
AcDbEntity
  8
Layer_1
 62
7
100
AcDbPolyline
 90
25
 70
0
 10
22.558427
 20
16.311099
 30
0.0
 10
22.718074
 20
16.467620
 30
0.0
 10
23.101906
 20
16.818591
 30
0.0
 10
23.709476
 20
17.437730
 30
0.0
 10
23.852171
 20
17.867922
 30
0.0
 10
23.797631
 20
18.147095
 30
0.0
 10
23.611489
 20
18.307172
 30
0.0
 10
23.232851
 20
18.325517
 30
0.0
 10
22.960430
 20
17.954959
 30
0.0
 10
22.865823
 20
17.770922
 30
0.0
 10
22.761515
 20
17.689783
 30
0.0
 10
22.413789
 20
17.764770
 30
0.0
 10
22.368058
 20
18.178000
 30
0.0
 10
22.765699
 20
18.724467
 30
0.0
 10
23.449789
 20
18.926679
 30
0.0
 10
24.223195
 20
18.651681
 30
0.0
 10
24.508614
 20
17.912795
 30
0.0
 10
24.375380
 20
17.389019
 30
0.0
 10
23.825705
 20
16.747048
 30
0.0
 10
23.597646
 20
16.520142
 30
0.0
 10
23.369588
 20
16.293207
 30
0.0
 10
23.166796
 20
16.293207
 30
0.0
 10
22.964007
 20
16.293207
 30
0.0
 10
22.677568
 20
16.298569
 30
0.0
 10
22.558427
 20
16.311100
 30
0.0
  0
LWPOLYLINE
  5
110
100
AcDbEntity
  8
Layer_1
 62
7
100
AcDbPolyline
 90
33
 70
0
 10
15.849842
 20
17.100982
 30
0.0
 10
15.777853
 20
17.194625
 30
0.0
 10
15.747909
 20
17.276637
 30
0.0
 10
15.786198
 20
17.563798
 30
0.0
 10
15.878248
 20
18.150624
 30
0.0
 10
15.943415
 20
18.550731
 30
0.0
 10
16.008585
 20
18.950836
 30
0.0
 10
16.408300
 20
18.950836
 30
0.0
 10
16.808018
 20
18.950836
 30
0.0
 10
17.491437
 20
18.938136
 30
0.0
 10
17.702023
 20
18.874156
 30
0.0
 10
17.795753
 20
18.671436
 30
0.0
 10
17.725961
 20
18.460842
 30
0.0
 10
17.559065
 20
18.400954
 30
0.0
 10
17.081834
 20
18.375837
 30
0.0
 10
16.795092
 20
18.368781
 30
0.0
 10
16.508348
 20
18.361725
 30
0.0
 10
16.484359
 20
18.231480
 30
0.0
 10
16.460370
 20
18.101206
 30
0.0
 10
16.415798
 20
17.793527
 30
0.0
 10
16.485044
 20
17.780827
 30
0.0
 10
16.569914
 20
17.815147
 30
0.0
 10
16.671918
 20
17.845373
 30
0.0
 10
16.729017
 20
17.858919
 30
0.0
 10
16.786119
 20
17.872466
 30
0.0
 10
16.786119
 20
17.739709
 30
0.0
 10
16.786119
 20
17.606951
 30
0.0
 10
16.769806
 20
17.372481
 30
0.0
 10
16.659992
 20
17.316206
 30
0.0
 10
16.514724
 20
17.255472
 30
0.0
 10
16.342563
 20
17.144897
 30
0.0
 10
16.063955
 20
17.005959
 30
0.0
 10
15.849842
 20
17.100983
 30
0.0
  0
LWPOLYLINE
  5
111
100
AcDbEntity
  8
Layer_1
 62
7
100
AcDbPolyline
 90
15
 70
0
 10
32.739914
 20
18.133352
 30
0.0
 10
32.655177
 20
18.344566
 30
0.0
 10
32.770473
 20
18.606892
 30
0.0
 10
33.047686
 20
18.844355
 30
0.0
 10
33.414482
 20
18.979115
 30
0.0
 10
33.488856
 20
18.991251
 30
0.0
 10
33.563227
 20
19.003386
 30
0.0
 10
33.563227
 20
18.857563
 30
0.0
 10
33.563227
 20
18.711767
 30
0.0
 10
33.548382
 20
18.459545
 30
0.0
 10
33.462846
 20
18.394943
 30
0.0
 10
33.366295
 20
18.335648
 30
0.0
 10
33.275132
 20
18.228432
 30
0.0
 10
33.015713
 20
18.035081
 30
0.0
 10
32.739914
 20
18.133352
 30
0.0
  0
LWPOLYLINE
  5
112
100
AcDbEntity
  8
Layer_1
 62
7
100
AcDbPolyline
 90
15
 70
0
 10
20.176281
 20
18.473542
 30
0.0
 10
20.083426
 20
18.645105
 30
0.0
 10
20.139243
 20
18.820873
 30
0.0
 10
20.243413
 20
18.910281
 30
0.0
 10
20.413556
 20
18.942736
 30
0.0
 10
20.510092
 20
18.948945
 30
0.0
 10
20.606633
 20
18.955154
 30
0.0
 10
20.606633
 20
18.819066
 30
0.0
 10
20.606633
 20
18.682951
 30
0.0
 10
20.606633
 20
18.546863
 30
0.0
 10
20.606633
 20
18.410747
 30
0.0
 10
20.514679
 20
18.410747
 30
0.0
 10
20.422724
 20
18.410747
 30
0.0
 10
20.272670
 20
18.428245
 30
0.0
 10
20.176281
 20
18.473542
 30
0.0
  0
LWPOLYLINE
  5
113
100
AcDbEntity
  8
Layer_1
 62
7
100
AcDbPolyline
 90
15
 70
0
 10
26.613799
 20
18.486806
 30
0.0
 10
26.565261
 20
18.578417
 30
0.0
 10
26.545082
 20
18.692066
 30
0.0
 10
26.635362
 20
18.882341
 30
0.0
 10
26.886543
 20
18.950695
 30
0.0
 10
26.964978
 20
18.950695
 30
0.0
 10
27.043413
 20
18.950695
 30
0.0
 10
27.043413
 20
18.815736
 30
0.0
 10
27.043413
 20
18.680779
 30
0.0
 10
27.043413
 20
18.545819
 30
0.0
 10
27.043413
 20
18.410860
 30
0.0
 10
26.953195
 20
18.410860
 30
0.0
 10
26.862977
 20
18.410860
 30
0.0
 10
26.710055
 20
18.429487
 30
0.0
 10
26.613800
 20
18.486806
 30
0.0
  0
LWPOLYLINE
  5
114
100
AcDbEntity
  8
Layer_1
 62
7
100
AcDbPolyline
 90
13
 70
0
 10
35.556548
 20
18.493862
 30
0.0
 10
35.501148
 20
18.795727
 30
0.0
 10
35.826477
 20
18.950638
 30
0.0
 10
35.919915
 20
18.950638
 30
0.0
 10
36.013353
 20
18.950638
 30
0.0
 10
36.013353
 20
18.815680
 30
0.0
 10
36.013353
 20
18.680722
 30
0.0
 10
36.013353
 20
18.545762
 30
0.0
 10
36.013353
 20
18.410804
 30
0.0
 10
35.919915
 20
18.410804
 30
0.0
 10
35.826477
 20
18.410804
 30
0.0
 10
35.664117
 20
18.430560
 30
0.0
 10
35.556548
 20
18.493863
 30
0.0
  0
LWPOLYLINE
  5
115
100
AcDbEntity
  8
Layer_1
 62
7
100
AcDbPolyline
 90
29
 70
0
 10
13.764145
 20
21.296441
 30
0.0
 10
13.229711
 20
21.534326
 30
0.0
 10
12.920651
 20
21.885326
 30
0.0
 10
12.853623
 20
22.068912
 30
0.0
 10
12.879673
 20
22.238217
 30
0.0
 10
12.949633
 20
22.382602
 30
0.0
 10
13.077920
 20
22.465970
 30
0.0
 10
13.337661
 20
22.491370
 30
0.0
 10
13.596796
 20
22.269799
 30
0.0
 10
13.944382
 20
21.972900
 30
0.0
 10
14.335982
 20
21.882814
 30
0.0
 10
14.674446
 20
21.944960
 30
0.0
 10
14.972986
 20
22.142713
 30
0.0
 10
15.199427
 20
22.555011
 30
0.0
 10
15.249588
 20
24.085474
 30
0.0
 10
15.278867
 20
25.437150
 30
0.0
 10
15.346081
 20
25.753238
 30
0.0
 10
15.535105
 20
25.862007
 30
0.0
 10
15.756263
 20
25.840840
 30
0.0
 10
15.964170
 20
25.537452
 30
0.0
 10
15.997083
 20
24.151374
 30
0.0
 10
15.984552
 20
23.066511
 30
0.0
 10
15.951834
 20
22.500260
 30
0.0
 10
15.677260
 20
21.859926
 30
0.0
 10
15.093842
 20
21.413084
 30
0.0
 10
14.776085
 20
21.285350
 30
0.0
 10
14.387875
 20
21.249310
 30
0.0
 10
14.029207
 20
21.253826
 30
0.0
 10
13.764146
 20
21.296441
 30
0.0
  0
LWPOLYLINE
  5
116
100
AcDbEntity
  8
Layer_1
 62
7
100
AcDbPolyline
 90
37
 70
0
 10
3.082009
 20
22.551822
 30
0.0
 10
2.061461
 20
23.081272
 30
0.0
 10
1.670566
 20
24.227488
 30
0.0
 10
1.866185
 20
25.060016
 30
0.0
 10
2.425863
 20
25.662588
 30
0.0
 10
3.105797
 20
25.882242
 30
0.0
 10
3.767213
 20
25.783803
 30
0.0
 10
4.075648
 20
25.581930
 30
0.0
 10
4.120197
 20
25.202651
 30
0.0
 10
4.120197
 20
25.021408
 30
0.0
 10
4.120197
 20
24.840193
 30
0.0
 10
4.052716
 20
24.897089
 30
0.0
 10
3.985233
 20
24.953985
 30
0.0
 10
3.695046
 20
25.128031
 30
0.0
 10
3.351938
 20
25.179791
 30
0.0
 10
2.844333
 20
25.054909
 30
0.0
 10
2.516298
 20
24.660701
 30
0.0
 10
2.424830
 20
24.087337
 30
0.0
 10
2.651268
 20
23.565282
 30
0.0
 10
2.954168
 20
23.330417
 30
0.0
 10
3.350795
 20
23.259129
 30
0.0
 10
3.710004
 20
23.317492
 30
0.0
 10
4.005997
 20
23.510418
 30
0.0
 10
4.063099
 20
23.563843
 30
0.0
 10
4.120197
 20
23.617269
 30
0.0
 10
4.120197
 20
23.426062
 30
0.0
 10
4.120197
 20
23.234856
 30
0.0
 10
4.120197
 20
23.043623
 30
0.0
 10
4.120197
 20
22.852418
 30
0.0
 10
4.024064
 20
22.791458
 30
0.0
 10
3.927932
 20
22.730469
 30
0.0
 10
3.735783
 20
22.636743
 30
0.0
 10
3.543802
 20
22.582556
 30
0.0
 10
3.389999
 20
22.561390
 30
0.0
 10
3.289645
 20
22.546714
 30
0.0
 10
3.202959
 20
22.543892
 30
0.0
 10
3.082009
 20
22.551822
 30
0.0
  0
LWPOLYLINE
  5
117
100
AcDbEntity
  8
Layer_1
 62
7
100
AcDbPolyline
 90
19
 70
0
 10
4.542922
 20
22.572142
 30
0.0
 10
4.320250
 20
22.866105
 30
0.0
 10
4.295104
 20
24.285965
 30
0.0
 10
4.301088
 20
24.978679
 30
0.0
 10
4.307071
 20
25.671395
 30
0.0
 10
4.357408
 20
25.724961
 30
0.0
 10
4.407748
 20
25.778498
 30
0.0
 10
4.669196
 20
25.891188
 30
0.0
 10
4.926292
 20
25.757838
 30
0.0
 10
4.980047
 20
25.693973
 30
0.0
 10
5.033804
 20
25.630076
 30
0.0
 10
5.033804
 20
24.935048
 30
0.0
 10
5.033804
 20
24.240020
 30
0.0
 10
5.000502
 20
22.866274
 30
0.0
 10
4.796280
 20
22.574710
 30
0.0
 10
4.674640
 20
22.556366
 30
0.0
 10
4.542921
 20
22.572170
 30
0.0
 10
4.542921
 20
22.572170
 30
0.0
 10
4.542921
 20
22.572142
 30
0.0
  0
LWPOLYLINE
  5
118
100
AcDbEntity
  8
Layer_1
 62
7
100
AcDbPolyline
 90
37
 70
0
 10
7.749999
 20
22.564804
 30
0.0
 10
6.861001
 20
23.100265
 30
0.0
 10
6.455096
 20
24.074778
 30
0.0
 10
6.551565
 20
24.815527
 30
0.0
 10
6.944731
 20
25.412906
 30
0.0
 10
7.265592
 20
25.673878
 30
0.0
 10
7.612839
 20
25.820887
 30
0.0
 10
7.936214
 20
25.872618
 30
0.0
 10
7.982260
 20
25.575072
 30
0.0
 10
7.967189
 20
25.301937
 30
0.0
 10
7.868073
 20
25.237929
 30
0.0
 10
7.460612
 20
25.021859
 30
0.0
 10
7.215950
 20
24.650287
 30
0.0
 10
7.242704
 20
24.568950
 30
0.0
 10
7.584973
 20
24.556814
 30
0.0
 10
7.783625
 20
24.556814
 30
0.0
 10
7.982282
 20
24.556814
 30
0.0
 10
7.982282
 20
24.411469
 30
0.0
 10
7.982282
 20
24.266125
 30
0.0
 10
7.982282
 20
24.120780
 30
0.0
 10
7.982282
 20
23.975436
 30
0.0
 10
7.785025
 20
23.975436
 30
0.0
 10
7.587769
 20
23.975436
 30
0.0
 10
7.251992
 20
23.962736
 30
0.0
 10
7.193259
 20
23.890628
 30
0.0
 10
7.285774
 20
23.630222
 30
0.0
 10
7.487078
 20
23.376927
 30
0.0
 10
7.633286
 20
23.284584
 30
0.0
 10
7.800356
 20
23.217754
 30
0.0
 10
7.891319
 20
23.193483
 30
0.0
 10
7.982282
 20
23.169212
 30
0.0
 10
7.982282
 20
23.007385
 30
0.0
 10
7.982282
 20
22.845587
 30
0.0
 10
7.973138
 20
22.618370
 30
0.0
 10
7.951153
 20
22.526535
 30
0.0
 10
7.879228
 20
22.539517
 30
0.0
 10
7.749999
 20
22.564804
 30
0.0
  0
LWPOLYLINE
  5
119
100
AcDbEntity
  8
Layer_1
 62
7
100
AcDbPolyline
 90
15
 70
0
 10
8.148369
 20
22.843725
 30
0.0
 10
8.148369
 20
23.006482
 30
0.0
 10
8.148369
 20
23.169213
 30
0.0
 10
8.243422
 20
23.194613
 30
0.0
 10
8.338475
 20
23.220013
 30
0.0
 10
8.535619
 20
23.309167
 30
0.0
 10
8.747380
 20
23.477793
 30
0.0
 10
9.086779
 20
23.687456
 30
0.0
 10
9.353735
 20
23.579788
 30
0.0
 10
9.279471
 20
22.979078
 30
0.0
 10
8.304098
 20
22.544287
 30
0.0
 10
8.226234
 20
22.531305
 30
0.0
 10
8.148369
 20
22.518323
 30
0.0
 10
8.148369
 20
22.681053
 30
0.0
 10
8.148369
 20
22.843726
 30
0.0
  0
LWPOLYLINE
  5
11a
100
AcDbEntity
  8
Layer_1
 62
7
100
AcDbPolyline
 90
31
 70
0
 10
10.152900
 20
22.551201
 30
0.0
 10
9.975553
 20
22.680968
 30
0.0
 10
9.892526
 20
22.900989
 30
0.0
 10
10.135617
 20
23.369420
 30
0.0
 10
10.692755
 20
24.188570
 30
0.0
 10
10.732846
 20
24.243208
 30
0.0
 10
10.772934
 20
24.297846
 30
0.0
 10
10.579979
 20
24.574311
 30
0.0
 10
10.387025
 20
24.850804
 30
0.0
 10
10.075586
 20
25.326151
 30
0.0
 10
10.005263
 20
25.550152
 30
0.0
 10
10.114437
 20
25.787473
 30
0.0
 10
10.364638
 20
25.885743
 30
0.0
 10
10.604591
 20
25.766926
 30
0.0
 10
10.955242
 20
25.252661
 30
0.0
 10
11.134656
 20
24.967165
 30
0.0
 10
11.221408
 20
24.849083
 30
0.0
 10
11.303165
 20
24.961294
 30
0.0
 10
11.470573
 20
25.229518
 30
0.0
 10
11.830864
 20
25.760124
 30
0.0
 10
12.078912
 20
25.885743
 30
0.0
 10
12.324720
 20
25.784762
 30
0.0
 10
12.425707
 20
25.538947
 30
0.0
 10
12.243865
 20
25.160262
 30
0.0
 10
11.460190
 20
24.001174
 30
0.0
 10
10.668665
 20
22.884816
 30
0.0
 10
10.374279
 20
22.564185
 30
0.0
 10
10.288017
 20
22.535961
 30
0.0
 10
10.249694
 20
22.527495
 30
0.0
 10
10.219536
 20
22.536808
 30
0.0
 10
10.152900
 20
22.551201
 30
0.0
  0
LWPOLYLINE
  5
11b
100
AcDbEntity
  8
Layer_1
 62
7
100
AcDbPolyline
 90
13
 70
0
 10
12.021458
 20
22.572368
 30
0.0
 10
11.669090
 20
23.026633
 30
0.0
 10
11.387519
 20
23.518209
 30
0.0
 10
11.443901
 20
23.634060
 30
0.0
 10
11.579458
 20
23.839376
 30
0.0
 10
11.754953
 20
24.060582
 30
0.0
 10
11.844255
 20
24.031513
 30
0.0
 10
12.256480
 20
23.449883
 30
0.0
 10
12.550288
 20
22.933923
 30
0.0
 10
12.474309
 20
22.713029
 30
0.0
 10
12.296189
 20
22.568022
 30
0.0
 10
12.146150
 20
22.528172
 30
0.0
 10
12.021458
 20
22.572368
 30
0.0
  0
LWPOLYLINE
  5
11c
100
AcDbEntity
  8
Layer_1
 62
7
100
AcDbPolyline
 90
39
 70
0
 10
13.803141
 20
22.587045
 30
0.0
 10
13.371842
 20
22.789229
 30
0.0
 10
13.029028
 20
23.084799
 30
0.0
 10
12.776337
 20
23.546373
 30
0.0
 10
12.682699
 20
24.100066
 30
0.0
 10
12.728469
 20
24.700634
 30
0.0
 10
12.952125
 20
25.187806
 30
0.0
 10
13.494839
 20
25.691827
 30
0.0
 10
14.235079
 20
25.861613
 30
0.0
 10
14.555116
 20
25.842985
 30
0.0
 10
14.816465
 20
25.739128
 30
0.0
 10
14.939585
 20
25.676221
 30
0.0
 10
15.062705
 20
25.613312
 30
0.0
 10
15.068688
 20
25.421882
 30
0.0
 10
15.074671
 20
25.230423
 30
0.0
 10
15.072413
 20
24.947296
 30
0.0
 10
15.043666
 20
24.847531
 30
0.0
 10
15.013237
 20
24.859102
 30
0.0
 10
15.000593
 20
24.887042
 30
0.0
 10
14.782706
 20
25.051775
 30
0.0
 10
14.388078
 20
25.166639
 30
0.0
 10
14.151231
 20
25.162688
 30
0.0
 10
13.921587
 20
25.067466
 30
0.0
 10
13.493620
 20
24.626411
 30
0.0
 10
13.426072
 20
23.995926
 30
0.0
 10
13.591796
 20
23.609535
 30
0.0
 10
13.921135
 20
23.338545
 30
0.0
 10
14.151189
 20
23.245722
 30
0.0
 10
14.388078
 20
23.241207
 30
0.0
 10
14.782749
 20
23.355338
 30
0.0
 10
15.000593
 20
23.520156
 30
0.0
 10
15.012785
 20
23.548378
 30
0.0
 10
15.042116
 20
23.559949
 30
0.0
 10
15.072015
 20
23.463119
 30
0.0
 10
15.083643
 20
23.214199
 30
0.0
 10
15.067556
 20
22.910104
 30
0.0
 10
14.985632
 20
22.776387
 30
0.0
 10
14.469332
 20
22.550327
 30
0.0
 10
13.803141
 20
22.587045
 30
0.0
  0
LWPOLYLINE
  5
11d
100
AcDbEntity
  8
Layer_1
 62
7
100
AcDbPolyline
 90
21
 70
0
 10
16.672725
 20
22.554616
 30
0.0
 10
16.582680
 20
22.596189
 30
0.0
 10
16.496233
 20
22.675746
 30
0.0
 10
16.424097
 20
22.970471
 30
0.0
 10
16.412356
 20
24.232146
 30
0.0
 10
16.412356
 20
24.957005
 30
0.0
 10
16.412356
 20
25.681892
 30
0.0
 10
16.463323
 20
25.732863
 30
0.0
 10
16.514289
 20
25.783832
 30
0.0
 10
16.765340
 20
25.887830
 30
0.0
 10
17.016394
 20
25.783832
 30
0.0
 10
17.067360
 20
25.732863
 30
0.0
 10
17.118324
 20
25.681892
 30
0.0
 10
17.118324
 20
24.947437
 30
0.0
 10
17.118324
 20
24.213010
 30
0.0
 10
17.118324
 20
23.478585
 30
0.0
 10
17.118324
 20
22.744128
 30
0.0
 10
17.071607
 20
22.701853
 30
0.0
 10
17.024888
 20
22.659575
 30
0.0
 10
16.861908
 20
22.563677
 30
0.0
 10
16.672726
 20
22.554617
 30
0.0
  0
LWPOLYLINE
  5
11e
100
AcDbEntity
  8
Layer_1
 62
7
100
AcDbPolyline
 90
19
 70
0
 10
17.837265
 20
22.582838
 30
0.0
 10
17.645517
 20
22.912954
 30
0.0
 10
17.624492
 20
24.321722
 30
0.0
 10
17.630955
 20
25.003571
 30
0.0
 10
17.637418
 20
25.685392
 30
0.0
 10
17.695677
 20
25.735486
 30
0.0
 10
17.753936
 20
25.785581
 30
0.0
 10
18.017568
 20
25.887435
 30
0.0
 10
18.256642
 20
25.757981
 30
0.0
 10
18.310397
 20
25.694113
 30
0.0
 10
18.364151
 20
25.630219
 30
0.0
 10
18.364151
 20
24.935189
 30
0.0
 10
18.364151
 20
24.240160
 30
0.0
 10
18.329599
 20
22.859924
 30
0.0
 10
18.110050
 20
22.568050
 30
0.0
 10
18.015567
 20
22.536018
 30
0.0
 10
17.973824
 20
22.523601
 30
0.0
 10
17.931984
 20
22.541663
 30
0.0
 10
17.837265
 20
22.582839
 30
0.0
  0
LWPOLYLINE
  5
11f
100
AcDbEntity
  8
Layer_1
 62
7
100
AcDbPolyline
 90
33
 70
0
 10
20.722425
 20
22.567598
 30
0.0
 10
20.249273
 20
22.714045
 30
0.0
 10
19.840679
 20
23.022230
 30
0.0
 10
19.417802
 20
24.522128
 30
0.0
 10
20.307779
 20
25.754171
 30
0.0
 10
20.575028
 20
25.845976
 30
0.0
 10
20.959617
 20
25.864886
 30
0.0
 10
21.319226
 20
25.848799
 30
0.0
 10
21.520239
 20
25.787246
 30
0.0
 10
21.770864
 20
25.595392
 30
0.0
 10
21.810931
 20
25.209368
 30
0.0
 10
21.810931
 20
25.022905
 30
0.0
 10
21.810931
 20
24.836412
 30
0.0
 10
21.754637
 20
24.892686
 30
0.0
 10
21.698343
 20
24.948991
 30
0.0
 10
21.404955
 20
25.133846
 30
0.0
 10
20.993811
 20
25.172114
 30
0.0
 10
20.719948
 20
25.138164
 30
0.0
 10
20.537007
 20
25.030100
 30
0.0
 10
20.285243
 20
24.759618
 30
0.0
 10
20.155545
 20
24.441018
 30
0.0
 10
20.218031
 20
23.805284
 30
0.0
 10
20.619564
 20
23.358216
 30
0.0
 10
21.198769
 20
23.263502
 30
0.0
 10
21.706714
 20
23.493908
 30
0.0
 10
21.758824
 20
23.546035
 30
0.0
 10
21.810931
 20
23.598133
 30
0.0
 10
21.810931
 20
23.409298
 30
0.0
 10
21.810931
 20
23.220464
 30
0.0
 10
21.771405
 20
22.834016
 30
0.0
 10
21.520239
 20
22.663131
 30
0.0
 10
21.153546
 20
22.570195
 30
0.0
 10
20.722425
 20
22.567599
 30
0.0
  0
LWPOLYLINE
  5
120
100
AcDbEntity
  8
Layer_1
 62
7
100
AcDbPolyline
 90
17
 70
0
 10
22.232982
 20
22.587354
 30
0.0
 10
22.131671
 20
22.649021
 30
0.0
 10
22.063367
 20
22.723554
 30
0.0
 10
22.029885
 20
23.147142
 30
0.0
 10
22.018567
 20
24.236632
 30
0.0
 10
22.018567
 20
24.951304
 30
0.0
 10
22.018567
 20
25.665976
 30
0.0
 10
22.069483
 20
25.720925
 30
0.0
 10
22.120401
 20
25.775872
 30
0.0
 10
22.488200
 20
25.866776
 30
0.0
 10
22.744998
 20
25.547780
 30
0.0
 10
22.759561
 20
25.062838
 30
0.0
 10
22.758150
 20
24.092981
 30
0.0
 10
22.734754
 20
22.930480
 30
0.0
 10
22.648605
 20
22.674872
 30
0.0
 10
22.456655
 20
22.557664
 30
0.0
 10
22.232982
 20
22.587354
 30
0.0
  0
LWPOLYLINE
  5
121
100
AcDbEntity
  8
Layer_1
 62
7
100
AcDbPolyline
 90
15
 70
0
 10
23.445331
 20
22.562236
 30
0.0
 10
23.251901
 20
22.847649
 30
0.0
 10
23.222869
 20
24.228166
 30
0.0
 10
23.222869
 20
24.947437
 30
0.0
 10
23.222869
 20
25.666738
 30
0.0
 10
23.277608
 20
25.721460
 30
0.0
 10
23.332349
 20
25.776212
 30
0.0
 10
23.556548
 20
25.883512
 30
0.0
 10
23.791835
 20
25.823287
 30
0.0
 10
23.951098
 20
25.456708
 30
0.0
 10
23.953356
 20
24.101730
 30
0.0
 10
23.915849
 20
22.920094
 30
0.0
 10
23.833079
 20
22.659462
 30
0.0
 10
23.644270
 20
22.551174
 30
0.0
 10
23.445331
 20
22.562237
 30
0.0
  0
LWPOLYLINE
  5
122
100
AcDbEntity
  8
Layer_1
 62
7
100
AcDbPolyline
 90
33
 70
0
 10
26.566940
 20
22.570986
 30
0.0
 10
25.689887
 20
23.021553
 30
0.0
 10
25.263393
 20
23.957007
 30
0.0
 10
25.421114
 20
25.036902
 30
0.0
 10
26.126097
 20
25.751009
 30
0.0
 10
26.385968
 20
25.845497
 30
0.0
 10
26.752709
 20
25.864970
 30
0.0
 10
27.120987
 20
25.845214
 30
0.0
 10
27.386005
 20
25.747707
 30
0.0
 10
27.505396
 20
25.689090
 30
0.0
 10
27.624787
 20
25.630473
 30
0.0
 10
27.624787
 20
25.441497
 30
0.0
 10
27.624787
 20
25.252521
 30
0.0
 10
27.624787
 20
25.063572
 30
0.0
 10
27.624787
 20
24.874596
 30
0.0
 10
27.578069
 20
24.917324
 30
0.0
 10
27.531350
 20
24.960024
 30
0.0
 10
27.059954
 20
25.178408
 30
0.0
 10
26.541517
 20
25.128258
 30
0.0
 10
26.020891
 20
24.522722
 30
0.0
 10
26.108530
 20
23.702640
 30
0.0
 10
26.752102
 20
23.266692
 30
0.0
 10
27.484349
 20
23.445479
 30
0.0
 10
27.556203
 20
23.508584
 30
0.0
 10
27.628056
 20
23.571660
 30
0.0
 10
27.622044
 20
23.376731
 30
0.0
 10
27.616033
 20
23.181799
 30
0.0
 10
27.610022
 20
22.986868
 30
0.0
 10
27.604010
 20
22.791937
 30
0.0
 10
27.489809
 20
22.736678
 30
0.0
 10
27.375608
 20
22.681419
 30
0.0
 10
26.999304
 20
22.560458
 30
0.0
 10
26.566939
 20
22.570985
 30
0.0
  0
LWPOLYLINE
  5
123
100
AcDbEntity
  8
Layer_1
 62
7
100
AcDbPolyline
 90
17
 70
0
 10
28.092800
 20
22.554334
 30
0.0
 10
28.002754
 20
22.596132
 30
0.0
 10
27.916309
 20
22.675802
 30
0.0
 10
27.843794
 20
23.039700
 30
0.0
 10
27.832421
 20
24.787220
 30
0.0
 10
27.832421
 20
25.789617
 30
0.0
 10
27.832421
 20
26.792015
 30
0.0
 10
27.896308
 20
26.845777
 30
0.0
 10
27.960191
 20
26.899540
 30
0.0
 10
28.146918
 20
27.000746
 30
0.0
 10
28.345000
 20
26.960925
 30
0.0
 10
28.531924
 20
26.606001
 30
0.0
 10
28.559158
 20
24.741838
 30
0.0
 10
28.547926
 20
23.054913
 30
0.0
 10
28.482456
 20
22.695192
 30
0.0
 10
28.302113
 20
22.579425
 30
0.0
 10
28.092799
 20
22.554335
 30
0.0
  0
LWPOLYLINE
  5
124
100
AcDbEntity
  8
Layer_1
 62
7
100
AcDbPolyline
 90
11
 70
0
 10
29.258014
 20
22.582556
 30
0.0
 10
29.044959
 20
23.007161
 30
0.0
 10
29.410474
 20
23.311169
 30
0.0
 10
29.751689
 20
23.082372
 30
0.0
 10
29.682384
 20
22.673545
 30
0.0
 10
29.598679
 20
22.595935
 30
0.0
 10
29.540434
 20
22.563677
 30
0.0
 10
29.495857
 20
22.558032
 30
0.0
 10
29.445015
 20
22.544485
 30
0.0
 10
29.367268
 20
22.547872
 30
0.0
 10
29.258014
 20
22.582557
 30
0.0
  0
LWPOLYLINE
  5
125
100
AcDbEntity
  8
Layer_1
 62
7
100
AcDbPolyline
 90
15
 70
0
 10
31.724295
 20
22.547702
 30
0.0
 10
31.703241
 20
22.663499
 30
0.0
 10
31.694493
 20
22.900000
 30
0.0
 10
31.708688
 20
23.177311
 30
0.0
 10
31.787931
 20
23.247528
 30
0.0
 10
32.159778
 20
23.377971
 30
0.0
 10
32.407527
 20
23.606093
 30
0.0
 10
32.681765
 20
23.849028
 30
0.0
 10
32.929443
 20
23.849028
 30
0.0
 10
33.107686
 20
23.697503
 30
0.0
 10
33.152879
 20
23.408367
 30
0.0
 10
32.934453
 20
23.087480
 30
0.0
 10
32.554982
 20
22.759820
 30
0.0
 10
32.065321
 20
22.570110
 30
0.0
 10
31.724295
 20
22.547702
 30
0.0
  0
LWPOLYLINE
  5
126
100
AcDbEntity
  8
Layer_1
 62
7
100
AcDbPolyline
 90
27
 70
0
 10
34.871344
 20
22.551371
 30
0.0
 10
33.798126
 20
23.226814
 30
0.0
 10
33.515881
 20
24.496474
 30
0.0
 10
33.981266
 20
25.412342
 30
0.0
 10
34.902490
 20
25.863502
 30
0.0
 10
34.980355
 20
25.876485
 30
0.0
 10
35.058217
 20
25.889467
 30
0.0
 10
35.058217
 20
25.712824
 30
0.0
 10
35.058217
 20
25.536182
 30
0.0
 10
35.058217
 20
25.359566
 30
0.0
 10
35.058217
 20
25.182925
 30
0.0
 10
34.970009
 20
25.159218
 30
0.0
 10
34.881800
 20
25.135511
 30
0.0
 10
34.515120
 20
24.897824
 30
0.0
 10
34.274117
 20
24.536156
 30
0.0
 10
34.230143
 20
24.204347
 30
0.0
 10
34.278429
 20
23.876518
 30
0.0
 10
34.521222
 20
23.512705
 30
0.0
 10
34.873734
 20
23.284500
 30
0.0
 10
34.955593
 20
23.265309
 30
0.0
 10
35.037454
 20
23.246118
 30
0.0
 10
35.043466
 20
23.065157
 30
0.0
 10
35.049477
 20
22.884196
 30
0.0
 10
35.048348
 20
22.630422
 30
0.0
 10
35.028734
 20
22.528512
 30
0.0
 10
34.969001
 20
22.537825
 30
0.0
 10
34.871344
 20
22.551372
 30
0.0
  0
LWPOLYLINE
  5
127
100
AcDbEntity
  8
Layer_1
 62
7
100
AcDbPolyline
 90
31
 70
0
 10
35.239669
 20
22.583600
 30
0.0
 10
35.229707
 20
22.708935
 30
0.0
 10
35.232755
 20
22.939878
 30
0.0
 10
35.238936
 20
23.092956
 30
0.0
 10
35.245088
 20
23.246004
 30
0.0
 10
35.326949
 20
23.265195
 30
0.0
 10
35.408811
 20
23.284387
 30
0.0
 10
35.766508
 20
23.516515
 30
0.0
 10
36.009667
 20
23.876546
 30
0.0
 10
36.050533
 20
24.267678
 30
0.0
 10
35.977401
 20
24.619073
 30
0.0
 10
35.726816
 20
24.938887
 30
0.0
 10
35.392789
 20
25.137543
 30
0.0
 10
35.308557
 20
25.160120
 30
0.0
 10
35.224325
 20
25.182698
 30
0.0
 10
35.224325
 20
25.359651
 30
0.0
 10
35.224325
 20
25.536604
 30
0.0
 10
35.224325
 20
25.713586
 30
0.0
 10
35.224325
 20
25.890539
 30
0.0
 10
35.322953
 20
25.876428
 30
0.0
 10
35.421581
 20
25.862317
 30
0.0
 10
36.177274
 20
25.515438
 30
0.0
 10
36.681162
 20
24.841886
 30
0.0
 10
36.787438
 20
24.202681
 30
0.0
 10
36.680199
 20
23.562319
 30
0.0
 10
36.346898
 20
23.060020
 30
0.0
 10
35.871043
 20
22.691974
 30
0.0
 10
35.468362
 20
22.566046
 30
0.0
 10
35.239664
 20
22.582979
 30
0.0
 10
35.239666
 20
22.582979
 30
0.0
 10
35.239669
 20
22.583600
 30
0.0
  0
LWPOLYLINE
  5
128
100
AcDbEntity
  8
Layer_1
 62
7
100
AcDbPolyline
 90
49
 70
0
 10
39.475681
 20
22.554701
 30
0.0
 10
39.384374
 20
22.594974
 30
0.0
 10
39.288807
 20
22.672952
 30
0.0
 10
39.200461
 20
22.896218
 30
0.0
 10
39.169444
 20
23.781607
 30
0.0
 10
39.106173
 20
24.814426
 30
0.0
 10
38.857078
 20
25.121004
 30
0.0
 10
38.521646
 20
25.172594
 30
0.0
 10
38.221003
 20
25.082142
 30
0.0
 10
38.159478
 20
25.033882
 30
0.0
 10
38.117605
 20
25.013845
 30
0.0
 10
38.097906
 20
25.110337
 30
0.0
 10
38.089721
 20
25.342352
 30
0.0
 10
38.089721
 20
25.506605
 30
0.0
 10
38.089721
 20
25.670859
 30
0.0
 10
38.197618
 20
25.724622
 30
0.0
 10
38.305511
 20
25.778385
 30
0.0
 10
38.750796
 20
25.886138
 30
0.0
 10
39.181154
 20
25.829919
 30
0.0
 10
39.454844
 20
25.653558
 30
0.0
 10
39.668320
 20
25.418213
 30
0.0
 10
39.704275
 20
25.359088
 30
0.0
 10
39.740233
 20
25.299962
 30
0.0
 10
39.807134
 20
25.384431
 30
0.0
 10
39.874035
 20
25.468900
 30
0.0
 10
40.223640
 20
25.762835
 30
0.0
 10
40.689987
 20
25.877163
 30
0.0
 10
41.355309
 20
25.746776
 30
0.0
 10
41.796767
 20
25.264261
 30
0.0
 10
41.877948
 20
24.943911
 30
0.0
 10
41.902981
 20
23.980460
 30
0.0
 10
41.905239
 20
23.177961
 30
0.0
 10
41.891890
 20
22.787084
 30
0.0
 10
41.635375
 20
22.567853
 30
0.0
 10
41.303042
 20
22.661128
 30
0.0
 10
41.225021
 20
22.888458
 30
0.0
 10
41.194973
 20
23.712180
 30
0.0
 10
41.127130
 20
24.749318
 30
0.0
 10
40.894073
 20
25.096085
 30
0.0
 10
40.569617
 20
25.178494
 30
0.0
 10
40.249046
 20
25.111014
 30
0.0
 10
40.138161
 20
25.012434
 30
0.0
 10
40.035435
 20
24.872226
 30
0.0
 10
39.949416
 20
24.585432
 30
0.0
 10
39.917319
 20
23.720308
 30
0.0
 10
39.887093
 20
22.888712
 30
0.0
 10
39.820963
 20
22.655342
 30
0.0
 10
39.673129
 20
22.563874
 30
0.0
 10
39.475681
 20
22.554702
 30
0.0
  0
LWPOLYLINE
  5
129
100
AcDbEntity
  8
Layer_1
 62
7
100
AcDbPolyline
 90
17
 70
0
 10
5.616246
 20
22.645662
 30
0.0
 10
5.551471
 20
22.731344
 30
0.0
 10
5.510882
 20
22.822163
 30
0.0
 10
5.497871
 20
23.460240
 30
0.0
 10
5.499565
 20
24.861698
 30
0.0
 10
5.505519
 20
25.834209
 30
0.0
 10
5.511474
 20
26.806718
 30
0.0
 10
5.569733
 20
26.856813
 30
0.0
 10
5.627989
 20
26.906906
 30
0.0
 10
5.930272
 20
27.001000
 30
0.0
 10
6.175486
 20
26.800311
 30
0.0
 10
6.226811
 20
26.358520
 30
0.0
 10
6.238213
 20
24.793654
 30
0.0
 10
6.212559
 20
23.001459
 30
0.0
 10
6.070466
 20
22.604317
 30
0.0
 10
5.828339
 20
22.565679
 30
0.0
 10
5.616246
 20
22.645662
 30
0.0
  0
LWPOLYLINE
  5
12a
100
AcDbEntity
  8
Layer_1
 62
7
100
AcDbPolyline
 90
27
 70
0
 10
31.208035
 20
22.623930
 30
0.0
 10
30.593216
 20
22.986162
 30
0.0
 10
30.194908
 20
23.568782
 30
0.0
 10
30.115078
 20
23.860347
 30
0.0
 10
30.095690
 20
24.245551
 30
0.0
 10
30.116376
 20
24.639702
 30
0.0
 10
30.228283
 20
24.940749
 30
0.0
 10
30.709404
 20
25.546681
 30
0.0
 10
31.372652
 20
25.861753
 30
0.0
 10
31.450517
 20
25.875583
 30
0.0
 10
31.528379
 20
25.889410
 30
0.0
 10
31.528379
 20
25.713586
 30
0.0
 10
31.528379
 20
25.537763
 30
0.0
 10
31.528379
 20
25.361938
 30
0.0
 10
31.528379
 20
25.186113
 30
0.0
 10
31.459170
 20
25.163253
 30
0.0
 10
31.389961
 20
25.140393
 30
0.0
 10
30.982028
 20
24.802742
 30
0.0
 10
30.823730
 20
24.224497
 30
0.0
 10
30.973940
 20
23.641736
 30
0.0
 10
31.401961
 20
23.305327
 30
0.0
 10
31.465170
 20
23.283314
 30
0.0
 10
31.528379
 20
23.261301
 30
0.0
 10
31.528379
 20
23.086831
 30
0.0
 10
31.528379
 20
22.912361
 30
0.0
 10
31.489337
 20
22.583177
 30
0.0
 10
31.208035
 20
22.623930
 30
0.0
  0
LWPOLYLINE
  5
12b
100
AcDbEntity
  8
Layer_1
 62
7
100
AcDbPolyline
 90
19
 70
0
 10
37.297563
 20
22.670865
 30
0.0
 10
37.247226
 20
22.724429
 30
0.0
 10
37.196886
 20
22.778023
 30
0.0
 10
37.196886
 20
23.501415
 30
0.0
 10
37.196886
 20
24.224780
 30
0.0
 10
37.196886
 20
24.948172
 30
0.0
 10
37.196886
 20
25.671564
 30
0.0
 10
37.247226
 20
25.725158
 30
0.0
 10
37.297563
 20
25.778723
 30
0.0
 10
37.558997
 20
25.891471
 30
0.0
 10
37.816110
 20
25.758121
 30
0.0
 10
37.869865
 20
25.694227
 30
0.0
 10
37.923620
 20
25.630359
 30
0.0
 10
37.923620
 20
24.935330
 30
0.0
 10
37.923620
 20
24.240301
 30
0.0
 10
37.872865
 20
22.781495
 30
0.0
 10
37.532951
 20
22.563677
 30
0.0
 10
37.406622
 20
22.589923
 30
0.0
 10
37.297563
 20
22.670865
 30
0.0
  0
LWPOLYLINE
  5
12c
100
AcDbEntity
  8
Layer_1
 62
7
100
AcDbPolyline
 90
27
 70
0
 10
8.156854
 20
24.255936
 30
0.0
 10
8.163006
 20
24.396088
 30
0.0
 10
8.169130
 20
24.536241
 30
0.0
 10
8.363243
 20
24.542167
 30
0.0
 10
8.557358
 20
24.548094
 30
0.0
 10
8.751471
 20
24.554021
 30
0.0
 10
8.945586
 20
24.559947
 30
0.0
 10
8.931786
 20
24.614981
 30
0.0
 10
8.917985
 20
24.670014
 30
0.0
 10
8.711093
 20
25.006253
 30
0.0
 10
8.324880
 20
25.223057
 30
0.0
 10
8.236635
 20
25.249586
 30
0.0
 10
8.148390
 20
25.275833
 30
0.0
 10
8.148390
 20
25.428261
 30
0.0
 10
8.148390
 20
25.580718
 30
0.0
 10
8.194770
 20
25.872846
 30
0.0
 10
8.518448
 20
25.820550
 30
0.0
 10
9.287430
 20
25.330471
 30
0.0
 10
9.668947
 20
24.549280
 30
0.0
 10
9.666407
 20
24.254471
 30
0.0
 10
9.551892
 20
24.059540
 30
0.0
 10
9.372890
 20
23.988476
 30
0.0
 10
8.803002
 20
23.975493
 30
0.0
 10
8.473747
 20
23.975493
 30
0.0
 10
8.144492
 20
23.975493
 30
0.0
 10
8.150644
 20
24.115646
 30
0.0
 10
8.156853
 20
24.255937
 30
0.0
  0
LWPOLYLINE
  5
12d
100
AcDbEntity
  8
Layer_1
 62
7
100
AcDbPolyline
 90
23
 70
0
 10
32.660003
 20
24.577389
 30
0.0
 10
32.564685
 20
24.630643
 30
0.0
 10
32.525039
 20
24.676306
 30
0.0
 10
32.471622
 20
24.758151
 30
0.0
 10
32.343192
 20
24.898415
 30
0.0
 10
32.111439
 20
25.076159
 30
0.0
 10
31.746396
 20
25.204288
 30
0.0
 10
31.706905
 20
25.296518
 30
0.0
 10
31.694487
 20
25.558166
 30
0.0
 10
31.694487
 20
25.727838
 30
0.0
 10
31.694487
 20
25.897510
 30
0.0
 10
31.809941
 20
25.885657
 30
0.0
 10
31.925395
 20
25.873805
 30
0.0
 10
32.387969
 20
25.737915
 30
0.0
 10
32.812330
 20
25.488570
 30
0.0
 10
33.063397
 20
25.193055
 30
0.0
 10
33.189480
 20
24.920683
 30
0.0
 10
33.112569
 20
24.705262
 30
0.0
 10
32.935378
 20
24.561641
 30
0.0
 10
32.840896
 20
24.529607
 30
0.0
 10
32.799153
 20
24.517190
 30
0.0
 10
32.756551
 20
24.535534
 30
0.0
 10
32.660003
 20
24.577388
 30
0.0
  0
LWPOLYLINE
  5
12e
100
AcDbEntity
  8
Layer_1
 62
7
100
AcDbPolyline
 90
17
 70
0
 10
24.145241
 20
25.310601
 30
0.0
 10
24.151253
 20
25.504798
 30
0.0
 10
24.157264
 20
25.699024
 30
0.0
 10
24.250702
 20
25.746437
 30
0.0
 10
24.344140
 20
25.793823
 30
0.0
 10
24.611405
 20
25.864010
 30
0.0
 10
24.832088
 20
25.750980
 30
0.0
 10
24.903476
 20
25.646418
 30
0.0
 10
24.925518
 20
25.503020
 30
0.0
 10
24.828600
 20
25.246254
 30
0.0
 10
24.541698
 20
25.121400
 30
0.0
 10
24.374468
 20
25.076074
 30
0.0
 10
24.241623
 20
25.007411
 30
0.0
 10
24.187445
 20
24.964794
 30
0.0
 10
24.133266
 20
24.922178
 30
0.0
 10
24.139277
 20
25.116404
 30
0.0
 10
24.145240
 20
25.310601
 30
0.0
  0
LWPOLYLINE
  5
12f
100
AcDbEntity
  8
Layer_1
 62
7
100
AcDbPolyline
 90
13
 70
0
 10
18.530256
 20
25.320479
 30
0.0
 10
18.576981
 20
25.682317
 30
0.0
 10
18.852094
 20
25.835308
 30
0.0
 10
19.201289
 20
25.785581
 30
0.0
 10
19.360807
 20
25.469465
 30
0.0
 10
19.236595
 20
25.259830
 30
0.0
 10
19.021398
 20
25.137459
 30
0.0
 10
18.899975
 20
25.112623
 30
0.0
 10
18.743739
 20
25.054344
 30
0.0
 10
18.611124
 20
24.996347
 30
0.0
 10
18.546483
 20
24.972076
 30
0.0
 10
18.535025
 20
25.074354
 30
0.0
 10
18.530256
 20
25.320480
 30
0.0
  0
LWPOLYLINE
  5
130
100
AcDbEntity
  8
Layer_1
 62
7
100
AcDbPolyline
 90
9
 70
0
 10
16.514282
 20
26.278510
 30
0.0
 10
16.438840
 20
26.671420
 30
0.0
 10
16.758818
 20
26.899146
 30
0.0
 10
17.018146
 20
26.799409
 30
0.0
 10
17.118318
 20
26.541203
 30
0.0
 10
17.019768
 20
26.278370
 30
0.0
 10
16.765334
 20
26.176573
 30
0.0
 10
16.627590
 20
26.201125
 30
0.0
 10
16.514282
 20
26.278510
 30
0.0
  0
ENDSEC
  0
SECTION
  2
OBJECTS
  0
DICTIONARY
  5
C
330
0
100
AcDbDictionary
  3
ACAD_GROUP
350
D
  3
ACAD_MLINESTYLE
350
17
  0
DICTIONARY
  5
D
330
C
100
AcDbDictionary
  0
DICTIONARY
  5
1A
330
C
100
AcDbDictionary
  0
DICTIONARY
  5
17
330
C
100
AcDbDictionary
  3
STANDARD
350
18
  0
DICTIONARY
  5
19
330
C
100
AcDbDictionary
  0
ENDSEC
  0
EOF
